<svg width="343" height="71" viewBox="0 0 343 71" fill="none" xmlns="http://www.w3.org/2000/svg">
<path d="M71.8683 29.9258C68.3874 24.7195 63.3299 21.0196 57.3167 19.1453C52.3847 17.6806 47.3203 17.7778 41.9209 17.8819C40.6304 17.9374 39.3259 17.9374 38.0005 17.9374H36.2286V49.5917C35.559 49.6472 34.9032 49.6472 34.2335 49.6472C29.1481 49.7375 24.1604 49.793 19.7237 48.4255C14.443 46.8011 10.1877 43.6635 7.04859 39.1097C3.79784 34.2505 2.73751 27.3157 4.22337 20.8738C6.13475 12.6201 13.4106 5.93518 22.2769 4.26222C25.3742 3.66523 29.2946 3.55416 33.0616 3.55416H39.7514V0H33.0616C29.3714 0 25.1719 0.0555339 21.6072 0.756648C11.3806 2.67257 2.98166 10.4751 0.742409 20.0547C-0.973654 27.4407 0.33781 35.4445 4.13268 41.0603C7.60666 46.225 12.6781 50.029 18.7122 51.8547C22.3885 52.9723 26.1973 53.2222 30.1178 53.2222C31.4292 53.2222 39.7794 53.1181 39.7794 53.1181V21.4152C40.5467 21.4152 41.2582 21.4152 42.0186 21.3597C47.0831 21.2695 51.8616 21.1584 56.2633 22.5329C61.565 24.2127 65.8133 27.2949 68.9454 31.9042C72.2102 36.7079 73.2635 43.6427 71.7497 50.1401C69.8523 58.3938 62.6044 65.0718 53.7171 66.8072C50.6059 67.3556 46.7413 67.4042 42.9534 67.4042H36.2635V71H42.9534C46.6436 71 50.8431 70.9584 54.3798 70.2919C64.6065 68.265 73.0054 60.5735 75.2516 50.9523C76.9817 43.6079 75.6562 35.5 71.8544 29.9188L71.8683 29.9258Z" fill="white"/>
<path d="M97.5635 16.6255V19.5302H91.3294V29.5644H92.0986C93.1778 29.5644 94.2685 29.5414 95.3707 29.484C96.4728 29.4266 97.575 29.3118 98.7001 29.1396L99.0445 32.0098C97.9653 32.205 96.8173 32.3313 95.6003 32.3772C94.3833 32.4346 93.2123 32.4576 92.0986 32.4576H88V16.6141H97.552L97.5635 16.6255ZM103.361 22.7218H105.543V14.2834H108.769V39.0361H105.543V25.615H103.361V37.8306H100.135V14.7771H103.361V22.7104V22.7218Z" fill="white"/>
<path d="M111.157 31.298C112.489 30.4943 113.625 29.794 114.567 29.1626C115.508 28.5426 116.289 27.9686 116.92 27.4405C117.552 26.9123 118.045 26.4187 118.413 25.9479C118.78 25.4772 119.056 25.0065 119.239 24.5243C119.423 24.0421 119.549 23.537 119.595 23.0089C119.653 22.4807 119.676 21.8837 119.676 21.2293V19.3924H111.605V16.4878H123.051V21.3901C123.051 22.2741 123.005 23.0892 122.913 23.8125C122.821 24.5358 122.649 25.2247 122.397 25.8446C122.144 26.4761 121.777 27.0845 121.306 27.6701C120.835 28.2556 120.227 28.8641 119.481 29.4955C118.734 30.1269 117.827 30.8043 116.748 31.5161C115.669 32.2394 114.406 33.0431 112.925 33.9501L111.146 31.2865L111.157 31.298ZM130.915 39.0361H127.529V14.2834H130.915V39.0361Z" fill="white"/>
<path d="M148.331 26.7977C148.618 25.5578 148.802 24.3753 148.905 23.2387C148.997 22.1136 149.055 20.931 149.055 19.7141V18.6234H135.771V15.7188H152.407V19.1056C152.407 20.4948 152.35 21.8495 152.235 23.1928C152.12 24.536 151.948 25.73 151.718 26.7977H155.656V29.645H145.989V39.0477H142.614V29.645H132.981V26.7977H148.343H148.331Z" fill="white"/>
<path d="M156.633 23.5143H158.998V17.9002H156.793V15.2366H170.559V17.9002H168.423V23.2732C168.883 23.2387 169.342 23.2043 169.79 23.1813C170.237 23.1583 170.72 23.1239 171.213 23.0895L171.431 25.6727C170.387 25.7645 169.238 25.8449 167.999 25.9137C166.759 25.9826 165.484 26.04 164.175 26.0745C162.867 26.1089 161.569 26.1319 160.272 26.1549C158.975 26.1778 157.758 26.1778 156.621 26.1778V23.5143H156.633ZM176.437 27.8081V34.7884H164.164V36.6253H177.183V39.2889H160.915V32.2626H173.188V30.4487H160.777V27.8081H176.437ZM165.174 23.4109V17.9002H162.247V23.4913L165.174 23.4109ZM176.437 26.683H173.085V14.2722H176.437V26.683Z" fill="white"/>
<path d="M183.359 30.2762H185.598C186.826 30.2762 188.089 30.2418 189.409 30.1614C190.718 30.081 192.004 29.9662 193.244 29.8055L193.611 32.6298C192.348 32.8249 190.971 32.9627 189.49 33.0316C187.997 33.1005 186.436 33.1349 184.806 33.1349H180.041V23.1007H187.974V19.048H180.041V16.2008H191.304V25.8331H183.37V30.2762H183.359ZM198.399 23.0892H201.809V26.0168H198.399V39.0361H195.012V14.2834H198.399V23.1007V23.0892Z" fill="white"/>
<path d="M202.452 16.4074H212.062V19.2546H205.701V22.9515H210.868V25.7413H205.701V29.794H206.849C207.86 29.794 208.927 29.7596 210.041 29.7022C211.155 29.6448 212.28 29.5299 213.393 29.3692L213.715 32.1935C212.682 32.3657 211.51 32.492 210.202 32.5494C208.893 32.6068 207.538 32.6413 206.16 32.6413H202.464V16.4074H202.452ZM215.012 25.6494H212.188V22.7448H215.012V14.7886H218.204V37.8421H215.012V25.6494ZM223.244 39.0361H220.052V14.2834H223.244V39.0361Z" fill="white"/>
<path d="M247.227 33.0776V35.9248H224.541V33.0776H247.227ZM235.964 24.0996C235.827 24.3981 235.528 24.731 235.069 25.0755C234.61 25.4199 234.047 25.8217 233.381 26.2924C232.658 26.7746 231.808 27.3028 230.855 27.8768C229.903 28.4508 228.777 29.1052 227.503 29.8285L225.85 27.165C226.826 26.6139 227.813 26.0399 228.8 25.4428C229.788 24.8458 230.683 24.2833 231.464 23.7552C231.992 23.3993 232.44 23.0434 232.784 22.6875C233.129 22.3316 233.404 21.9527 233.611 21.5509C233.818 21.149 233.955 20.7242 234.047 20.265C234.139 19.8058 234.185 19.2777 234.185 18.6922V15.9482H237.595V18.6922C237.595 19.2777 237.641 19.8058 237.721 20.265C237.813 20.7242 237.951 21.1605 238.157 21.5509C238.364 21.9527 238.639 22.3316 238.984 22.6875C239.328 23.0434 239.765 23.3993 240.304 23.7552C241.085 24.2833 241.969 24.8458 242.968 25.4428C243.955 26.0399 244.942 26.6139 245.918 27.165L244.299 29.7711C243.025 29.0478 241.9 28.3934 240.947 27.8079C239.983 27.2339 239.145 26.7057 238.421 26.2236C237.744 25.7643 237.204 25.3625 236.814 25.041C236.424 24.7196 236.148 24.3981 235.999 24.0996H235.976H235.964Z" fill="white"/>
<path d="M257.479 39.8398C257.146 39.4953 256.572 38.5654 256.297 37.9798C262.531 34.1108 270.372 27.2453 274.322 22.0904H266.331C264.758 22.0904 263.622 22.3889 262.382 22.8252C261.188 22.2856 259.718 21.4475 258.811 20.6668C258.673 20.5176 258.57 20.4257 258.57 20.2305C258.57 19.9894 259.041 19.048 259.282 18.7151C261.084 19.0595 263.185 19.1054 265.034 19.1054H267.938V16.7978C267.938 15.6727 267.181 15.0871 265.562 14.6853C265.654 14.1457 265.849 13.5602 266.033 13.2158C266.17 12.9747 266.366 12.9173 266.561 12.9173C267.273 12.9173 269.752 13.3535 270.889 13.698C271.463 13.8931 271.601 13.9965 271.601 14.3868V19.0939H273.794C275.458 19.0939 277.318 18.8988 278.306 18.8988C279.454 18.8988 280.062 20.4716 279.304 21.5968C278.019 23.56 275.78 26.0054 273.174 28.5541C276.411 31.011 279.591 33.3072 282.829 35.6607C283.208 35.9018 283.116 36.2463 282.921 36.4988C282.45 37.1418 281.405 38.2095 280.544 38.8065C277.41 36.0166 274.218 33.4105 270.935 30.6207C266.985 34.2027 262.382 37.7273 258.57 39.9316C258.099 40.2301 257.766 40.1268 257.479 39.8283V39.8398ZM268.662 49.7477C268.662 45.0865 272.749 40.4368 279.649 40.4368C286.549 40.4368 290.636 45.0979 290.636 49.7477C290.636 54.3974 286.549 59.0586 279.649 59.0586C272.749 59.0586 268.662 54.3974 268.662 49.7477ZM286.778 49.7477C286.778 46.6593 284.161 43.7202 279.649 43.7202C275.137 43.7202 272.519 46.6593 272.519 49.7477C272.519 52.836 275.137 55.7751 279.649 55.7751C284.161 55.7751 286.778 52.836 286.778 49.7477ZM287.869 29.6907H279.97C279.683 28.7608 279.396 27.3831 279.396 26.7976C279.396 26.212 279.637 26.1087 280.303 26.1087C280.774 26.1087 283.816 26.4531 285.676 26.4531H287.869V16.6026C287.869 15.8678 287.628 15.6727 287.065 15.2249C286.491 14.7886 285.114 14.1917 283.782 13.9046C283.92 13.3191 284.207 12.5269 284.402 12.2399C284.54 11.9988 284.735 11.9414 284.93 11.9414C286.411 11.9414 289.637 12.5729 291.015 13.1125C291.543 13.3076 291.727 13.5028 291.727 13.8931V33.6516C291.727 35.7067 291.394 39.1968 291.199 40.8615C291.153 41.2978 291.061 41.5963 290.682 41.6996C290.154 41.8489 288.73 41.8948 287.881 41.7456V29.6792L287.869 29.6907Z" fill="white"/>
<path d="M330.67 33.0776C322.679 35.0867 311.646 36.8088 305.607 36.8088C303.61 36.8088 302.944 35.7755 302.944 33.8123V21.6082C302.944 20.2879 301.899 19.645 300.613 19.358C300.659 18.9217 300.854 17.3029 301.474 17.3029C302.611 17.3029 305.091 17.6474 306.331 17.6474H316.606C317.938 17.6474 321.359 17.257 321.887 17.257C322.461 17.257 322.691 17.3603 322.691 17.8425C322.691 18.3821 322.45 20.1502 322.163 20.9768H306.801V33.3301C312.645 33.3301 323.782 31.9065 330.67 30.1385V16.6026C330.67 15.8678 330.429 15.6727 329.866 15.2249C329.292 14.7886 327.915 14.1917 326.583 13.9046C326.721 13.3191 327.008 12.5269 327.203 12.2399C327.341 11.9988 327.536 11.9414 327.731 11.9414C329.2 11.9414 332.438 12.5729 333.816 13.1125C334.332 13.3076 334.528 13.5028 334.528 13.8931V24.6277H336.72C338.569 24.6277 341.623 24.134 342.093 24.134C342.759 24.134 343 24.2373 343 24.8229C343 25.4084 342.713 26.7861 342.426 27.716H334.528V31.3899C334.528 33.4449 334.195 36.9351 333.999 38.5998C333.954 39.0361 333.862 39.3346 333.471 39.4379C332.943 39.5872 331.52 39.6331 330.67 39.4838V33.0661V33.0776ZM310.739 55.1437V46.0279C310.739 44.7076 309.695 44.0647 308.409 43.7777C308.455 43.3414 308.65 41.7226 309.258 41.7226C310.406 41.7226 312.875 42.067 314.115 42.067H327.386C328.569 42.067 331.669 41.8719 332.851 41.8719C333.609 41.8719 334.045 42.2163 334.045 43.1921V56.2802C334.045 57.5087 333.334 57.7957 332.622 57.7957H312.84C311.554 57.7957 310.751 57.015 310.751 55.1437H310.739ZM330.245 54.5581V45.2931H314.551V54.5581H330.245Z" fill="white"/>
<path d="M88 48.6914H90.8702C91.3294 48.6914 91.7198 48.7488 92.0412 48.8636C92.3742 48.9784 92.6382 49.1277 92.8449 49.3343C93.0516 49.5295 93.2123 49.7706 93.3156 50.0461C93.4189 50.3217 93.4649 50.6202 93.4649 50.9417V51.1713C93.4649 51.4927 93.4075 51.7912 93.3041 52.0783C93.2008 52.3653 93.0401 52.6178 92.8219 52.8245C92.6038 53.0426 92.3283 53.2034 92.0068 53.3411C91.6853 53.4674 91.295 53.5363 90.8587 53.5363H89.3433V56.5558H88V48.7029V48.6914ZM89.3547 49.851V52.3423H90.698C91.1457 52.3423 91.4902 52.2505 91.7427 52.0783C91.9953 51.906 92.1216 51.5846 92.1216 51.1368V50.9417C92.1216 50.7235 92.0872 50.5513 92.0298 50.4135C91.9724 50.2758 91.8805 50.161 91.7657 50.0806C91.6509 50.0002 91.5131 49.9428 91.3524 49.9084C91.1917 49.8739 91.0195 49.8625 90.8243 49.8625H89.3662L89.3547 49.851Z" fill="white"/>
<path d="M98.8838 48.1748H100.273V49.6558H98.8838V48.1748ZM98.9068 50.5398H100.239V56.5328H98.9068V50.5398Z" fill="white"/>
<path d="M107.747 48.3125H109.079V56.5442H107.747V48.3125Z" fill="white"/>
<path d="M116.806 56.6249C116.174 56.6249 115.692 56.4757 115.348 56.1886C115.003 55.8901 114.831 55.4883 114.831 54.9487V54.6043C114.831 54.3632 114.865 54.1336 114.946 53.9269C115.015 53.7203 115.141 53.5366 115.313 53.3873C115.485 53.2381 115.715 53.1118 115.991 53.0314C116.278 52.9396 116.622 52.9051 117.024 52.9051H118.356V52.6755C118.356 52.3081 118.275 52.0326 118.103 51.8719C117.942 51.7111 117.678 51.6308 117.311 51.6308C116.702 51.6308 116.163 51.8259 115.669 52.2278L115.015 51.2289C115.313 51.0223 115.646 50.8271 116.014 50.6664C116.381 50.5056 116.817 50.4253 117.322 50.4253C117.655 50.4253 117.977 50.4712 118.264 50.5516C118.551 50.6434 118.803 50.7582 119.01 50.9305C119.217 51.0912 119.377 51.2978 119.492 51.5274C119.607 51.7685 119.664 52.0326 119.664 52.3426V56.556H118.47L118.448 55.8098C118.39 55.9361 118.298 56.0624 118.183 56.1657C118.057 56.269 117.919 56.3609 117.77 56.4297C117.609 56.4986 117.449 56.556 117.288 56.5905C117.116 56.6249 116.955 56.6479 116.806 56.6479V56.6249ZM118.356 53.9614H117.058C116.702 53.9614 116.461 54.0303 116.324 54.168C116.186 54.3058 116.117 54.4895 116.117 54.7191V54.8454C116.117 55.0406 116.186 55.1898 116.312 55.3046C116.45 55.4194 116.645 55.4654 116.898 55.4654C117.437 55.4654 117.839 55.3276 118.103 55.0635C118.218 54.9372 118.298 54.811 118.31 54.6617C118.333 54.5239 118.344 54.3402 118.344 54.1106V53.9499L118.356 53.9614Z" fill="white"/>
<path d="M125.083 51.6765H124.153V50.5399H125.083V49.0015H126.415V50.5399H127.885V51.6765H126.415V54.8337C126.415 55.0863 126.461 55.2585 126.564 55.3389C126.668 55.4192 126.805 55.4537 126.978 55.4537C127.115 55.4537 127.242 55.4422 127.379 55.4192C127.506 55.3963 127.655 55.3503 127.804 55.2815L128.011 56.3836C127.896 56.441 127.724 56.4984 127.517 56.5558C127.311 56.6132 127.069 56.6362 126.817 56.6362C126.484 56.6362 126.208 56.6018 125.979 56.5214C125.749 56.441 125.577 56.3262 125.439 56.177C125.301 56.0277 125.21 55.8325 125.152 55.6144C125.095 55.3963 125.072 55.1437 125.072 54.8567V51.688L125.083 51.6765Z" fill="white"/>
<path d="M137.379 55.9818C137.092 56.1769 136.77 56.3377 136.392 56.4525C136.013 56.5673 135.542 56.6247 135.002 56.6247C134.669 56.6247 134.337 56.5788 134.015 56.4869C133.694 56.3951 133.418 56.2458 133.165 56.0277C132.913 55.8095 132.718 55.5225 132.568 55.1666C132.419 54.8107 132.339 54.363 132.339 53.8234V53.2034C132.339 52.7212 132.408 52.2964 132.546 51.9405C132.683 51.5846 132.867 51.2976 133.108 51.068C133.349 50.8384 133.625 50.6662 133.946 50.5628C134.268 50.448 134.612 50.4021 134.991 50.4021C135.37 50.4021 135.691 50.4595 136.013 50.5628C136.323 50.6662 136.598 50.8384 136.816 51.0565C137.046 51.2746 137.218 51.5502 137.344 51.8831C137.471 52.2161 137.54 52.5949 137.54 53.0312V54.0185H133.648C133.648 54.5007 133.774 54.8566 134.015 55.0977C134.256 55.3388 134.612 55.4651 135.083 55.4651C135.427 55.4651 135.737 55.4307 136.001 55.3503C136.265 55.27 136.552 55.1437 136.851 54.9715L137.402 55.9588L137.379 55.9818ZM136.242 52.9968V52.7327C136.242 52.572 136.219 52.4227 136.173 52.2735C136.128 52.1242 136.047 51.9979 135.944 51.8946C135.841 51.7913 135.703 51.6994 135.542 51.6306C135.381 51.5617 135.186 51.5272 134.956 51.5272C134.509 51.5272 134.176 51.642 133.958 51.8831C133.74 52.1242 133.625 52.4112 133.625 52.7557V52.9853H136.242V52.9968Z" fill="white"/>
<path d="M143.796 55.4651C144.095 55.4651 144.336 55.4192 144.519 55.3388C144.703 55.2585 144.784 55.0977 144.784 54.8681V54.7992C144.784 54.6959 144.772 54.6156 144.749 54.5467C144.726 54.4778 144.669 54.4204 144.588 54.363C144.508 54.317 144.382 54.2596 144.221 54.2252C144.06 54.1793 143.842 54.1334 143.567 54.076C143.211 54.0071 142.912 53.9152 142.66 53.8234C142.407 53.72 142.2 53.6052 142.051 53.456C141.89 53.3067 141.776 53.1345 141.707 52.9279C141.638 52.7212 141.592 52.4801 141.592 52.2046V52.0898C141.592 51.8831 141.638 51.688 141.718 51.4813C141.799 51.2746 141.925 51.1024 142.109 50.9417C142.292 50.781 142.522 50.6547 142.809 50.5514C143.096 50.448 143.44 50.4021 143.854 50.4021C144.187 50.4021 144.554 50.4365 144.921 50.5054C145.3 50.5743 145.656 50.7236 145.989 50.9532L145.415 51.9405C145.22 51.8028 145.002 51.6994 144.761 51.642C144.519 51.5846 144.267 51.5502 144.014 51.5502C143.601 51.5502 143.314 51.5961 143.165 51.6994C143.004 51.8028 142.935 51.929 142.935 52.0898V52.1587C142.935 52.2735 142.947 52.3538 142.981 52.4227C143.004 52.4916 143.061 52.549 143.142 52.5949C143.222 52.6409 143.325 52.6868 143.475 52.7212C143.613 52.7557 143.796 52.8016 144.026 52.836C144.393 52.9164 144.715 52.9968 144.979 53.0886C145.254 53.1804 145.472 53.2953 145.645 53.433C145.817 53.5708 145.943 53.7545 146.035 53.9612C146.115 54.1793 146.161 54.4433 146.161 54.7648V54.8796C146.161 55.1092 146.115 55.3388 146.012 55.5455C145.909 55.7521 145.759 55.9473 145.564 56.0966C145.369 56.2573 145.128 56.3836 144.841 56.4754C144.554 56.5673 144.221 56.6132 143.854 56.6132C143.371 56.6132 142.912 56.5443 142.476 56.418C142.04 56.2918 141.684 56.1081 141.408 55.8784L141.994 54.8337C142.258 55.0174 142.533 55.1666 142.832 55.2814C143.13 55.3962 143.463 55.4536 143.819 55.4536L143.796 55.4651Z" fill="white"/>
<path d="M158.584 48.5767C159.124 48.5767 159.594 48.6455 160.008 48.7718C160.421 48.8981 160.823 49.1277 161.202 49.4492L160.478 50.5169C160.168 50.2529 159.858 50.0692 159.56 49.9888C159.261 49.9084 158.928 49.8625 158.584 49.8625C158.354 49.8625 158.136 49.8969 157.918 49.9658C157.7 50.0347 157.505 50.161 157.333 50.3447C157.16 50.5284 157.023 50.7695 156.919 51.091C156.816 51.4009 156.759 51.8028 156.759 52.285V53.0886C156.759 53.5019 156.804 53.8578 156.908 54.1448C157.011 54.4319 157.137 54.673 157.31 54.8567C157.47 55.0404 157.666 55.1666 157.884 55.2585C158.102 55.3388 158.331 55.3848 158.572 55.3848C158.928 55.3848 159.284 55.3274 159.652 55.2126C160.019 55.0978 160.352 54.8796 160.662 54.5696L161.385 55.6373C161.156 55.867 160.926 56.0506 160.673 56.1884C160.421 56.3262 160.18 56.4295 159.927 56.4984C159.686 56.5788 159.434 56.6247 159.204 56.6477C158.963 56.6706 158.745 56.6821 158.527 56.6821C158.113 56.6821 157.711 56.6247 157.344 56.4984C156.965 56.3721 156.632 56.1769 156.357 55.9129C156.07 55.6488 155.84 55.3044 155.679 54.8911C155.507 54.4778 155.427 53.9726 155.427 53.3871V51.9865C155.427 51.4009 155.507 50.8958 155.679 50.471C155.84 50.0462 156.07 49.6903 156.357 49.4148C156.644 49.1392 156.977 48.9326 157.367 48.7948C157.746 48.6685 158.159 48.5996 158.607 48.5996L158.584 48.5767Z" fill="white"/>
<path d="M169.146 50.4137C169.41 50.4137 169.663 50.4597 169.904 50.5285C170.145 50.6089 170.363 50.7352 170.558 50.9189C170.753 51.0911 170.902 51.3322 171.017 51.6077C171.132 51.8948 171.189 52.2277 171.189 52.6295V56.533H169.858V52.9166C169.858 52.044 169.49 51.5963 168.744 51.5963C168.641 51.5963 168.514 51.6077 168.365 51.6422C168.216 51.6766 168.078 51.7455 167.952 51.8374C167.826 51.9407 167.711 52.0784 167.619 52.2621C167.527 52.4458 167.481 52.6869 167.481 52.9854V56.533H166.149V48.3013H167.401V51.2174H167.424C167.63 50.9189 167.883 50.7008 168.182 50.586C168.48 50.4711 168.801 50.4023 169.146 50.4023V50.4137Z" fill="white"/>
<path d="M181.373 55.9818C181.086 56.1769 180.765 56.3377 180.386 56.4525C180.007 56.5673 179.536 56.6247 178.997 56.6247C178.664 56.6247 178.331 56.5788 178.009 56.4869C177.688 56.3951 177.412 56.2458 177.16 56.0277C176.907 55.8095 176.712 55.5225 176.563 55.1666C176.413 54.8107 176.333 54.363 176.333 53.8234V53.2034C176.333 52.7212 176.402 52.2964 176.54 51.9405C176.677 51.5846 176.861 51.2976 177.102 51.068C177.343 50.8384 177.619 50.6662 177.94 50.5628C178.262 50.448 178.606 50.4021 178.985 50.4021C179.364 50.4021 179.685 50.4595 180.007 50.5628C180.317 50.6662 180.592 50.8384 180.811 51.0565C181.04 51.2746 181.212 51.5502 181.339 51.8831C181.465 52.2161 181.534 52.5949 181.534 53.0312V54.0185H177.642C177.642 54.5007 177.768 54.8566 178.009 55.0977C178.25 55.3388 178.606 55.4651 179.077 55.4651C179.421 55.4651 179.731 55.4307 179.995 55.3503C180.259 55.27 180.546 55.1437 180.845 54.9715L181.396 55.9588L181.373 55.9818ZM180.248 52.9968V52.7327C180.248 52.572 180.225 52.4227 180.179 52.2735C180.133 52.1242 180.053 51.9979 179.949 51.8946C179.846 51.7913 179.708 51.6994 179.548 51.6306C179.387 51.5617 179.192 51.5272 178.962 51.5272C178.514 51.5272 178.181 51.642 177.963 51.8831C177.745 52.1242 177.63 52.4112 177.63 52.7557V52.9853H180.248V52.9968Z" fill="white"/>
<path d="M189.192 56.6249C188.778 56.6249 188.399 56.5675 188.067 56.4412C187.734 56.3149 187.447 56.1427 187.217 55.9131C186.976 55.6835 186.804 55.3965 186.666 55.0521C186.54 54.7076 186.471 54.3173 186.471 53.881V53.1692C186.471 52.7215 186.54 52.3311 186.666 51.9982C186.792 51.6537 186.976 51.3667 187.217 51.1371C187.447 50.9075 187.734 50.7238 188.067 50.609C188.399 50.4827 188.778 50.4253 189.192 50.4253C189.605 50.4253 189.972 50.4827 190.305 50.609C190.638 50.7353 190.925 50.9075 191.166 51.1371C191.407 51.3667 191.58 51.6537 191.717 51.9982C191.844 52.3426 191.913 52.7329 191.913 53.1692V53.881C191.913 54.3173 191.844 54.7076 191.717 55.0521C191.591 55.3965 191.407 55.6835 191.166 55.9131C190.925 56.1427 190.65 56.3264 190.305 56.4412C189.972 56.5675 189.593 56.6249 189.192 56.6249ZM189.192 55.4309C189.387 55.4309 189.571 55.3965 189.743 55.3391C189.915 55.2817 190.053 55.1898 190.179 55.0635C190.305 54.9372 190.397 54.7765 190.466 54.5699C190.535 54.3632 190.569 54.1221 190.569 53.8351V53.1692C190.569 52.5952 190.443 52.1933 190.19 51.9522C189.938 51.7111 189.605 51.5963 189.18 51.5963C188.755 51.5963 188.422 51.7111 188.17 51.9522C187.917 52.1933 187.791 52.5952 187.791 53.1692V53.8351C187.791 54.1221 187.825 54.3632 187.894 54.5699C187.963 54.7765 188.067 54.9372 188.181 55.0635C188.308 55.1898 188.445 55.2817 188.618 55.3391C188.79 55.3965 188.974 55.4309 189.169 55.4309H189.192Z" fill="white"/>
<path d="M199.95 50.4136C200.214 50.4136 200.466 50.4595 200.707 50.5284C200.948 50.6088 201.167 50.735 201.362 50.9187C201.557 51.0909 201.706 51.332 201.821 51.6076C201.936 51.8946 201.993 52.2275 201.993 52.6294V56.5328H200.661V52.9164C200.661 52.0439 200.294 51.5961 199.548 51.5961C199.444 51.5961 199.318 51.6076 199.169 51.642C199.02 51.6765 198.882 51.7454 198.756 51.8372C198.629 51.9405 198.515 52.0783 198.423 52.262C198.331 52.4457 198.285 52.6868 198.285 52.9853V56.5328H196.953V50.5399H198.205V51.2287H198.227C198.434 50.9302 198.687 50.7121 198.985 50.5973C199.284 50.4825 199.605 50.4136 199.95 50.4136Z" fill="white"/>
<path d="M211.006 55.7292H210.983C210.833 56.0162 210.604 56.2229 210.317 56.3377C210.03 56.4525 209.708 56.5099 209.352 56.5099C208.606 56.5099 208.043 56.2803 207.676 55.844C207.309 55.3963 207.125 54.7648 207.125 53.9612V53.0197C207.125 52.6179 207.182 52.262 207.286 51.9405C207.401 51.6191 207.55 51.3435 207.756 51.1139C207.963 50.8843 208.204 50.7121 208.491 50.5973C208.778 50.4825 209.1 50.4136 209.444 50.4136C209.674 50.4136 209.869 50.4366 210.041 50.4825C210.213 50.5284 210.374 50.5858 210.5 50.6432C210.627 50.7121 210.741 50.781 210.822 50.8613C210.902 50.9417 210.971 51.0106 211.017 51.068V50.5514H212.291V56.4984C212.291 57.3365 212.073 57.9565 211.625 58.3698C211.178 58.7831 210.477 58.9897 209.524 58.9897C209.157 58.9897 208.79 58.9323 208.434 58.8061C208.066 58.6798 207.768 58.5305 207.527 58.3353L208.124 57.2676C208.124 57.2676 208.262 57.371 208.365 57.4398C208.468 57.4972 208.583 57.5546 208.709 57.612C208.836 57.658 208.973 57.7039 209.111 57.7383C209.249 57.7728 209.398 57.7842 209.536 57.7842C210.007 57.7842 210.363 57.6809 210.604 57.4743C210.845 57.2676 210.971 56.9462 210.971 56.4984V55.7636L211.006 55.7292ZM208.445 53.7545C208.445 54.2596 208.549 54.6615 208.744 54.937C208.939 55.2126 209.237 55.3503 209.628 55.3503C209.846 55.3503 210.041 55.3159 210.213 55.2355C210.386 55.1552 210.535 55.0518 210.65 54.914C210.764 54.7763 210.856 54.627 210.914 54.4433C210.971 54.2711 211.006 54.076 211.006 53.8693V52.7557C211.006 52.6179 210.983 52.4801 210.925 52.3309C210.868 52.1931 210.787 52.0668 210.684 51.952C210.569 51.8372 210.443 51.7454 210.271 51.6765C210.11 51.6076 209.903 51.5617 209.674 51.5617C209.249 51.5617 208.939 51.6994 208.744 51.9865C208.537 52.2735 208.445 52.6638 208.445 53.1575V53.7201V53.7545Z" fill="white"/>
<path d="M221.327 55.8324H221.292C221.132 56.1194 220.914 56.3261 220.604 56.4524C220.305 56.5672 219.972 56.6361 219.628 56.6361C218.881 56.6361 218.319 56.4179 217.951 55.9702C217.584 55.5224 217.4 54.891 217.4 54.0873V53.0311C217.4 52.6293 217.458 52.2619 217.561 51.9404C217.664 51.619 217.825 51.3434 218.032 51.1253C218.238 50.9072 218.48 50.7349 218.767 50.6086C219.054 50.4938 219.364 50.425 219.72 50.425C219.949 50.425 220.156 50.4479 220.328 50.4938C220.5 50.5398 220.649 50.5857 220.776 50.6546C220.902 50.712 220.994 50.7809 221.074 50.8612C221.155 50.9416 221.212 51.0105 221.246 51.0679V48.324H222.578V56.5557H221.315V55.8439L221.327 55.8324ZM218.709 53.8577C218.709 54.3629 218.813 54.7647 219.008 55.0402C219.214 55.3158 219.501 55.4535 219.892 55.4535C220.11 55.4535 220.305 55.4191 220.477 55.3387C220.649 55.2584 220.799 55.155 220.914 55.0288C221.028 54.891 221.12 54.7417 221.189 54.558C221.246 54.3858 221.281 54.1907 221.281 53.984V52.767C221.281 52.6293 221.258 52.4915 221.201 52.3423C221.143 52.2045 221.063 52.0782 220.959 51.9634C220.845 51.8486 220.718 51.7567 220.546 51.6878C220.385 51.619 220.179 51.573 219.949 51.573C219.524 51.573 219.214 51.7108 219.019 51.9978C218.813 52.2848 218.721 52.6752 218.721 53.1689V53.8462L218.709 53.8577Z" fill="white"/>
<path d="M229.811 56.6249C229.191 56.6249 228.697 56.4757 228.353 56.1886C228.008 55.8901 227.836 55.4883 227.836 54.9487V54.6043C227.836 54.3632 227.87 54.1336 227.951 53.9269C228.031 53.7203 228.146 53.5366 228.318 53.3873C228.49 53.2381 228.72 53.1118 228.995 53.0314C229.271 52.9396 229.615 52.9051 230.029 52.9051H231.361V52.6755C231.361 52.3081 231.28 52.0326 231.108 51.8719C230.947 51.7111 230.683 51.6308 230.316 51.6308C229.707 51.6308 229.168 51.8259 228.674 52.2278L228.02 51.2289C228.318 51.0223 228.651 50.8271 229.018 50.6664C229.386 50.5056 229.822 50.4253 230.327 50.4253C230.66 50.4253 230.982 50.4712 231.269 50.5516C231.556 50.6434 231.808 50.7582 232.015 50.9305C232.222 51.0912 232.382 51.2978 232.497 51.5274C232.612 51.7685 232.669 52.0326 232.669 52.3426V56.556H231.475L231.452 55.8098C231.395 55.9361 231.303 56.0624 231.188 56.1657C231.062 56.269 230.924 56.3609 230.775 56.4297C230.626 56.4986 230.454 56.556 230.293 56.5905C230.121 56.6249 229.96 56.6479 229.811 56.6479V56.6249ZM231.361 53.9614H230.063C229.707 53.9614 229.466 54.0303 229.328 54.168C229.191 54.3058 229.122 54.4895 229.122 54.7191V54.8454C229.122 55.0406 229.191 55.1898 229.317 55.3046C229.455 55.4194 229.65 55.4654 229.902 55.4654C230.442 55.4654 230.844 55.3276 231.108 55.0635C231.223 54.9372 231.303 54.811 231.315 54.6617C231.338 54.5239 231.349 54.3402 231.349 54.1106V53.9499L231.361 53.9614Z" fill="white"/>
<path d="M242.635 50.4136C242.899 50.4136 243.151 50.4595 243.404 50.5514C243.645 50.6432 243.863 50.781 244.047 50.9761C244.231 51.1598 244.38 51.4009 244.483 51.6879C244.598 51.975 244.644 52.2964 244.644 52.6753V56.5443H243.312V52.9623C243.312 52.6983 243.289 52.4686 243.232 52.2964C243.174 52.1242 243.094 51.9864 243.002 51.8831C242.899 51.7798 242.795 51.7224 242.669 51.6765C242.543 51.642 242.405 51.6191 242.267 51.6191C242.141 51.6191 242.015 51.642 241.877 51.6765C241.739 51.7109 241.636 51.7913 241.533 51.8831C241.429 51.9864 241.349 52.1127 241.291 52.285C241.223 52.4572 241.2 52.6638 241.2 52.9049V56.5328H239.868V52.9279C239.868 52.6753 239.845 52.4686 239.787 52.2964C239.73 52.1242 239.661 51.9979 239.558 51.8946C239.466 51.7913 239.351 51.7224 239.225 51.6879C239.099 51.6535 238.961 51.6306 238.812 51.6306C238.49 51.6306 238.238 51.7339 238.042 51.9405C237.847 52.1472 237.744 52.4572 237.744 52.8705V56.5443H236.412V50.5514H237.664V51.3091H237.686C237.824 51.0335 238.031 50.8154 238.306 50.6547C238.582 50.4939 238.903 50.4136 239.282 50.4136C239.638 50.4136 239.96 50.4939 240.247 50.6662C240.534 50.8384 240.729 51.0565 240.832 51.332C241.039 51.0221 241.28 50.8039 241.556 50.6432C241.831 50.494 242.198 50.4136 242.635 50.4136Z" fill="white"/>
</svg>
