<svg width="1208" height="240" viewBox="0 0 1208 240" fill="none" xmlns="http://www.w3.org/2000/svg">
<path d="M159.095 150.2H165.087V152.104C165.087 161.12 160.495 169.24 150.583 172.096L147.111 166.272C155.455 163.92 159.095 157.984 159.095 152.104V150.2ZM160.495 150.2H166.543V152.104C166.543 157.424 170.239 162.856 178.583 165.04L175.223 170.808C165.255 168.176 160.495 160.616 160.495 152.104V150.2ZM148.903 146.504H176.735V152.328H148.903V146.504ZM159.095 140.96H166.543V148.8H159.095V140.96ZM175.279 154.96H185.191V160.952H175.279V154.96ZM183.399 141.128H190.847V172.432H183.399V141.128ZM173.263 173.328C184.239 173.328 191.015 176.912 191.015 183.128C191.015 189.344 184.239 192.984 173.263 192.984C162.287 192.984 155.511 189.344 155.511 183.128C155.511 176.912 162.287 173.328 173.263 173.328ZM173.263 178.984C166.487 178.984 162.959 180.328 162.959 183.128C162.959 185.928 166.487 187.328 173.263 187.328C180.095 187.328 183.623 185.928 183.623 183.128C183.623 180.328 180.095 178.984 173.263 178.984ZM232.339 141.128H239.787V170.192H232.339V141.128ZM237.715 152.776H246.675V158.824H237.715V152.776ZM200.923 162.408H205.235C216.491 162.408 222.091 162.128 228.307 160.84L229.035 166.72C222.707 168.12 216.771 168.4 205.235 168.4H200.923V162.408ZM200.923 144.32H223.939V150.256H208.315V165.88H200.923V144.32ZM206.075 172.432H239.787V192.424H206.075V172.432ZM232.507 178.312H213.411V186.544H232.507V178.312ZM300.753 141.128H308.257V167.672H300.753V141.128ZM273.145 169.744H308.257V183.744H280.593V190.016H273.257V178.424H300.865V175.456H273.145V169.744ZM273.257 186.88H309.657V192.648H273.257V186.88ZM267.265 144.264H295.209V149.976H267.265V144.264ZM266.649 166.776L265.921 160.896C274.993 160.896 287.089 160.728 297.113 159.496L297.505 164.816C287.257 166.496 275.609 166.72 266.649 166.776ZM271.353 146.84H278.465V163.808H271.353V146.84ZM283.897 146.84H291.121V163.808H283.897V146.84ZM349.805 141.072H357.197V193.096H349.805V141.072ZM355.517 160.672H364.701V166.832H355.517V160.672ZM318.669 174.952H323.037C331.829 174.952 338.661 174.672 346.277 173.328L347.005 179.32C339.165 180.72 332.053 181.056 323.037 181.056H318.669V174.952ZM318.613 145.496H342.469V165.6H326.061V177.248H318.669V159.664H335.077V151.432H318.613V145.496ZM389.168 160H398.352V165.992H389.168V160ZM369.568 175.624H373.096C380.376 175.624 385.08 175.512 390.736 174.56L391.352 180.496C385.528 181.504 380.544 181.616 373.096 181.616H369.568V175.624ZM369.568 146.84H388.832V152.72H376.624V177.808H369.568V146.84ZM374.608 160.784H386.872V166.496H374.608V160.784ZM405.52 141.128H412.632V192.984H405.52V141.128ZM394.824 142.024H401.768V190.688H394.824V142.024ZM438.836 144.096H445.332V147.848C445.332 159.104 437.324 169.072 423.884 171.704L420.692 165.544C432.396 163.528 438.836 155.296 438.836 147.848V144.096ZM440.348 144.096H446.788V147.848C446.788 155.464 453.172 163.528 464.932 165.544L461.74 171.704C448.3 169.072 440.348 159.272 440.348 147.848V144.096ZM419.628 180.608H466.556V186.656H419.628V180.608ZM498.795 172.656H506.243V181.056H498.795V172.656ZM521.475 141.128H528.923V192.984H521.475V141.128ZM486.811 184.36L485.915 178.368C495.323 178.312 507.867 178.312 518.787 176.856L519.291 182.232C508.035 184.304 495.995 184.36 486.811 184.36ZM486.923 146.84H518.115V152.664H486.923V146.84ZM502.491 154.736C510.163 154.736 515.483 158.656 515.483 164.424C515.483 170.248 510.163 174.168 502.491 174.168C494.931 174.168 489.611 170.248 489.611 164.424C489.611 158.656 494.931 154.736 502.491 154.736ZM502.491 160.336C499.131 160.336 496.723 161.792 496.723 164.424C496.723 167.112 499.131 168.568 502.491 168.568C505.963 168.568 508.371 167.112 508.371 164.424C508.371 161.792 505.963 160.336 502.491 160.336ZM498.795 141.352H506.243V150.2H498.795V141.352ZM550.646 167.728H558.094V179.096H550.646V167.728ZM573.382 141.128H580.83V180.384H573.382V141.128ZM543.478 186.152H581.95V192.088H543.478V186.152ZM543.478 176.688H550.926V187.72H543.478V176.688ZM537.878 169.968L536.982 164.032C546.446 164.032 559.102 163.92 569.966 162.52L570.414 167.84C559.382 169.688 547.23 169.968 537.878 169.968ZM563.582 171.256H575.006V176.352H563.582V171.256ZM553.67 142.92C561.23 142.92 566.55 146.672 566.55 152.16C566.55 157.704 561.23 161.4 553.67 161.4C546.054 161.4 540.734 157.704 540.734 152.16C540.734 146.672 546.054 142.92 553.67 142.92ZM553.67 148.352C550.198 148.352 547.79 149.64 547.79 152.16C547.79 154.68 550.198 155.968 553.67 155.968C557.086 155.968 559.494 154.68 559.494 152.16C559.494 149.64 557.086 148.352 553.67 148.352ZM601.938 165.32H609.33V176.968H601.938V165.32ZM625.234 141.128H632.738V180.16H625.234V141.128ZM595.386 186.152H633.858V192.088H595.386V186.152ZM595.386 176.296H602.834V187.608H595.386V176.296ZM589.226 166.608L588.33 160.728C597.794 160.672 610.618 160.504 621.65 158.992L622.154 164.256C610.898 166.272 598.578 166.552 589.226 166.608ZM615.266 168.792H626.914V174.56H615.266V168.792ZM593.034 143.704H615.042V149.584H593.034V143.704ZM610.338 143.704H617.73V145.496C617.73 148.52 617.73 154.12 616.386 161.848L609.106 161.344C610.338 153.672 610.338 148.408 610.338 145.496V143.704ZM682.504 154.512H694.6V160.504H682.504V154.512ZM690.68 141.184H698.128V178.984H690.68V141.184ZM663.912 186.152H699.304V192.088H663.912V186.152ZM663.912 175.792H671.36V189.68H663.912V175.792ZM666.712 147.96H672.76V151.208C672.76 160.952 668.168 169.968 658.2 173.272L654.448 167.336C663.016 164.536 666.712 157.76 666.712 151.208V147.96ZM668.28 147.96H674.272V151.208C674.272 157.256 677.8 163.696 685.976 166.44L682.336 172.264C672.704 169.072 668.28 160.448 668.28 151.208V147.96ZM656.464 144.656H684.352V150.536H656.464V144.656ZM718.732 149.304H724.668V155.128C724.668 167.112 719.796 178.816 710.052 183.24L705.852 177.36C714.532 173.496 718.732 163.92 718.732 155.128V149.304ZM720.412 149.304H726.292V155.128C726.292 163.528 730.436 172.488 739.116 176.072L735.084 181.952C725.228 177.696 720.412 166.664 720.412 155.128V149.304ZM707.924 146.112H736.988V152.216H707.924V146.112ZM741.804 141.128H749.308V192.984H741.804V141.128ZM785.816 153.056H795.672V159.104H785.816V153.056ZM793.712 141.128H801.16V171.088H793.712V141.128ZM766.608 173.216H801.16V192.424H766.608V173.216ZM793.88 179.04H773.944V186.544H793.88V179.04ZM769.744 145.944H775.792V149.192C775.792 158.992 771.2 167.952 761.232 171.2L757.48 165.32C766.048 162.52 769.744 155.744 769.744 149.192V145.944ZM771.312 145.944H777.304V149.192C777.304 155.24 780.832 161.624 789.008 164.368L785.368 170.248C775.736 167.056 771.312 158.432 771.312 149.192V145.944ZM759.496 143.76H787.384V149.64H759.496V143.76ZM820.923 145.104H826.971V152.664C826.971 165.488 822.491 177.528 812.691 182.344L808.211 176.352C816.947 172.264 820.923 162.296 820.923 152.664V145.104ZM822.435 145.104H828.371V152.664C828.371 161.96 832.067 171.424 840.355 175.456L835.875 181.392C826.523 176.632 822.435 165.096 822.435 152.664V145.104ZM842.427 141.128H849.931V192.984H842.427V141.128ZM848.251 161.064H857.435V167.28H848.251V161.064ZM871.319 158.488H878.767V168.008H871.319V158.488ZM889.575 158.488H896.967V168.008H889.575V158.488ZM860.791 165.712H907.663V171.592H860.791V165.712ZM884.143 174.224C895.343 174.224 902.119 177.584 902.119 183.576C902.119 189.624 895.343 192.984 884.143 192.984C872.887 192.984 866.111 189.624 866.111 183.576C866.111 177.584 872.887 174.224 884.143 174.224ZM884.143 179.824C877.199 179.824 873.671 181 873.671 183.576C873.671 186.208 877.199 187.384 884.143 187.384C891.087 187.384 894.615 186.208 894.615 183.576C894.615 181 891.087 179.824 884.143 179.824ZM884.255 141.856C895.679 141.856 903.015 145.664 903.015 151.88C903.015 158.04 895.679 161.736 884.255 161.736C872.775 161.736 865.495 158.04 865.495 151.88C865.495 145.664 872.775 141.856 884.255 141.856ZM884.255 147.568C877.143 147.568 873.167 148.968 873.167 151.88C873.167 154.736 877.143 156.136 884.255 156.136C891.367 156.136 895.343 154.736 895.343 151.88C895.343 148.968 891.367 147.568 884.255 147.568ZM945.458 141.072H952.962V192.928H945.458V141.072ZM951.002 160.896H960.13V167H951.002V160.896ZM931.85 146.448H939.13C939.13 162.016 933.194 175.344 915.946 184.024L911.802 178.368C925.41 171.312 931.85 161.792 931.85 147.736V146.448ZM914.658 146.448H935.658V152.44H914.658V146.448ZM969.758 154.008H1005.54V159.944H969.758V154.008ZM969.758 141.968H977.15V156.696H969.758V141.968ZM963.878 164.368H1010.81V170.304H963.878V164.368ZM987.174 173.608C998.374 173.608 1005.15 177.08 1005.15 183.24C1005.15 189.344 998.374 192.872 987.174 192.872C975.974 192.872 969.142 189.344 969.142 183.24C969.142 177.08 975.974 173.608 987.174 173.608ZM987.174 179.32C980.23 179.32 976.702 180.552 976.702 183.24C976.702 185.872 980.23 187.16 987.174 187.16C994.118 187.16 997.646 185.872 997.646 183.24C997.646 180.552 994.118 179.32 987.174 179.32ZM1023.63 175.512H1018.25L1016.85 148.016H1025.03L1023.63 175.512ZM1016.63 184.416C1016.63 182.848 1017.04 181.747 1017.86 181.112C1018.68 180.44 1019.71 180.104 1020.94 180.104C1022.09 180.104 1023.08 180.421 1023.91 181.056C1024.76 181.691 1025.19 182.811 1025.19 184.416C1025.19 185.947 1024.76 187.048 1023.91 187.72C1023.08 188.392 1022.09 188.728 1020.94 188.728C1019.71 188.728 1018.68 188.392 1017.86 187.72C1017.04 187.048 1016.63 185.947 1016.63 184.416Z" fill="black"/>
<path d="M223.245 71.34H247.689V74.154H223.245V71.34ZM219.549 96.834H253.863V99.732H219.549V96.834ZM245.841 71.34H249.243V75.12C249.243 79.992 249.243 85.41 247.815 93.6L244.329 93.264C245.841 85.494 245.841 79.824 245.841 75.12V71.34ZM285.822 67.266H289.308V105.318H285.822V67.266ZM260.37 93.264H263.52C269.862 93.264 275.532 93.012 282.252 91.92L282.63 94.776C275.742 95.91 270.03 96.162 263.52 96.162H260.37V93.264ZM260.286 70.836H277.842V84.402H263.856V94.356H260.37V81.546H274.314V73.692H260.286V70.836ZM300.435 71.088H324.879V73.986H300.435V71.088ZM296.823 97.086H331.137V99.984H296.823V97.086ZM310.137 83.52H313.623V98.514H310.137V83.52ZM323.577 71.088H327.021V74.868C327.021 79.572 327.021 84.78 325.635 92.466L322.149 92.004C323.577 84.738 323.577 79.404 323.577 74.868V71.088ZM357.164 90.072H360.692V96.33H357.164V90.072ZM373.796 67.308H377.282V105.276H373.796V67.308ZM347.042 98.052L346.58 95.154C353.762 95.112 363.212 95.028 371.402 93.978L371.654 96.54C363.212 97.968 354.056 98.052 347.042 98.052ZM347.378 71.928H370.436V74.742H347.378V71.928ZM358.886 76.926C364.346 76.926 368.042 79.698 368.042 83.94C368.042 88.224 364.346 90.954 358.886 90.954C353.468 90.954 349.772 88.224 349.772 83.94C349.772 79.698 353.468 76.926 358.886 76.926ZM358.886 79.614C355.484 79.614 353.09 81.336 353.09 83.94C353.09 86.544 355.484 88.266 358.886 88.266C362.33 88.266 364.724 86.544 364.724 83.94C364.724 81.336 362.33 79.614 358.886 79.614ZM357.164 67.308H360.65V73.482H357.164V67.308ZM395.758 86.418H399.244V94.86H395.758V86.418ZM412.6 67.308H416.086V96.204H412.6V67.308ZM390.172 101.58H417.01V104.436H390.172V101.58ZM390.172 93.39H393.658V102.378H390.172V93.39ZM385.258 87.72L384.796 84.864C391.81 84.864 401.218 84.78 409.282 83.73L409.534 86.292C401.344 87.594 392.146 87.72 385.258 87.72ZM404.872 89.736H413.482V92.298H404.872V89.736ZM397.144 68.862C402.688 68.862 406.468 71.466 406.468 75.456C406.468 79.488 402.688 82.092 397.144 82.092C391.558 82.092 387.778 79.488 387.778 75.456C387.778 71.466 391.558 68.862 397.144 68.862ZM397.144 71.466C393.574 71.466 391.096 73.02 391.096 75.456C391.096 77.892 393.574 79.446 397.144 79.446C400.672 79.446 403.15 77.892 403.15 75.456C403.15 73.02 400.672 71.466 397.144 71.466ZM451.237 67.308H454.723V88.812H451.237V67.308ZM425.995 69.492H429.439V84.948H425.995V69.492ZM425.995 83.016H429.061C435.403 83.016 441.073 82.596 447.121 81.336L447.625 84.192C441.325 85.536 435.613 85.956 429.061 85.956H425.995V83.016ZM430.195 90.66H454.723V104.772H430.195V90.66ZM451.321 93.432H433.597V101.916H451.321V93.432ZM462.28 83.142H496.594V85.998H462.28V83.142ZM466.816 77.262H492.52V80.076H466.816V77.262ZM466.816 68.526H492.1V71.382H470.26V79.53H466.816V68.526ZM466.396 89.274H492.184V98.22H469.924V103.008H466.48V95.616H488.74V92.004H466.396V89.274ZM466.48 102.084H493.318V104.856H466.48V102.084ZM528.468 67.266H531.954V105.318H528.468V67.266ZM511.92 70.206C517.548 70.206 521.58 75.372 521.58 83.436C521.58 91.542 517.548 96.708 511.92 96.708C506.334 96.708 502.302 91.542 502.302 83.436C502.302 75.372 506.334 70.206 511.92 70.206ZM511.92 73.356C508.224 73.356 505.62 77.304 505.62 83.436C505.62 89.61 508.224 93.642 511.92 93.642C515.658 93.642 518.22 89.61 518.22 83.436C518.22 77.304 515.658 73.356 511.92 73.356ZM576.125 67.266H579.653V105.276H576.125V67.266ZM578.687 82.68H585.701V85.578H578.687V82.68ZM566.423 71.382H569.825C569.825 82.176 564.869 91.92 552.605 98.094L550.673 95.406C561.173 90.072 566.423 81.966 566.423 71.928V71.382ZM552.437 71.382H568.229V74.238H552.437V71.382ZM598.424 71.382H601.28V74.448C601.28 81.42 597.08 87.258 590.696 89.568L588.932 86.796C594.644 84.78 598.424 79.866 598.424 74.448V71.382ZM599.054 71.382H601.91V74.406C601.91 79.362 605.522 83.814 611.108 85.662L609.428 88.392C603.086 86.292 599.054 80.874 599.054 74.406V71.382ZM589.982 70.122H610.268V72.978H589.982V70.122ZM615.056 67.308H618.542V90.198H615.056V67.308ZM617.576 76.926H624.17V79.866H617.576V76.926ZM606.446 91.206C614.174 91.206 618.92 93.768 618.92 98.178C618.92 102.63 614.174 105.192 606.446 105.192C598.718 105.192 593.972 102.63 593.972 98.178C593.972 93.768 598.718 91.206 606.446 91.206ZM606.446 94.02C600.818 94.02 597.374 95.532 597.374 98.178C597.374 100.866 600.818 102.462 606.446 102.462C612.074 102.462 615.518 100.866 615.518 98.178C615.518 95.532 612.074 94.02 606.446 94.02ZM654.019 78.564H657.463V84.36H654.019V78.564ZM653.515 69.618H656.581V70.794C656.581 76.506 649.525 80.16 641.545 80.916L640.411 78.27C647.257 77.724 653.515 74.784 653.515 70.794V69.618ZM655.027 69.618H658.051V70.794C658.051 74.742 664.309 77.724 671.155 78.27L670.021 80.916C662.083 80.16 655.027 76.506 655.027 70.794V69.618ZM641.755 68.484H669.853V71.214H641.755V68.484ZM641.797 90.87H669.769V93.642H641.797V90.87ZM638.605 83.058H673.045V85.872H638.605V83.058ZM655.783 95.49C663.091 95.49 667.165 97.212 667.165 100.488C667.165 103.806 663.091 105.486 655.783 105.486C648.475 105.486 644.359 103.806 644.359 100.488C644.359 97.212 648.475 95.49 655.783 95.49ZM655.783 97.884C650.743 97.884 647.929 98.766 647.929 100.488C647.929 102.21 650.743 103.092 655.783 103.092C660.781 103.092 663.637 102.21 663.637 100.488C663.637 98.766 660.781 97.884 655.783 97.884ZM654.061 87.384H657.505V92.634H654.061V87.384ZM687.364 70.206C692.95 70.206 696.898 75.372 696.898 83.436C696.898 91.542 692.95 96.708 687.364 96.708C681.778 96.708 677.83 91.542 677.83 83.436C677.83 75.372 681.778 70.206 687.364 70.206ZM687.364 73.356C683.668 73.356 681.148 77.304 681.148 83.436C681.148 89.61 683.668 93.642 687.364 93.642C691.018 93.642 693.58 89.61 693.58 83.436C693.58 77.304 691.018 73.356 687.364 73.356ZM702.946 67.308H706.474V105.276H702.946V67.308ZM705.634 82.47H712.69V85.41H705.634V82.47ZM741.624 67.308H745.11V105.276H741.624V67.308ZM744.27 82.89H751.326V85.83H744.27V82.89ZM715.71 73.356H738.096V76.212H715.71V73.356ZM727.05 79.362C732.426 79.362 736.29 82.974 736.29 88.098C736.29 93.222 732.426 96.834 727.05 96.834C721.716 96.834 717.81 93.222 717.81 88.098C717.81 82.974 721.716 79.362 727.05 79.362ZM727.05 82.26C723.606 82.26 721.128 84.654 721.128 88.098C721.128 91.5 723.606 93.936 727.05 93.936C730.494 93.936 732.972 91.5 732.972 88.098C732.972 84.654 730.494 82.26 727.05 82.26ZM725.244 67.77H728.73V74.658H725.244V67.77ZM759.177 78.69H784.965V81.546H759.177V78.69ZM754.515 86.628H788.955V89.484H754.515V86.628ZM759.177 68.694H762.621V80.118H759.177V68.694ZM758.925 101.496H785.175V104.352H758.925V101.496ZM758.925 93.264H762.369V102.252H758.925V93.264ZM803.642 87.048H838.838V91.458H803.642V87.048ZM807.59 93.936H834.554V105.738H828.968V98.346H807.59V93.936ZM808.01 80.454H835.1V84.696H808.01V80.454ZM808.01 67.728H834.806V71.97H813.554V82.596H808.01V67.728ZM812 74.112H833.924V78.186H812V74.112ZM861.095 71.718H870.503V75.918H861.095V71.718ZM861.095 78.816H870.503V83.016H861.095V78.816ZM869.285 66.846H874.871V86.796H869.285V66.846ZM849.167 88.308H874.871V98.724H854.753V103.638H849.209V94.692H869.327V92.592H849.167V88.308ZM849.209 100.992H875.963V105.318H849.209V100.992ZM843.959 68.442H849.503V72.978H856.895V68.442H862.355V85.746H843.959V68.442ZM849.503 77.178V81.378H856.895V77.178H849.503ZM909.055 66.846H914.389V105.738H909.055V66.846ZM901.579 67.476H906.787V104.016H901.579V67.476ZM897.421 79.404H903.931V83.856H897.421V79.404ZM897.169 88.518H903.721V92.928H897.169V88.518ZM880.915 72.684H899.227V77.094H880.915V72.684ZM889.987 78.9C894.817 78.9 898.303 82.722 898.303 88.266C898.303 93.768 894.817 97.632 889.987 97.632C885.241 97.632 881.713 93.768 881.713 88.266C881.713 82.722 885.241 78.9 889.987 78.9ZM889.987 83.562C887.971 83.562 886.585 85.242 886.585 88.266C886.585 91.248 887.971 92.928 889.987 92.928C892.045 92.928 893.431 91.248 893.431 88.266C893.431 85.242 892.045 83.562 889.987 83.562ZM887.341 67.77H892.843V75.414H887.341V67.77ZM920.896 84.57H923.584C929.212 84.57 932.824 84.486 937.108 83.772L937.612 88.224C933.16 88.98 929.38 89.106 923.584 89.106H920.896V84.57ZM920.896 69.45H936.226V73.902H926.272V87.048H920.896V69.45ZM924.676 77.052H935.806V81.252H924.676V77.052ZM947.44 66.846H952.732V90.576H947.44V66.846ZM942.778 76.38H948.952V80.832H942.778V76.38ZM939.124 67.56H944.332V90.324H939.124V67.56ZM926.02 92.256H952.732V105.738H947.188V96.708H926.02V92.256Z" fill="black"/>
<circle cx="822" cy="51" r="4" fill="#EA7A4A"/>
<circle cx="860" cy="51" r="4" fill="#EA7A4A"/>
<circle cx="898" cy="51" r="4" fill="#EA7A4A"/>
<circle cx="936" cy="51" r="4" fill="#EA7A4A"/>
<rect x="2" y="2" width="1204" height="236" stroke="#EA7A4A" stroke-width="4"/>
</svg>
