<svg width="1440" height="495" viewBox="0 0 1440 495" fill="none" xmlns="http://www.w3.org/2000/svg">
<path d="M144.499 102.228H152.707V104.676H144.499V102.228ZM151.015 93.3H154.003V117.132H151.015V93.3ZM133.231 122.64H154.903V125.088H133.231V122.64ZM133.231 115.044H136.219V123.9H133.231V115.044ZM135.535 97.332H137.983V99.96C137.983 105.864 134.311 110.976 128.875 112.992L127.327 110.616C132.187 108.888 135.535 104.568 135.535 99.96V97.332ZM136.111 97.332H138.523V99.924C138.523 104.136 141.691 108.24 146.407 109.896L144.895 112.236C139.603 110.328 136.111 105.432 136.111 99.924V97.332ZM128.263 95.928H145.651V98.34H128.263V95.928ZM177.765 97.908H180.177V103.2C180.177 110.076 176.037 116.988 170.853 119.544L169.125 117.168C173.841 114.936 177.765 108.816 177.765 103.2V97.908ZM178.341 97.908H180.753V103.2C180.753 108.708 184.677 114.324 189.465 116.376L187.773 118.752C182.517 116.304 178.341 109.968 178.341 103.2V97.908ZM170.205 96.576H188.385V99.096H170.205V96.576ZM192.777 93.264H195.765V125.808H192.777V93.264ZM219.631 101.4H226.867V103.884H219.631V101.4ZM226.039 93.264H229.027V112.308H226.039V93.264ZM207.931 113.892H229.027V125.376H207.931V113.892ZM226.111 116.268H210.847V122.964H226.111V116.268ZM210.559 96.36H213.007V98.988C213.007 104.928 209.335 110.004 203.899 112.02L202.351 109.644C207.211 107.916 210.559 103.596 210.559 98.988V96.36ZM211.135 96.36H213.547V98.952C213.547 103.164 216.715 107.232 221.431 108.888L219.919 111.264C214.627 109.356 211.135 104.424 211.135 98.952V96.36ZM203.287 95.352H220.675V97.764H203.287V95.352ZM248.572 105.9H254.728V108.384H248.572V105.9ZM260.164 93.264H263.044V125.808H260.164V93.264ZM253.72 93.948H256.564V124.188H253.72V93.948ZM242.704 95.964C246.916 95.964 249.652 100.32 249.652 107.304C249.652 114.288 246.916 118.644 242.704 118.644C238.492 118.644 235.792 114.288 235.792 107.304C235.792 100.32 238.492 95.964 242.704 95.964ZM242.704 98.736C240.148 98.736 238.528 102.048 238.528 107.304C238.528 112.56 240.148 115.872 242.704 115.872C245.296 115.872 246.916 112.56 246.916 107.304C246.916 102.048 245.296 98.736 242.704 98.736ZM281.19 94.56H284.142V98.628H299.874V94.56H302.862V107.556H281.19V94.56ZM284.142 101.004V105.144H299.874V101.004H284.142ZM277.266 111.012H306.678V113.46H277.266V111.012ZM290.514 106.152H293.466V112.092H290.514V106.152ZM281.082 122.64H303.438V125.088H281.082V122.64ZM281.082 116.088H284.07V123.468H281.082V116.088ZM318.375 96.072H320.823V101.904C320.823 109.104 316.935 116.124 311.787 118.86L309.951 116.484C314.667 114.108 318.375 107.844 318.375 101.904V96.072ZM318.915 96.072H321.327V101.904C321.327 107.628 324.963 113.568 329.571 115.872L327.735 118.248C322.695 115.548 318.915 108.888 318.915 101.904V96.072ZM332.415 93.264H335.439V125.808H332.415V93.264ZM334.719 106.44H340.767V108.96H334.719V106.44ZM354.197 108.312H356.825C363.845 108.312 367.697 108.168 372.269 107.376L372.593 109.752C367.877 110.58 363.917 110.688 356.825 110.688H354.197V108.312ZM354.197 95.244H369.677V97.656H357.149V109.536H354.197V95.244ZM356.177 101.652H368.777V104.064H356.177V101.652ZM375.977 93.3H379.001V112.668H375.977V93.3ZM357.977 114.288H379.001V125.376H357.977V114.288ZM376.049 116.7H360.893V122.964H376.049V116.7ZM393.435 96.756H395.883V99.384C395.883 105.36 392.283 110.364 386.811 112.344L385.299 109.968C390.195 108.24 393.435 104.028 393.435 99.384V96.756ZM393.975 96.756H396.423V99.348C396.423 103.596 399.519 107.412 404.307 108.996L402.867 111.336C397.431 109.536 393.975 104.892 393.975 99.348V96.756ZM386.199 95.676H403.587V98.124H386.199V95.676ZM407.691 93.264H410.679V112.884H407.691V93.264ZM409.851 101.508H415.503V104.028H409.851V101.508ZM400.311 113.748C406.935 113.748 411.003 115.944 411.003 119.724C411.003 123.54 406.935 125.736 400.311 125.736C393.687 125.736 389.619 123.54 389.619 119.724C389.619 115.944 393.687 113.748 400.311 113.748ZM400.311 116.16C395.487 116.16 392.535 117.456 392.535 119.724C392.535 122.028 395.487 123.396 400.311 123.396C405.135 123.396 408.087 122.028 408.087 119.724C408.087 117.456 405.135 116.16 400.311 116.16ZM433.248 93.804C440.412 93.804 444.696 95.82 444.696 99.456C444.696 103.092 440.412 105.108 433.248 105.108C426.048 105.108 421.8 103.092 421.8 99.456C421.8 95.82 426.048 93.804 433.248 93.804ZM433.248 96.072C427.92 96.072 424.86 97.296 424.86 99.456C424.86 101.616 427.92 102.84 433.248 102.84C438.54 102.84 441.6 101.616 441.6 99.456C441.6 97.296 438.54 96.072 433.248 96.072ZM418.524 107.268H447.936V109.68H418.524V107.268ZM422.088 112.452H444.192V119.796H425.112V123.756H422.16V117.636H441.24V114.756H422.088V112.452ZM422.16 123.108H445.164V125.448H422.16V123.108ZM461.618 96.324H464.462V104.28H471.266V96.324H474.038V117.672H461.618V96.324ZM464.462 106.692V115.224H471.266V106.692H464.462ZM485.234 93.264H488.114V125.808H485.234V93.264ZM480.014 106.152H486.278V108.6H480.014V106.152ZM478.034 93.948H480.878V124.188H478.034V93.948ZM517.235 93.264H520.223V125.808H517.235V93.264ZM502.583 101.004H504.995V103.776C504.995 110.724 501.071 117.024 495.851 119.544L494.159 117.24C498.983 115.008 502.583 109.464 502.583 103.776V101.004ZM503.159 101.004H505.535V103.776C505.535 109.212 509.243 114.504 514.103 116.628L512.411 118.968C507.155 116.592 503.159 110.508 503.159 103.776V101.004ZM495.059 98.916H512.987V101.328H495.059V98.916ZM502.583 93.84H505.571V100.248H502.583V93.84ZM548.732 93.264H551.72V125.808H548.732V93.264ZM551 106.62H557.048V109.14H551V106.62ZM526.52 98.448H545.708V100.896H526.52V98.448ZM536.24 103.596C540.848 103.596 544.16 106.692 544.16 111.084C544.16 115.476 540.848 118.572 536.24 118.572C531.668 118.572 528.32 115.476 528.32 111.084C528.32 106.692 531.668 103.596 536.24 103.596ZM536.24 106.08C533.288 106.08 531.164 108.132 531.164 111.084C531.164 114 533.288 116.088 536.24 116.088C539.192 116.088 541.316 114 541.316 111.084C541.316 108.132 539.192 106.08 536.24 106.08ZM534.692 93.66H537.68V99.564H534.692V93.66ZM574.47 100.5H584.298V102.984H574.47V100.5ZM574.47 110.796H584.298V113.28H574.47V110.796ZM568.494 95.748C573.21 95.748 576.594 100.176 576.594 107.088C576.594 114.036 573.21 118.464 568.494 118.464C563.742 118.464 560.394 114.036 560.394 107.088C560.394 100.176 563.742 95.748 568.494 95.748ZM568.494 98.448C565.362 98.448 563.202 101.832 563.202 107.088C563.202 112.38 565.362 115.836 568.494 115.836C571.626 115.836 573.786 112.38 573.786 107.088C573.786 101.832 571.626 98.448 568.494 98.448ZM583.65 93.228H586.602V125.844H583.65V93.228ZM614.972 106.116H621.128V108.564H614.972V106.116ZM608.348 101.58H610.652V103.272C610.652 109.752 607.952 116.304 603.2 119.148L601.436 116.88C605.828 114.324 608.348 108.6 608.348 103.272V101.58ZM608.888 101.58H611.192V103.272C611.192 108.456 613.784 113.82 618.176 116.196L616.484 118.428C611.696 115.764 608.888 109.608 608.888 103.272V101.58ZM602.336 99.24H617.204V101.724H602.336V99.24ZM608.348 94.416H611.228V101.148H608.348V94.416ZM626.456 93.264H629.336V125.808H626.456V93.264ZM619.94 94.02H622.748V124.152H619.94V94.02ZM647.441 102.3H654.677V104.712H647.441V102.3ZM647.189 110.472H654.605V112.884H647.189V110.472ZM659.609 93.264H662.489V125.808H659.609V93.264ZM653.093 94.092H655.901V124.152H653.093V94.092ZM645.821 97.368H648.701C648.701 105.9 645.281 113.568 636.533 118.788L634.805 116.664C642.401 112.056 645.821 105.576 645.821 97.908V97.368ZM636.245 97.368H647.009V99.816H636.245V97.368ZM676.238 96.576H678.686V99.204C678.686 105.144 675.014 110.22 669.578 112.236L668.03 109.86C672.89 108.132 676.238 103.812 676.238 99.204V96.576ZM676.814 96.576H679.226V99.204C679.226 103.38 682.394 107.448 687.11 109.104L685.598 111.48C680.306 109.536 676.814 104.64 676.814 99.204V96.576ZM685.346 101.724H692.582V104.208H685.346V101.724ZM668.966 95.496H686.354V97.908H668.966V95.496ZM672.998 114.504H694.706V125.808H691.718V116.952H672.998V114.504ZM691.718 93.264H694.706V112.74H691.718V93.264ZM724.727 93.3H727.751V117.06H724.727V93.3ZM706.835 122.64H728.723V125.088H706.835V122.64ZM706.835 114.612H709.787V123.468H706.835V114.612ZM710.291 95.532C715.151 95.532 718.751 98.844 718.751 103.56C718.751 108.24 715.151 111.588 710.291 111.588C705.431 111.588 701.795 108.24 701.795 103.56C701.795 98.844 705.431 95.532 710.291 95.532ZM710.291 98.124C707.123 98.124 704.711 100.356 704.711 103.56C704.711 106.728 707.123 108.96 710.291 108.96C713.459 108.96 715.871 106.728 715.871 103.56C715.871 100.356 713.459 98.124 710.291 98.124ZM744.71 95.784H759.11V98.232H744.71V95.784ZM749.606 103.056H752.558V111.192H749.606V103.056ZM757.922 95.784H760.874V97.512C760.874 99.636 760.874 102.876 760.01 107.16L757.094 106.836C757.922 102.552 757.922 99.6 757.922 97.512V95.784ZM765.302 93.264H768.29V117.78H765.302V93.264ZM766.922 103.848H772.934V106.332H766.922V103.848ZM747.734 122.64H769.334V125.088H747.734V122.64ZM747.734 115.512H750.686V123.396H747.734V115.512ZM743.054 112.596L742.73 110.148C748.526 110.148 756.518 110.004 763.106 109.104L763.322 111.264C756.554 112.452 748.778 112.596 743.054 112.596ZM799.787 93.228H802.775V125.844H799.787V93.228ZM777.971 115.512H780.671C786.107 115.512 790.967 115.296 796.727 114.36L797.051 116.808C791.147 117.78 786.251 117.996 780.671 117.996H777.971V115.512ZM777.899 96.288H792.947V107.916H780.959V116.448H777.971V105.468H789.923V98.736H777.899V96.288ZM831.212 93.228H834.236V125.808H831.212V93.228ZM833.408 106.44H839.42V108.924H833.408V106.44ZM822.896 96.756H825.812C825.812 106.008 821.564 114.36 811.052 119.652L809.396 117.348C818.396 112.776 822.896 105.828 822.896 97.224V96.756ZM810.908 96.756H824.444V99.204H810.908V96.756ZM858.646 113.388H861.706V125.808H858.646V113.388ZM869.842 113.388H872.902V125.808H869.842V113.388ZM851.086 111.768H880.606V114.252H851.086V111.768ZM865.774 94.56C872.578 94.56 877.15 97.296 877.15 101.652C877.15 105.972 872.578 108.744 865.774 108.744C859.006 108.744 854.398 105.972 854.398 101.652C854.398 97.296 859.006 94.56 865.774 94.56ZM865.774 96.972C860.806 96.972 857.422 98.808 857.422 101.652C857.422 104.496 860.806 106.332 865.774 106.332C870.742 106.332 874.09 104.496 874.09 101.652C874.09 98.808 870.742 96.972 865.774 96.972ZM892.843 97.908H895.255V103.2C895.255 110.076 891.115 116.988 885.931 119.544L884.203 117.168C888.919 114.936 892.843 108.816 892.843 103.2V97.908ZM893.419 97.908H895.831V103.2C895.831 108.708 899.755 114.324 904.543 116.376L902.851 118.752C897.595 116.304 893.419 109.968 893.419 103.2V97.908ZM885.283 96.576H903.463V99.096H885.283V96.576ZM907.855 93.264H910.843V125.808H907.855V93.264ZM920.453 101.796H936.077V104.1H920.453V101.796ZM920.453 94.632H935.717V96.972H923.513V102.84H920.453V94.632ZM926.681 103.092H929.669V108.528H926.681V103.092ZM941.045 93.264H944.033V110.76H941.045V93.264ZM917.933 110.004L917.537 107.628C923.837 107.592 931.793 107.448 938.525 106.692L938.705 108.78C931.793 109.788 924.053 110.004 917.933 110.004ZM922.577 112.236H944.033V119.832H925.565V124.008H922.613V117.564H941.117V114.612H922.577V112.236ZM922.613 123.072H945.149V125.448H922.613V123.072ZM972.403 94.416H975.031V96.216C975.031 102.444 968.695 106.908 961.927 108.06L960.739 105.648C966.679 104.748 972.403 100.86 972.403 96.216V94.416ZM972.943 94.416H975.535V96.216C975.535 100.752 981.331 104.748 987.199 105.648L986.011 108.06C979.315 106.908 972.943 102.372 972.943 96.216V94.416ZM972.403 113.424H975.355V125.808H972.403V113.424ZM959.263 111.588H988.675V114.072H959.263V111.588ZM1009.27 113.28H1011.57V115.044C1011.57 119.292 1008.91 123.576 1004.23 125.376L1002.72 123.144C1006.82 121.668 1009.27 118.176 1009.27 115.044V113.28ZM1009.92 113.28H1012.15V115.044C1012.15 118.32 1014.09 121.812 1017.98 123.396L1016.72 125.664C1012.04 123.828 1009.92 119.364 1009.92 115.044V113.28ZM1021.29 113.28H1023.53V115.044C1023.53 118.86 1021.37 123.684 1016.72 125.664L1015.46 123.396C1019.31 121.632 1021.29 117.852 1021.29 115.044V113.28ZM1021.91 113.28H1024.21V115.044C1024.21 118.392 1026.62 121.74 1030.76 123.144L1029.25 125.376C1024.5 123.648 1021.91 119.544 1021.91 115.044V113.28ZM1024.82 93.3H1027.85V111.876H1024.82V93.3ZM1010.39 95.172C1015.32 95.172 1018.85 98.268 1018.85 102.768C1018.85 107.268 1015.32 110.328 1010.39 110.328C1005.45 110.328 1001.89 107.268 1001.89 102.768C1001.89 98.268 1005.45 95.172 1010.39 95.172ZM1010.39 97.656C1007.15 97.656 1004.81 99.744 1004.81 102.768C1004.81 105.792 1007.15 107.844 1010.39 107.844C1013.63 107.844 1015.97 105.792 1015.97 102.768C1015.97 99.744 1013.63 97.656 1010.39 97.656ZM1037.99 108.456H1060.35V110.904H1037.99V108.456ZM1034.29 119.22H1063.77V121.74H1034.29V119.22ZM1047.46 109.5H1050.45V120.228H1047.46V109.5ZM1037.99 95.856H1060.03V98.304H1040.98V109.536H1037.99V95.856ZM1067.37 111.156H1096.89V113.604H1067.37V111.156ZM1071.11 94.092H1093.07V101.976H1074.14V106.368H1071.18V99.78H1090.16V96.432H1071.11V94.092ZM1071.18 105.396H1093.79V107.736H1071.18V105.396ZM1080.62 106.62H1083.6V112.38H1080.62V106.62ZM1070.64 116.088H1093.29V125.52H1090.3V118.536H1070.64V116.088ZM1113.02 108.456H1135.37V110.904H1113.02V108.456ZM1109.31 119.22H1138.79V121.74H1109.31V119.22ZM1122.49 109.5H1125.47V120.228H1122.49V109.5ZM1113.02 95.856H1135.05V98.304H1116.01V109.536H1113.02V95.856ZM1150.63 109.68H1153.62V117.456H1150.63V109.68ZM1152.11 95.352C1157.11 95.352 1160.71 98.484 1160.71 103.02C1160.71 107.556 1157.11 110.688 1152.11 110.688C1147.11 110.688 1143.51 107.556 1143.51 103.02C1143.51 98.484 1147.11 95.352 1152.11 95.352ZM1152.11 97.908C1148.8 97.908 1146.42 99.996 1146.42 103.02C1146.42 106.044 1148.8 108.132 1152.11 108.132C1155.42 108.132 1157.8 106.044 1157.8 103.02C1157.8 99.996 1155.42 97.908 1152.11 97.908ZM1164.42 93.264H1167.41V125.808H1164.42V93.264ZM1166.55 106.656H1172.56V109.176H1166.55V106.656ZM1142.46 118.788L1142.03 116.304C1147.9 116.268 1155.75 116.232 1162.37 115.332L1162.62 117.564C1155.75 118.716 1148.15 118.788 1142.46 118.788ZM1179.25 108.852H1201.61V111.3H1179.25V108.852ZM1175.54 118.932H1205.03V121.416H1175.54V118.932ZM1179.25 96.252H1201.28V98.736H1182.24V109.932H1179.25V96.252ZM1232.31 93.264H1235.34V111.156H1232.31V93.264ZM1210.32 108.024H1212.95C1218.85 108.024 1223.21 107.844 1228.43 106.98L1228.75 109.464C1223.39 110.292 1218.99 110.472 1212.95 110.472H1210.32V108.024ZM1210.25 94.848H1225.01V103.668H1213.23V109.644H1210.32V101.328H1222.09V97.26H1210.25V94.848ZM1214.28 112.776H1217.23V116.592H1232.39V112.776H1235.34V125.376H1214.28V112.776ZM1217.23 118.968V122.928H1232.39V118.968H1217.23ZM1265.43 93.264H1268.42V125.808H1265.43V93.264ZM1243.83 96.432H1246.78V116.592H1243.83V96.432ZM1243.83 114.828H1246.49C1251.43 114.828 1256.57 114.468 1262.08 113.316L1262.44 115.872C1256.79 117.024 1251.64 117.42 1246.49 117.42H1243.83V114.828ZM1296.89 93.228H1299.92V125.844H1296.89V93.228ZM1299.2 106.08H1305.24V108.6H1299.2V106.08ZM1276.26 115.224H1278.82C1284.83 115.224 1289.04 115.008 1293.9 114.108L1294.23 116.628C1289.22 117.564 1284.94 117.744 1278.82 117.744H1276.26V115.224ZM1276.26 96.396H1291.38V98.844H1279.22V116.34H1276.26V96.396ZM1308.84 121.632C1308.84 121.032 1308.97 120.588 1309.24 120.3C1309.5 120.012 1309.87 119.868 1310.35 119.868C1310.86 119.868 1311.24 120.012 1311.5 120.3C1311.79 120.588 1311.94 121.032 1311.94 121.632C1311.94 122.208 1311.79 122.652 1311.5 122.964C1311.24 123.252 1310.86 123.396 1310.35 123.396C1309.87 123.396 1309.5 123.252 1309.24 122.964C1308.97 122.652 1308.84 122.208 1308.84 121.632Z" fill="white"/>
<path d="M151.242 26.11H160.647V29.85H151.242V26.11ZM168.677 13.57H173.022V50.86H168.677V13.57ZM158.942 14.56H163.287V49.43H158.942V14.56ZM140.627 58.45H174.562V62.19H140.627V58.45ZM140.627 46.295H145.192V60.54H140.627V46.295ZM141.452 17.09H145.082V24.405C145.082 32.105 140.957 40.245 133.752 43.765L131.222 40.245C137.657 37.11 141.452 30.29 141.452 24.405V17.09ZM142.277 17.09H145.852V24.405C145.852 30.235 149.372 36.175 155.587 38.98L153.002 42.445C146.072 39.31 142.277 31.995 142.277 24.405V17.09ZM218.173 13.515H222.683V63.345H218.173V13.515ZM207.833 32.27H218.833V36.065H207.833V32.27ZM184.018 47.615H187.813C197.163 47.615 203.048 47.45 210.033 46.13L210.473 49.87C203.323 51.135 197.273 51.41 187.813 51.41H184.018V47.615ZM184.018 18.08H207.008V21.875H188.528V48.935H184.018V18.08ZM187.373 32.05H204.863V35.735H187.373V32.05ZM232.304 38.76H277.404V42.5H232.304V38.76ZM252.874 41.125H257.494V52.565H252.874V41.125ZM238.024 58.395H272.399V62.19H238.024V58.395ZM238.024 47.67H242.589V59.44H238.024V47.67ZM254.799 14.78C265.304 14.78 272.234 18.63 272.234 24.79C272.234 30.95 265.304 34.8 254.799 34.8C244.239 34.8 237.364 30.95 237.364 24.79C237.364 18.63 244.239 14.78 254.799 14.78ZM254.799 18.52C247.209 18.52 242.204 20.94 242.204 24.79C242.204 28.695 247.209 31.06 254.799 31.06C262.389 31.06 267.394 28.695 267.394 24.79C267.394 20.94 262.389 18.52 254.799 18.52ZM305.56 20.72H320.74V24.46H305.56V20.72ZM305.56 32.16H320.74V35.955H305.56V32.16ZM296.485 16.485C303.8 16.485 309.3 21.435 309.3 28.31C309.3 35.24 303.8 40.135 296.485 40.135C289.115 40.135 283.67 35.24 283.67 28.31C283.67 21.435 289.115 16.485 296.485 16.485ZM296.485 20.39C291.645 20.39 288.07 23.635 288.07 28.31C288.07 32.985 291.645 36.23 296.485 36.23C301.325 36.23 304.955 32.985 304.955 28.31C304.955 23.635 301.325 20.39 296.485 20.39ZM319.255 13.57H323.82V42.995H319.255V13.57ZM307.485 44.15C317.715 44.15 324.04 47.67 324.04 53.665C324.04 59.715 317.715 63.18 307.485 63.18C297.2 63.18 290.875 59.715 290.875 53.665C290.875 47.67 297.2 44.15 307.485 44.15ZM307.485 47.78C299.95 47.78 295.385 49.98 295.385 53.665C295.385 57.405 299.95 59.605 307.485 59.605C314.965 59.605 319.53 57.405 319.53 53.665C319.53 49.98 314.965 47.78 307.485 47.78ZM353.68 32.875H363.085V36.67H353.68V32.875ZM371.39 13.57H375.79V63.29H371.39V13.57ZM361.545 14.615H365.89V60.815H361.545V14.615ZM344.715 17.695C351.15 17.695 355.33 24.35 355.33 35.02C355.33 45.69 351.15 52.345 344.715 52.345C338.28 52.345 334.155 45.69 334.155 35.02C334.155 24.35 338.28 17.695 344.715 17.695ZM344.715 21.93C340.81 21.93 338.335 26.99 338.335 35.02C338.335 43.05 340.81 48.11 344.715 48.11C348.675 48.11 351.15 43.05 351.15 35.02C351.15 26.99 348.675 21.93 344.715 21.93ZM434.623 13.57H439.243V39.31H434.623V13.57ZM406.793 41.73H439.243V53.72H411.413V61.2H406.958V50.31H434.678V45.36H406.793V41.73ZM406.958 59.11H441.058V62.74H406.958V59.11ZM400.633 16.925H427.308V20.555H400.633V16.925ZM399.753 37.66L399.258 33.865C408.113 33.865 419.993 33.645 429.673 32.435L429.948 35.79C420.048 37.275 408.498 37.605 399.753 37.66ZM405.528 18.575H409.928V35.515H405.528V18.575ZM417.958 18.575H422.413V35.515H417.958V18.575ZM460.029 39.145H464.539V54.05H460.029V39.145ZM478.399 39.145H482.964V54.05H478.399V39.145ZM449.029 53.17H494.074V56.965H449.029V53.17ZM471.469 16.705C481.974 16.705 489.509 21.71 489.509 29.52C489.509 37.275 481.974 42.28 471.469 42.28C460.909 42.28 453.374 37.275 453.374 29.52C453.374 21.71 460.909 16.705 471.469 16.705ZM471.469 20.335C463.494 20.335 457.774 23.965 457.774 29.52C457.774 35.02 463.494 38.65 471.469 38.65C479.444 38.65 485.109 35.02 485.109 29.52C485.109 23.965 479.444 20.335 471.469 20.335ZM533.615 13.625H538.18V50.915H533.615V13.625ZM536.75 29.905H545.55V33.755H536.75V29.905ZM499.735 19.62H529.105V23.305H499.735V19.62ZM514.42 26.055C521.46 26.055 526.3 29.74 526.3 35.35C526.3 40.905 521.46 44.59 514.42 44.59C507.325 44.59 502.485 40.905 502.485 35.35C502.485 29.74 507.325 26.055 514.42 26.055ZM514.42 29.63C509.91 29.63 506.83 31.885 506.83 35.35C506.83 38.76 509.91 41.015 514.42 41.015C518.875 41.015 521.955 38.76 521.955 35.35C521.955 31.885 518.875 29.63 514.42 29.63ZM512.11 13.57H516.675V21.545H512.11V13.57ZM507.215 58.45H540.435V62.19H507.215V58.45ZM507.215 47.945H511.78V60.045H507.215V47.945ZM564.012 38.1H610.102V43.93H564.012V38.1ZM569.567 28.145H605.042V34.03H569.567V28.145ZM569.567 14.835H604.602V20.61H576.882V30.29H569.567V14.835ZM569.457 57.13H605.372V63.015H569.457V57.13ZM569.457 47.78H576.717V58.615H569.457V47.78ZM614.608 38.1H660.698V43.93H614.608V38.1ZM620.163 28.145H655.638V34.03H620.163V28.145ZM620.163 14.835H655.198V20.61H627.478V30.29H620.163V14.835ZM620.053 57.13H655.968V63.015H620.053V57.13ZM620.053 47.78H627.313V58.615H620.053V47.78ZM697.929 13.02H705.244V51.08H697.929V13.02ZM703.154 28.53H712.009V34.525H703.154V28.53ZM665.149 18.3H695.124V24.02H665.149V18.3ZM680.164 25.835C687.479 25.835 692.649 29.85 692.649 35.68C692.649 41.51 687.479 45.47 680.164 45.47C672.794 45.47 667.624 41.51 667.624 35.68C667.624 29.85 672.794 25.835 680.164 25.835ZM680.164 31.39C676.919 31.39 674.664 32.93 674.664 35.68C674.664 38.43 676.919 39.915 680.164 39.915C683.409 39.915 685.664 38.43 685.664 35.68C685.664 32.93 683.409 31.39 680.164 31.39ZM676.479 12.91H683.794V21.105H676.479V12.91ZM672.409 57.185H707.059V63.015H672.409V57.185ZM672.409 48.22H679.724V59.715H672.409V48.22ZM754.912 24.185H767.672V30.07H754.912V24.185ZM743.252 15.055C750.897 15.055 756.672 20.17 756.672 27.21C756.672 34.305 750.897 39.365 743.252 39.365C735.552 39.365 729.777 34.305 729.777 27.21C729.777 20.17 735.552 15.055 743.252 15.055ZM743.252 21.16C739.512 21.16 736.762 23.415 736.762 27.21C736.762 31.005 739.512 33.315 743.252 33.315C746.992 33.315 749.687 31.005 749.687 27.21C749.687 23.415 746.992 21.16 743.252 21.16ZM764.482 12.965H771.797V40.355H764.482V12.965ZM737.972 42.555H745.232V47.395H764.537V42.555H771.797V63.345H737.972V42.555ZM745.232 53.005V57.515H764.537V53.005H745.232ZM779.768 41.455H825.913V47.285H779.768V41.455ZM799.018 45.195H806.278V63.895H799.018V45.195ZM785.103 15.44H820.413V36.01H785.103V15.44ZM813.208 21.215H792.308V30.235H813.208V21.215ZM842.629 20.995H848.459V26.715C848.459 38.485 843.674 49.98 834.104 54.325L829.979 48.55C838.504 44.755 842.629 35.35 842.629 26.715V20.995ZM844.279 20.995H850.054V26.715C850.054 34.965 854.124 43.765 862.649 47.285L858.689 53.06C849.009 48.88 844.279 38.045 844.279 26.715V20.995ZM832.014 17.86H860.559V23.855H832.014V17.86ZM865.289 12.965H872.659V63.895H865.289V12.965ZM894.214 39.09H901.529V50.255H894.214V39.09ZM916.544 12.965H923.859V51.52H916.544V12.965ZM887.174 57.185H924.959V63.015H887.174V57.185ZM887.174 47.89H894.489V58.725H887.174V47.89ZM881.674 41.29L880.794 35.46C890.089 35.46 902.519 35.35 913.189 33.975L913.629 39.2C902.794 41.015 890.859 41.29 881.674 41.29ZM906.919 42.555H918.139V47.56H906.919V42.555ZM897.184 14.725C904.609 14.725 909.834 18.41 909.834 23.8C909.834 29.245 904.609 32.875 897.184 32.875C889.704 32.875 884.479 29.245 884.479 23.8C884.479 18.41 889.704 14.725 897.184 14.725ZM897.184 20.06C893.774 20.06 891.409 21.325 891.409 23.8C891.409 26.275 893.774 27.54 897.184 27.54C900.539 27.54 902.904 26.275 902.904 23.8C902.904 21.325 900.539 20.06 897.184 20.06ZM954.545 14.395C965.49 14.395 972.035 17.475 972.035 23.03C972.035 28.585 965.49 31.665 954.545 31.665C943.545 31.665 937.055 28.585 937.055 23.03C937.055 17.475 943.545 14.395 954.545 14.395ZM954.545 17.86C946.405 17.86 941.73 19.73 941.73 23.03C941.73 26.33 946.405 28.2 954.545 28.2C962.63 28.2 967.305 26.33 967.305 23.03C967.305 19.73 962.63 17.86 954.545 17.86ZM932.05 34.965H976.985V38.65H932.05V34.965ZM937.495 42.885H971.265V54.105H942.115V60.155H937.605V50.805H966.755V46.405H937.495V42.885ZM937.605 59.165H972.75V62.74H937.605V59.165ZM1034.17 21.105H1042.8V24.955H1034.17V21.105ZM1034.17 31.775H1042.8V35.57H1034.17V31.775ZM1030.98 13.57H1035.54V43.105H1030.98V13.57ZM1003.26 45.47H1035.54V63.29H1030.98V49.155H1003.26V45.47ZM1010.85 16.485C1018.33 16.485 1023.83 21.325 1023.83 28.31C1023.83 35.24 1018.33 40.025 1010.85 40.025C1003.37 40.025 997.868 35.24 997.868 28.31C997.868 21.325 1003.37 16.485 1010.85 16.485ZM1010.85 20.39C1005.9 20.39 1002.32 23.58 1002.32 28.31C1002.32 32.985 1005.9 36.23 1010.85 36.23C1015.8 36.23 1019.37 32.985 1019.37 28.31C1019.37 23.58 1015.8 20.39 1010.85 20.39ZM1047.53 38.485H1092.63V42.225H1047.53V38.485ZM1067.71 30.95H1072.22V40.19H1067.71V30.95ZM1067.66 14.34H1071.62V16.54C1071.62 25.505 1062.1 31.885 1051.98 33.535L1050.22 29.905C1059.13 28.695 1067.66 23.195 1067.66 16.54V14.34ZM1068.37 14.34H1072.28V16.54C1072.28 23.195 1080.86 28.695 1089.71 29.905L1088.01 33.535C1077.94 31.83 1068.37 25.505 1068.37 16.54V14.34ZM1052.53 47.065H1086.91V63.29H1082.34V50.75H1052.53V47.065ZM1103.84 37.385H1138V41.125H1103.84V37.385ZM1098.18 52.785H1143.22V56.58H1098.18V52.785ZM1103.84 18.135H1137.5V21.93H1108.41V39.035H1103.84V18.135ZM1184.91 13.57H1189.53V40.905H1184.91V13.57ZM1151.3 36.12H1155.32C1164.34 36.12 1170.99 35.845 1178.97 34.525L1179.46 38.32C1171.27 39.585 1164.56 39.86 1155.32 39.86H1151.3V36.12ZM1151.19 15.99H1173.74V29.465H1155.76V38.595H1151.3V25.89H1169.29V19.675H1151.19V15.99ZM1157.35 43.38H1161.86V49.21H1185.02V43.38H1189.53V62.63H1157.35V43.38ZM1161.86 52.84V58.89H1185.02V52.84H1161.86ZM1235.51 13.57H1240.07V63.29H1235.51V13.57ZM1202.51 18.41H1207.02V49.21H1202.51V18.41ZM1202.51 46.515H1206.58C1214.11 46.515 1221.98 45.965 1230.39 44.205L1230.94 48.11C1222.31 49.87 1214.44 50.475 1206.58 50.475H1202.51V46.515ZM1283.57 13.515H1288.19V63.345H1283.57V13.515ZM1287.09 33.15H1296.33V37H1287.09V33.15ZM1252.06 47.12H1255.96C1265.15 47.12 1271.58 46.79 1279.01 45.415L1279.5 49.265C1271.86 50.695 1265.31 50.97 1255.96 50.97H1252.06V47.12ZM1252.06 18.355H1275.16V22.095H1256.57V48.825H1252.06V18.355ZM1306.78 47.945H1303.64L1302.27 19.73H1308.15L1306.78 47.945ZM1301.77 56.03C1301.77 54.6733 1302.1 53.72 1302.76 53.17C1303.42 52.62 1304.23 52.345 1305.18 52.345C1306.1 52.345 1306.89 52.62 1307.55 53.17C1308.24 53.72 1308.59 54.6733 1308.59 56.03C1308.59 57.35 1308.24 58.3033 1307.55 58.89C1306.89 59.4767 1306.1 59.77 1305.18 59.77C1304.23 59.77 1303.42 59.4767 1302.76 58.89C1302.1 58.3033 1301.77 57.35 1301.77 56.03Z" fill="white"/>
<rect x="0.5" y="215.5" width="341" height="279" fill="black" fill-opacity="0.4" stroke="white"/>
<path d="M143.539 311.844H149.923V313.748H143.539V311.844ZM148.607 304.9H150.931V323.436H148.607V304.9ZM134.775 327.72H151.631V329.624H134.775V327.72ZM134.775 321.812H137.099V328.7H134.775V321.812ZM136.567 308.036H138.471V310.08C138.471 314.672 135.615 318.648 131.387 320.216L130.183 318.368C133.963 317.024 136.567 313.664 136.567 310.08V308.036ZM137.015 308.036H138.891V310.052C138.891 313.328 141.355 316.52 145.023 317.808L143.847 319.628C139.731 318.144 137.015 314.336 137.015 310.052V308.036ZM130.911 306.944H144.435V308.82H130.911V306.944ZM169.85 308.484H171.726V312.6C171.726 317.948 168.506 323.324 164.474 325.312L163.13 323.464C166.798 321.728 169.85 316.968 169.85 312.6V308.484ZM170.298 308.484H172.174V312.6C172.174 316.884 175.226 321.252 178.95 322.848L177.634 324.696C173.546 322.792 170.298 317.864 170.298 312.6V308.484ZM163.97 307.448H178.11V309.408H163.97V307.448ZM181.526 304.872H183.85V330.184H181.526V304.872ZM202.412 311.2H208.04V313.132H202.412V311.2ZM207.396 304.872H209.72V319.684H207.396V304.872ZM193.312 320.916H209.72V329.848H193.312V320.916ZM207.452 322.764H195.58V327.972H207.452V322.764ZM195.356 307.28H197.26V309.324C197.26 313.944 194.404 317.892 190.176 319.46L188.972 317.612C192.752 316.268 195.356 312.908 195.356 309.324V307.28ZM195.804 307.28H197.68V309.296C197.68 312.572 200.144 315.736 203.812 317.024L202.636 318.872C198.52 317.388 195.804 313.552 195.804 309.296V307.28ZM189.7 306.496H203.224V308.372H189.7V306.496ZM55.5735 342.872H57.8135V368.184H55.5735V342.872ZM51.2895 353.008H56.1615V354.94H51.2895V353.008ZM49.8335 343.432H52.0175V366.896H49.8335V343.432ZM37.2335 360.008H38.8855C42.5815 360.008 45.1015 359.868 48.0415 359.252L48.2655 361.184C45.2415 361.828 42.6935 361.94 38.8855 361.94H37.2335V360.008ZM37.2335 345.952H46.6415V347.856H39.5295V360.876H37.2335V345.952ZM68.4233 356.592H70.7473V363.816H68.4233V356.592ZM76.2353 356.592H78.5313V363.816H76.2353V356.592ZM62.0953 363.2H85.0273V365.132H62.0953V363.2ZM64.0833 345.196H82.8713V347.1H64.0833V345.196ZM64.1393 355.332H82.8433V357.208H64.1393V355.332ZM68.0313 346.736H70.3553V355.724H68.0313V346.736ZM76.6553 346.736H78.9513V355.724H76.6553V346.736ZM101.847 345.476H103.779V347.492C103.779 352.14 100.923 356.032 96.6666 357.544L95.4626 355.724C99.2706 354.38 101.847 351.076 101.847 347.492V345.476ZM102.295 345.476H104.227V347.492C104.227 350.908 106.859 353.988 110.611 355.248L109.407 357.068C105.207 355.64 102.295 351.916 102.295 347.492V345.476ZM113.523 342.872H115.875V358.188H113.523V342.872ZM98.9626 359.532H115.875V368.184H113.523V361.436H98.9626V359.532ZM96.0786 344.636H109.939V346.512H96.0786V344.636ZM134.38 349.004H140.008V350.908H134.38V349.004ZM139.364 342.872H141.688V356.62H139.364V342.872ZM125.476 357.852H127.772V360.932H139.392V357.852H141.688V367.848H125.476V357.852ZM127.772 362.808V365.944H139.392V362.808H127.772ZM127.324 344.86H129.228V346.932C129.228 351.524 126.372 355.5 122.144 357.068L120.94 355.192C124.72 353.876 127.324 350.516 127.324 346.932V344.86ZM127.772 344.86H129.648V346.904C129.648 350.18 132.112 353.344 135.78 354.632L134.604 356.452C130.488 354.968 127.772 351.16 127.772 346.904V344.86ZM121.668 344.384H135.192V346.26H121.668V344.384ZM146.614 355.696H169.574V357.6H146.614V355.696ZM157.086 356.9H159.438V362.724H157.086V356.9ZM149.526 365.692H167.026V367.624H149.526V365.692ZM149.526 360.232H151.85V366.224H149.526V360.232ZM158.066 343.488C163.414 343.488 166.942 345.448 166.942 348.584C166.942 351.72 163.414 353.68 158.066 353.68C152.69 353.68 149.19 351.72 149.19 348.584C149.19 345.448 152.69 343.488 158.066 343.488ZM158.066 345.392C154.202 345.392 151.654 346.624 151.654 348.584C151.654 350.572 154.202 351.776 158.066 351.776C161.93 351.776 164.478 350.572 164.478 348.584C164.478 346.624 161.93 345.392 158.066 345.392ZM183.908 346.512H191.636V348.416H183.908V346.512ZM183.908 352.336H191.636V354.268H183.908V352.336ZM179.288 344.356C183.012 344.356 185.812 346.876 185.812 350.376C185.812 353.904 183.012 356.396 179.288 356.396C175.536 356.396 172.764 353.904 172.764 350.376C172.764 346.876 175.536 344.356 179.288 344.356ZM179.288 346.344C176.824 346.344 175.004 347.996 175.004 350.376C175.004 352.756 176.824 354.408 179.288 354.408C181.752 354.408 183.6 352.756 183.6 350.376C183.6 347.996 181.752 346.344 179.288 346.344ZM190.88 342.872H193.204V357.852H190.88V342.872ZM184.888 358.44C190.096 358.44 193.316 360.232 193.316 363.284C193.316 366.364 190.096 368.128 184.888 368.128C179.652 368.128 176.432 366.364 176.432 363.284C176.432 360.232 179.652 358.44 184.888 358.44ZM184.888 360.288C181.052 360.288 178.728 361.408 178.728 363.284C178.728 365.188 181.052 366.308 184.888 366.308C188.696 366.308 191.02 365.188 191.02 363.284C191.02 361.408 188.696 360.288 184.888 360.288ZM209.582 344.468C214.846 344.468 218.766 347.268 218.766 351.468C218.766 355.696 214.846 358.468 209.582 358.468C204.318 358.468 200.37 355.696 200.37 351.468C200.37 347.268 204.318 344.468 209.582 344.468ZM209.582 346.372C205.578 346.372 202.61 348.416 202.61 351.468C202.61 354.492 205.578 356.564 209.582 356.564C213.586 356.564 216.554 354.492 216.554 351.468C216.554 348.416 213.586 346.372 209.582 346.372ZM198.158 362.892H221.09V364.852H198.158V362.892ZM223.916 363.144H246.848V365.076H223.916V363.144ZM234.164 357.712H236.488V363.956H234.164V357.712ZM226.688 344.748H244.02V352.42H229.068V357.488H226.772V350.544H241.724V346.624H226.688V344.748ZM226.772 356.508H244.608V358.412H226.772V356.508ZM263.667 345.644H265.599V348.22C265.599 352.868 262.743 356.76 258.487 358.3L257.283 356.452C261.091 355.108 263.667 351.832 263.667 348.22V345.644ZM264.115 345.644H266.047V348.22C266.047 351.636 268.679 354.716 272.431 355.976L271.227 357.796C267.027 356.368 264.115 352.672 264.115 348.22V345.644ZM257.899 344.972H271.759V346.848H257.899V344.972ZM275.343 342.9H277.695V361.408H275.343V342.9ZM261.427 365.72H278.451V367.624H261.427V365.72ZM261.427 359.672H263.723V366.56H261.427V359.672ZM301.801 342.872H304.013V358.888H301.801V342.872ZM297.685 349.732H302.473V351.664H297.685V349.732ZM296.397 343.376H298.581V357.992H296.397V343.376ZM282.565 345.896H295.389V347.744H282.565V345.896ZM289.005 349.032C292.169 349.032 294.381 350.768 294.381 353.372C294.381 356.004 292.169 357.712 289.005 357.712C285.813 357.712 283.601 356.004 283.601 353.372C283.601 350.768 285.813 349.032 289.005 349.032ZM289.005 350.768C287.017 350.768 285.673 351.804 285.673 353.372C285.673 354.968 287.017 355.976 289.005 355.976C290.965 355.976 292.309 354.968 292.309 353.372C292.309 351.804 290.965 350.768 289.005 350.768ZM287.857 343.068H290.125V346.932H287.857V343.068ZM295.725 359.336C300.989 359.336 304.153 360.904 304.153 363.732C304.153 366.532 300.989 368.128 295.725 368.128C290.405 368.128 287.269 366.532 287.269 363.732C287.269 360.904 290.405 359.336 295.725 359.336ZM295.725 361.128C291.833 361.128 289.565 362.052 289.565 363.732C289.565 365.412 291.833 366.364 295.725 366.364C299.561 366.364 301.857 365.412 301.857 363.732C301.857 362.052 299.561 361.128 295.725 361.128ZM118.659 395.182C118.659 392.318 119.03 389.686 119.773 387.284C120.523 384.875 121.591 382.659 122.977 380.636H125.341C124.795 381.386 124.284 382.311 123.807 383.409C123.337 384.5 122.924 385.701 122.568 387.011C122.212 388.314 121.932 389.663 121.727 391.057C121.53 392.451 121.432 393.826 121.432 395.182C121.432 396.985 121.606 398.814 121.955 400.67C122.303 402.527 122.773 404.25 123.364 405.841C123.955 407.432 124.614 408.727 125.341 409.727H122.977C121.591 407.705 120.523 405.492 119.773 403.091C119.03 400.682 118.659 398.045 118.659 395.182ZM136.124 381.544H138.332V383.848C138.332 389.16 135.068 393.608 130.204 395.336L128.828 393.256C133.18 391.72 136.124 387.944 136.124 383.848V381.544ZM136.636 381.544H138.844V383.848C138.844 387.752 141.852 391.272 146.14 392.712L144.764 394.792C139.964 393.16 136.636 388.904 136.636 383.848V381.544ZM149.468 378.568H152.156V396.072H149.468V378.568ZM132.828 397.608H152.156V407.496H149.468V399.784H132.828V397.608ZM129.532 380.584H145.372V382.728H129.532V380.584ZM171.033 382.728H179.865V384.904H171.033V382.728ZM171.033 389.384H179.865V391.592H171.033V389.384ZM165.753 380.264C170.009 380.264 173.209 383.144 173.209 387.144C173.209 391.176 170.009 394.024 165.753 394.024C161.465 394.024 158.297 391.176 158.297 387.144C158.297 383.144 161.465 380.264 165.753 380.264ZM165.753 382.536C162.937 382.536 160.857 384.424 160.857 387.144C160.857 389.864 162.937 391.752 165.753 391.752C168.569 391.752 170.681 389.864 170.681 387.144C170.681 384.424 168.569 382.536 165.753 382.536ZM179.001 378.568H181.657V395.688H179.001V378.568ZM172.153 396.36C178.105 396.36 181.785 398.408 181.785 401.896C181.785 405.416 178.105 407.432 172.153 407.432C166.169 407.432 162.489 405.416 162.489 401.896C162.489 398.408 166.169 396.36 172.153 396.36ZM172.153 398.472C167.769 398.472 165.113 399.752 165.113 401.896C165.113 404.072 167.769 405.352 172.153 405.352C176.505 405.352 179.161 404.072 179.161 401.896C179.161 399.752 176.505 398.472 172.153 398.472ZM202.743 385.8H209.175V388.008H202.743V385.8ZM208.439 378.568H211.095V395.496H208.439V378.568ZM192.343 396.904H211.095V407.112H192.343V396.904ZM208.503 399.016H194.935V404.968H208.503V399.016ZM194.679 381.32H196.855V383.656C196.855 388.936 193.591 393.448 188.759 395.24L187.383 393.128C191.703 391.592 194.679 387.752 194.679 383.656V381.32ZM195.191 381.32H197.335V383.624C197.335 387.368 200.151 390.984 204.343 392.456L202.999 394.568C198.295 392.872 195.191 388.488 195.191 383.624V381.32ZM188.215 380.424H203.671V382.568H188.215V380.424ZM223.338 395.182C223.338 398.045 222.963 400.682 222.213 403.091C221.471 405.492 220.406 407.705 219.02 409.727H216.656C217.202 408.977 217.709 408.053 218.179 406.955C218.656 405.864 219.073 404.667 219.429 403.364C219.785 402.053 220.062 400.701 220.259 399.307C220.463 397.905 220.565 396.53 220.565 395.182C220.565 393.379 220.391 391.549 220.043 389.693C219.694 387.837 219.224 386.114 218.634 384.523C218.043 382.932 217.384 381.636 216.656 380.636H219.02C220.406 382.659 221.471 384.875 222.213 387.284C222.963 389.686 223.338 392.318 223.338 395.182Z" fill="white"/>
<rect x="366.5" y="215.5" width="341" height="279" fill="black" fill-opacity="0.4" stroke="white"/>
<path d="M493.604 345.476H495.536V347.492C495.536 352.14 492.68 356.032 488.424 357.544L487.22 355.724C491.028 354.38 493.604 351.076 493.604 347.492V345.476ZM494.052 345.476H495.984V347.492C495.984 350.908 498.616 353.988 502.368 355.248L501.164 357.068C496.964 355.64 494.052 351.916 494.052 347.492V345.476ZM505.28 342.872H507.632V358.188H505.28V342.872ZM490.72 359.532H507.632V368.184H505.28V361.436H490.72V359.532ZM487.836 344.636H501.696V346.512H487.836V344.636ZM519.81 355.612H522.134V361.24H519.81V355.612ZM531.038 342.872H533.362V362.136H531.038V342.872ZM516.086 365.72H533.978V367.624H516.086V365.72ZM516.086 360.26H518.41V366.252H516.086V360.26ZM512.81 356.48L512.502 354.576C517.178 354.576 523.45 354.52 528.826 353.82L528.994 355.528C523.534 356.396 517.402 356.48 512.81 356.48ZM525.886 357.824H531.626V359.532H525.886V357.824ZM520.734 343.908C524.43 343.908 526.95 345.644 526.95 348.304C526.95 350.992 524.43 352.728 520.734 352.728C517.01 352.728 514.49 350.992 514.49 348.304C514.49 345.644 517.01 343.908 520.734 343.908ZM520.734 345.644C518.354 345.644 516.702 346.68 516.702 348.304C516.702 349.928 518.354 350.964 520.734 350.964C523.086 350.964 524.738 349.928 524.738 348.304C524.738 346.68 523.086 345.644 520.734 345.644ZM539.744 344.832H550.944V346.736H539.744V344.832ZM543.552 350.488H545.848V356.816H543.552V350.488ZM550.02 344.832H552.316V346.176C552.316 347.828 552.316 350.348 551.644 353.68L549.376 353.428C550.02 350.096 550.02 347.8 550.02 346.176V344.832ZM555.76 342.872H558.084V361.94H555.76V342.872ZM557.02 351.104H561.696V353.036H557.02V351.104ZM542.096 365.72H558.896V367.624H542.096V365.72ZM542.096 360.176H544.392V366.308H542.096V360.176ZM538.456 357.908L538.204 356.004C542.712 356.004 548.928 355.892 554.052 355.192L554.22 356.872C548.956 357.796 542.908 357.908 538.456 357.908ZM582.582 342.844H584.906V368.212H582.582V342.844ZM565.614 360.176H567.714C571.942 360.176 575.722 360.008 580.202 359.28L580.454 361.184C575.862 361.94 572.054 362.108 567.714 362.108H565.614V360.176ZM565.558 345.224H577.262V354.268H567.938V360.904H565.614V352.364H574.91V347.128H565.558V345.224Z" fill="white"/>
<rect x="732.5" y="215.5" width="341" height="279" fill="black" fill-opacity="0.4" stroke="white"/>
<path d="M837.347 349.256H842.135V351.16H837.347V349.256ZM846.223 342.872H848.435V361.856H846.223V342.872ZM841.267 343.376H843.479V361.128H841.267V343.376ZM831.943 365.72H849.219V367.624H831.943V365.72ZM831.943 359.532H834.267V366.784H831.943V359.532ZM832.363 344.664H834.211V348.388C834.211 352.308 832.111 356.452 828.443 358.244L827.155 356.452C830.431 354.856 832.363 351.384 832.363 348.388V344.664ZM832.783 344.664H834.603V348.388C834.603 351.356 836.395 354.38 839.559 355.808L838.243 357.572C834.715 355.976 832.783 352.252 832.783 348.388V344.664ZM871.42 342.844H873.716V368.212H871.42V342.844ZM866.156 352.392H871.756V354.324H866.156V352.392ZM854.032 360.204H855.964C860.724 360.204 863.72 360.12 867.276 359.448L867.5 361.352C863.86 361.996 860.78 362.136 855.964 362.136H854.032V360.204ZM854.032 345.168H865.736V347.1H856.328V360.876H854.032V345.168ZM855.74 352.28H864.644V354.156H855.74V352.28ZM897.906 342.872H900.146V368.184H897.906V342.872ZM893.902 352.896H898.746V354.8H893.902V352.896ZM892.306 343.404H894.518V366.924H892.306V343.404ZM879.538 345.784H889.198V361.408H879.538V345.784ZM887.014 347.632H881.722V359.56H887.014V347.632ZM914.648 355.472H916.972V359.308H914.648V355.472ZM904.4 354.1H927.248V355.892H904.4V354.1ZM914.676 342.704H916.972V345.784H914.676V342.704ZM914.564 346.008H916.608V346.4C916.608 350.376 911.876 352.504 906.276 352.98L905.604 351.188C910.588 350.88 914.564 349.116 914.564 346.4V346.008ZM915.04 346.008H917.084V346.4C917.084 349.116 921.06 350.88 926.016 351.188L925.344 352.98C919.744 352.504 915.04 350.376 915.04 346.4V346.008ZM906.724 345.084H924.924V346.848H906.724V345.084ZM907.144 358.188H924.336V363.76H909.496V366.812H907.2V362.108H922.04V359.952H907.144V358.188ZM907.2 366.14H925.092V367.904H907.2V366.14ZM931.502 344.832H942.702V346.736H931.502V344.832ZM935.31 350.488H937.606V356.816H935.31V350.488ZM941.778 344.832H944.074V346.176C944.074 347.828 944.074 350.348 943.402 353.68L941.134 353.428C941.778 350.096 941.778 347.8 941.778 346.176V344.832ZM947.518 342.872H949.842V361.94H947.518V342.872ZM948.778 351.104H953.454V353.036H948.778V351.104ZM933.854 365.72H950.654V367.624H933.854V365.72ZM933.854 360.176H936.15V366.308H933.854V360.176ZM930.214 357.908L929.962 356.004C934.47 356.004 940.686 355.892 945.81 355.192L945.978 356.872C940.714 357.796 934.666 357.908 930.214 357.908ZM974.34 342.844H976.664V368.212H974.34V342.844ZM957.372 360.176H959.472C963.7 360.176 967.48 360.008 971.96 359.28L972.212 361.184C967.62 361.94 963.812 362.108 959.472 362.108H957.372V360.176ZM957.316 345.224H969.02V354.268H959.696V360.904H957.372V352.364H966.668V347.128H957.316V345.224Z" fill="white"/>
<rect x="1098.5" y="215.5" width="341" height="279" fill="black" fill-opacity="0.4" stroke="white"/>
<path d="M1217.4 360.428C1222.95 360.428 1226.08 361.744 1226.08 364.292C1226.08 366.812 1222.95 368.128 1217.4 368.128C1211.89 368.128 1208.72 366.812 1208.72 364.292C1208.72 361.744 1211.89 360.428 1217.4 360.428ZM1217.4 362.164C1213.37 362.164 1211.1 362.892 1211.1 364.292C1211.1 365.664 1213.37 366.42 1217.4 366.42C1221.46 366.42 1223.7 365.664 1223.7 364.292C1223.7 362.892 1221.46 362.164 1217.4 362.164ZM1207.18 345H1227.54V346.82H1207.18V345ZM1217.43 347.828C1222.64 347.828 1225.61 349.088 1225.61 351.44C1225.61 353.82 1222.64 355.052 1217.43 355.052C1212.19 355.052 1209.25 353.82 1209.25 351.44C1209.25 349.088 1212.19 347.828 1217.43 347.828ZM1217.43 349.48C1213.76 349.48 1211.72 350.18 1211.72 351.44C1211.72 352.728 1213.76 353.428 1217.43 353.428C1221.07 353.428 1223.11 352.728 1223.11 351.44C1223.11 350.18 1221.07 349.48 1217.43 349.48ZM1216.28 342.508H1218.58V346.148H1216.28V342.508ZM1205.98 356.984H1228.85V358.86H1205.98V356.984ZM1216.28 354.38H1218.58V357.908H1216.28V354.38ZM1231.76 363.032H1254.7V364.964H1231.76V363.032ZM1242.01 356.984H1244.34V363.592H1242.01V356.984ZM1234.45 344.664H1236.75V349.172H1249.66V344.664H1251.95V357.6H1234.45V344.664ZM1236.75 351.048V355.696H1249.66V351.048H1236.75ZM1258.5 345.392H1270.12V361.772H1258.5V345.392ZM1267.85 347.268H1260.77V359.896H1267.85V347.268ZM1274.63 342.872H1276.98V368.184H1274.63V342.872ZM1276.42 352.98H1281.13V354.94H1276.42V352.98ZM1292.13 345.868H1294.31C1294.31 352.42 1292.35 358.664 1284.71 362.948L1283.39 361.268C1290.19 357.572 1292.13 352.224 1292.13 346.232V345.868ZM1284.62 345.868H1292.99V347.772H1284.62V345.868ZM1291.85 351.72V353.456L1283.73 354.296L1283.36 352.28L1291.85 351.72ZM1292.35 352.868H1298.17V354.744H1292.35V352.868ZM1302.54 342.872H1304.78V368.184H1302.54V342.872ZM1297.31 343.516H1299.49V366.896H1297.31V343.516ZM1310.49 354.884H1312.54C1318 354.884 1320.99 354.772 1324.55 354.184L1324.8 356.032C1321.13 356.676 1318.05 356.76 1312.54 356.76H1310.49V354.884ZM1310.49 344.72H1322.53V346.596H1312.79V355.836H1310.49V344.72ZM1312.03 349.732H1321.83V351.58H1312.03V349.732ZM1327.43 342.9H1329.78V358.552H1327.43V342.9ZM1321.41 358.916C1326.68 358.916 1329.9 360.596 1329.9 363.508C1329.9 366.448 1326.68 368.128 1321.41 368.128C1316.12 368.128 1312.9 366.448 1312.9 363.508C1312.9 360.596 1316.12 358.916 1321.41 358.916ZM1321.41 360.764C1317.55 360.764 1315.22 361.772 1315.22 363.508C1315.22 365.3 1317.55 366.308 1321.41 366.308C1325.25 366.308 1327.57 365.3 1327.57 363.508C1327.57 361.772 1325.25 360.764 1321.41 360.764Z" fill="white"/>
</svg>
