<svg width="1035" height="102" viewBox="0 0 1035 102" fill="none" xmlns="http://www.w3.org/2000/svg">
<path d="M262.189 0.999998H265.509V28.56H262.189V0.999998ZM256.069 10.56H263.589V13.28H256.069V10.56ZM256.069 18.2H263.589V20.88H256.069V18.2ZM235.829 5.36H256.069V8.04H235.829V5.36ZM246.069 10.04C250.869 10.04 254.229 12.8 254.229 16.96C254.229 21.08 250.869 23.88 246.069 23.88C241.229 23.88 237.869 21.08 237.869 16.96C237.869 12.8 241.229 10.04 246.069 10.04ZM246.069 12.64C243.069 12.64 241.029 14.4 241.029 16.96C241.029 19.52 243.069 21.24 246.069 21.24C249.069 21.24 251.109 19.52 251.109 16.96C251.109 14.4 249.069 12.64 246.069 12.64ZM244.429 0.919999H247.749V7.08H244.429V0.919999ZM242.269 33.6H266.389V36.32H242.269V33.6ZM242.269 26.2H245.589V34.92H242.269V26.2ZM300.226 0.959999H303.386V37.12H300.226V0.959999ZM294.506 15.52H301.466V18.32H294.506V15.52ZM292.346 1.72H295.466V35.32H292.346V1.72ZM280.026 6.56H282.626V10.72C282.626 19.4 279.786 26.36 274.226 29.68L272.186 27.12C277.386 24.24 280.026 18.08 280.026 10.72V6.56ZM280.626 6.56H283.226V10.72C283.226 17.36 285.906 23.24 290.986 25.84L289.026 28.4C283.506 25.36 280.626 18.68 280.626 10.72V6.56ZM273.026 5.2H289.826V7.96H273.026V5.2ZM347.293 0.959999H350.493V37.12H347.293V0.959999ZM341.573 15.28H348.493V18H341.573V15.28ZM339.293 1.72H342.453V35.32H339.293V1.72ZM321.053 5.12H334.853V27.44H321.053V5.12ZM331.733 7.76H324.173V24.8H331.733V7.76ZM371.21 18.96H374.53V24.44H371.21V18.96ZM356.57 17H389.21V19.56H356.57V17ZM371.25 0.719999H374.53V5.12H371.25V0.719999ZM371.09 5.44H374.01V6C374.01 11.68 367.25 14.72 359.25 15.4L358.29 12.84C365.41 12.4 371.09 9.88 371.09 6V5.44ZM371.77 5.44H374.69V6C374.69 9.88 380.37 12.4 387.45 12.84L386.49 15.4C378.49 14.72 371.77 11.68 371.77 6V5.44ZM359.89 4.12H385.89V6.64H359.89V4.12ZM360.49 22.84H385.05V30.8H363.85V35.16H360.57V28.44H381.77V25.36H360.49V22.84ZM360.57 34.2H386.13V36.72H360.57V34.2ZM419.607 0.919999H422.927V37.16H419.607V0.919999ZM403.847 3.72C409.207 3.72 413.047 8.64 413.047 16.32C413.047 24.04 409.207 28.96 403.847 28.96C398.527 28.96 394.687 24.04 394.687 16.32C394.687 8.64 398.527 3.72 403.847 3.72ZM403.847 6.72C400.327 6.72 397.847 10.48 397.847 16.32C397.847 22.2 400.327 26.04 403.847 26.04C407.407 26.04 409.847 22.2 409.847 16.32C409.847 10.48 407.407 6.72 403.847 6.72ZM465.275 0.919999H468.595V27.56H465.275V0.919999ZM467.555 11.92H473.955V14.68H467.555V11.92ZM446.075 33.6H470.235V36.32H446.075V33.6ZM446.075 24.84H449.395V34.68H446.075V24.84ZM450.635 3.48C456.035 3.48 460.075 7.2 460.075 12.4C460.075 17.64 456.035 21.32 450.635 21.32C445.235 21.32 441.195 17.64 441.195 12.4C441.195 7.2 445.235 3.48 450.635 3.48ZM450.635 6.4C447.115 6.4 444.435 8.88 444.435 12.4C444.435 15.96 447.115 18.4 450.635 18.4C454.155 18.4 456.835 15.96 456.835 12.4C456.835 8.88 454.155 6.4 450.635 6.4ZM504.232 15.36H510.912V18.16H504.232V15.36ZM501.792 0.919999H505.152V37.12H501.792V0.919999ZM478.752 4.48H482.072V26.88H478.752V4.48ZM478.752 25.16H481.632C486.992 25.16 492.472 24.8 498.432 23.56L498.832 26.32C492.672 27.6 487.112 27.96 481.632 27.96H478.752V25.16ZM523.268 19.2H526.588V27.84H523.268V19.2ZM524.908 3.28C530.468 3.28 534.468 6.76 534.468 11.8C534.468 16.84 530.468 20.32 524.908 20.32C519.348 20.32 515.348 16.84 515.348 11.8C515.348 6.76 519.348 3.28 524.908 3.28ZM524.908 6.12C521.228 6.12 518.588 8.44 518.588 11.8C518.588 15.16 521.228 17.48 524.908 17.48C528.588 17.48 531.228 15.16 531.228 11.8C531.228 8.44 528.588 6.12 524.908 6.12ZM538.588 0.959999H541.908V37.12H538.588V0.959999ZM540.948 15.84H547.628V18.64H540.948V15.84ZM514.188 29.32L513.708 26.56C520.228 26.52 528.948 26.48 536.308 25.48L536.588 27.96C528.948 29.24 520.508 29.32 514.188 29.32ZM568.985 13.2H579.065V15.92H568.985V13.2ZM560.265 4.08H562.985V10.52C562.985 18.64 558.705 26.4 552.985 29.48L550.865 26.84C556.185 24.2 560.265 17.24 560.265 10.52V4.08ZM560.905 4.08H563.585V10.52C563.585 17.12 567.665 23.68 572.905 26.16L570.945 28.84C565.105 25.88 560.905 18.44 560.905 10.52V4.08ZM577.425 0.919999H580.705V37.16H577.425V0.919999ZM613.213 3.28H616.693C616.693 12.4 610.293 18.92 599.893 21.84L598.533 19.24C607.693 16.64 613.213 11.4 613.213 4.68V3.28ZM600.413 3.28H615.453V5.96H600.413V3.28ZM603.733 23.8H627.853V37.04H624.533V26.48H603.733V23.8ZM624.533 0.959999H627.853V22.2H624.533V0.959999ZM616.813 10.44H625.253V13.2H616.813V10.44ZM654.21 10.32H662.37V13.08H654.21V10.32ZM661.33 0.959999H664.65V22.52H661.33V0.959999ZM652.77 23.6C660.21 23.6 664.81 26.12 664.81 30.36C664.81 34.64 660.21 37.08 652.77 37.08C645.29 37.08 640.69 34.64 640.69 30.36C640.69 26.12 645.29 23.6 652.77 23.6ZM652.77 26.2C647.33 26.2 644.01 27.72 644.01 30.36C644.01 32.96 647.33 34.48 652.77 34.48C658.21 34.48 661.53 32.96 661.53 30.36C661.53 27.72 658.21 26.2 652.77 26.2ZM644.13 4.6H646.85V7.52C646.85 14.2 642.77 19.92 636.77 22.16L635.05 19.52C640.41 17.56 644.13 12.72 644.13 7.52V4.6ZM644.77 4.6H647.45V7.52C647.45 12.2 650.97 16.68 656.21 18.52L654.53 21.16C648.65 19.04 644.77 13.6 644.77 7.52V4.6ZM636.05 3.6H655.37V6.32H636.05V3.6ZM697.967 0.919999H701.287V37.16H697.967V0.919999ZM682.207 3.72C687.567 3.72 691.407 8.64 691.407 16.32C691.407 24.04 687.567 28.96 682.207 28.96C676.887 28.96 673.047 24.04 673.047 16.32C673.047 8.64 676.887 3.72 682.207 3.72ZM682.207 6.72C678.687 6.72 676.207 10.48 676.207 16.32C676.207 22.2 678.687 26.04 682.207 26.04C685.767 26.04 688.207 22.2 688.207 16.32C688.207 10.48 685.767 6.72 682.207 6.72ZM734.923 0.959999H738.243V37.12H734.923V0.959999ZM726.483 15.44H736.403V18.2H726.483V15.44ZM723.323 4.84H726.603C726.603 15.16 722.323 24.28 710.323 30.28L708.483 27.68C719.003 22.52 723.323 14.84 723.323 5.4V4.84ZM710.043 4.84H725.083V7.56H710.043V4.84ZM772.2 15.36H778.88V18.16H772.2V15.36ZM769.76 0.919999H773.12V37.12H769.76V0.919999ZM746.72 4.48H750.04V26.88H746.72V4.48ZM746.72 25.16H749.6C754.96 25.16 760.44 24.8 766.4 23.56L766.8 26.32C760.64 27.6 755.08 27.96 749.6 27.96H746.72V25.16ZM787.797 29.8C787.557 30.7333 787.251 31.7467 786.877 32.84C786.504 33.9333 786.091 35.0133 785.637 36.08C785.211 37.1733 784.784 38.2 784.357 39.16H781.757C782.024 38.1467 782.277 37.0533 782.517 35.88C782.784 34.7333 783.024 33.6 783.237 32.48C783.451 31.3333 783.624 30.2933 783.757 29.36H787.517L787.797 29.8ZM9.04234 67.72C14.2823 67.72 18.0423 72.64 18.0423 80.32C18.0423 88.04 14.2823 92.96 9.04234 92.96C3.76234 92.96 0.0423437 88.04 0.0423437 80.32C0.0423437 72.64 3.76234 67.72 9.04234 67.72ZM9.04234 70.72C5.56234 70.72 3.20234 74.48 3.20234 80.32C3.20234 86.2 5.56234 90.04 9.04234 90.04C12.5223 90.04 14.8823 86.2 14.8823 80.32C14.8823 74.48 12.5223 70.72 9.04234 70.72ZM25.8823 64.92H29.1623V101.16H25.8823V64.92ZM16.9623 78.72H27.3223V81.44H16.9623V78.72ZM62.4392 64.96H65.7592V101.2H62.4392V64.96ZM38.5192 89.4H41.4392C48.5992 89.4 53.2392 89.16 58.5992 88.16L58.9592 90.96C53.4392 92 48.7192 92.2 41.4392 92.2H38.5192V89.4ZM38.5192 68.4H55.5992V71.16H41.7992V90.44H38.5192V68.4ZM91.0361 77.2H101.116V79.92H91.0361V77.2ZM82.3161 68.08H85.0361V74.52C85.0361 82.64 80.7561 90.4 75.0361 93.48L72.9161 90.84C78.2361 88.2 82.3161 81.24 82.3161 74.52V68.08ZM82.9561 68.08H85.6361V74.52C85.6361 81.12 89.7161 87.68 94.9561 90.16L92.9961 92.84C87.1561 89.88 82.9561 82.44 82.9561 74.52V68.08ZM99.4761 64.92H102.756V101.16H99.4761V64.92ZM109.753 86.36H142.553V89.08H109.753V86.36ZM124.393 87.64H127.673V101.12H124.393V87.64ZM113.873 66.4H117.193V71.36H135.073V66.4H138.353V82.04H113.873V66.4ZM117.193 74.04V79.36H135.073V74.04H117.193ZM173.07 64.92H176.35V101.16H173.07V64.92ZM165.55 78.56H173.55V81.32H165.55V78.56ZM148.23 89.72H150.99C157.79 89.72 162.07 89.6 167.15 88.64L167.47 91.36C162.27 92.28 157.87 92.48 150.99 92.48H148.23V89.72ZM148.23 68.24H164.95V71H151.51V90.68H148.23V68.24ZM150.67 78.4H163.39V81.08H150.67V78.4ZM207.937 68.36H210.897V69.44C210.897 75.56 204.377 79.84 196.977 80.96L195.737 78.28C202.137 77.44 207.937 73.84 207.937 69.44V68.36ZM209.337 68.36H212.257V69.44C212.257 73.84 218.097 77.44 224.497 78.28L223.217 80.96C215.857 79.84 209.337 75.56 209.337 69.44V68.36ZM196.737 66.76H223.497V69.44H196.737V66.76ZM193.737 83.56H226.497V86.28H193.737V83.56ZM208.697 85.24H212.017V93.56H208.697V85.24ZM197.897 97.6H222.857V100.32H197.897V97.6ZM197.897 90.08H201.177V98.64H197.897V90.08ZM256.814 64.92H260.134V101.16H256.814V64.92ZM232.614 68H235.894V77.56H246.334V68H249.654V92.44H232.614V68ZM235.894 80.2V89.72H246.334V80.2H235.894ZM267.291 71.12H285.211V73.84H267.291V71.12ZM276.251 76.24C280.771 76.24 284.051 79.64 284.051 84.52C284.051 89.36 280.771 92.76 276.251 92.76C271.771 92.76 268.491 89.36 268.491 84.52C268.491 79.64 271.771 76.24 276.251 76.24ZM276.251 79.08C273.491 79.08 271.491 81.32 271.491 84.52C271.491 87.72 273.491 89.96 276.251 89.96C279.051 89.96 281.091 87.72 281.091 84.52C281.091 81.32 279.051 79.08 276.251 79.08ZM294.771 64.96H297.971V101.12H294.771V64.96ZM289.011 80.16H295.851V82.92H289.011V80.16ZM287.051 65.76H290.171V99.36H287.051V65.76ZM274.651 66H277.931V72.8H274.651V66ZM313.768 67.72C319.088 67.72 322.848 72.64 322.848 80.32C322.848 88.04 319.088 92.96 313.768 92.96C308.448 92.96 304.688 88.04 304.688 80.32C304.688 72.64 308.448 67.72 313.768 67.72ZM313.768 70.72C310.248 70.72 307.848 74.48 307.848 80.32C307.848 86.2 310.248 90.04 313.768 90.04C317.248 90.04 319.688 86.2 319.688 80.32C319.688 74.48 317.248 70.72 313.768 70.72ZM331.048 74.04H337.688V76.84H331.048V74.04ZM331.048 84.8H337.688V87.6H331.048V84.8ZM328.608 64.96H331.968V101.12H328.608V64.96ZM376.075 64.84H379.395V84.8H376.075V64.84ZM377.995 73.52H384.755V76.32H377.995V73.52ZM356.435 86.64H379.395V94.72H359.795V99.12H356.515V92.32H376.155V89.16H356.435V86.64ZM356.515 98.16H380.715V100.72H356.515V98.16ZM351.435 68.2H372.795V70.8H351.435V68.2ZM362.115 72.4C367.315 72.4 370.755 74.68 370.755 78.36C370.755 82 367.315 84.24 362.115 84.24C356.835 84.24 353.435 82 353.435 78.36C353.435 74.68 356.835 72.4 362.115 72.4ZM362.115 74.84C358.755 74.84 356.595 76.2 356.595 78.36C356.595 80.48 358.755 81.84 362.115 81.84C365.435 81.84 367.595 80.48 367.595 78.36C367.595 76.2 365.435 74.84 362.115 74.84ZM360.435 64.56H363.755V70H360.435V64.56ZM408.103 70.12H410.783V76C410.783 83.64 406.183 91.32 400.423 94.16L398.503 91.52C403.743 89.04 408.103 82.24 408.103 76V70.12ZM408.743 70.12H411.423V76C411.423 82.12 415.783 88.36 421.103 90.64L419.223 93.28C413.383 90.56 408.743 83.52 408.743 76V70.12ZM399.703 68.64H419.903V71.44H399.703V68.64ZM424.783 64.96H428.103V101.12H424.783V64.96ZM445.73 93.76H478.49V96.52H445.73V93.76ZM460.37 84.4H463.69V94.52H460.37V84.4ZM449.53 67.96H474.49V85H449.53V67.96ZM471.29 70.64H452.77V82.32H471.29V70.64ZM482.527 93.8H515.287V96.6H482.527V93.8ZM486.487 67.72H511.247V78.68H489.887V85.92H486.607V76.04H507.967V70.44H486.487V67.72ZM486.607 84.52H512.087V87.24H486.607V84.52ZM523.724 75.8H548.284V78.52H523.724V75.8ZM519.284 83.36H552.084V86.08H519.284V83.36ZM523.724 66.28H527.004V77.16H523.724V66.28ZM523.484 97.52H548.484V100.24H523.484V97.52ZM523.484 89.68H526.764V98.24H523.484V89.68ZM585.792 74H593.832V76.76H585.792V74ZM592.912 64.96H596.232V86.12H592.912V64.96ZM572.792 87.88H596.232V100.64H572.792V87.88ZM592.992 90.52H576.032V97.96H592.992V90.52ZM575.712 68.4H578.432V71.32C578.432 77.92 574.352 83.56 568.312 85.8L566.592 83.16C571.992 81.24 575.712 76.44 575.712 71.32V68.4ZM576.352 68.4H579.032V71.28C579.032 75.96 582.552 80.48 587.792 82.32L586.112 84.96C580.232 82.84 576.352 77.36 576.352 71.28V68.4ZM567.632 67.28H586.952V69.96H567.632V67.28ZM617.789 68.52H620.669V70.04C620.669 76.52 613.789 81.28 606.509 82.52L605.229 79.88C611.589 78.96 617.789 74.8 617.789 70.04V68.52ZM618.629 68.52H621.469V70.04C621.469 74.8 627.709 78.96 634.029 79.88L632.789 82.52C625.469 81.28 618.629 76.52 618.629 70.04V68.52ZM617.909 87.32H621.189V101.12H617.909V87.32ZM603.309 85.56H635.989V88.28H603.309V85.56ZM606.349 67.2H632.829V69.88H606.349V67.2ZM666.385 64.96H669.705V85.44H666.385V64.96ZM642.345 67.04H645.625V81.76H642.345V67.04ZM642.345 79.92H645.265C651.305 79.92 656.705 79.52 662.465 78.32L662.945 81.04C656.945 82.32 651.505 82.72 645.265 82.72H642.345V79.92ZM646.345 87.2H669.705V100.64H646.345V87.2ZM666.465 89.84H649.585V97.92H666.465V89.84ZM693.222 65.56C701.182 65.56 705.942 67.8 705.942 71.84C705.942 75.88 701.182 78.12 693.222 78.12C685.222 78.12 680.502 75.88 680.502 71.84C680.502 67.8 685.222 65.56 693.222 65.56ZM693.222 68.08C687.302 68.08 683.902 69.44 683.902 71.84C683.902 74.24 687.302 75.6 693.222 75.6C699.102 75.6 702.502 74.24 702.502 71.84C702.502 69.44 699.102 68.08 693.222 68.08ZM676.862 80.52H709.542V83.2H676.862V80.52ZM680.822 86.28H705.382V94.44H684.182V98.84H680.902V92.04H702.102V88.84H680.822V86.28ZM680.902 98.12H706.462V100.72H680.902V98.12ZM735.89 66.64C741.29 66.64 745.13 69.64 745.13 74.08C745.13 78.48 741.29 81.56 735.89 81.56C730.53 81.56 726.69 78.48 726.69 74.08C726.69 69.64 730.53 66.64 735.89 66.64ZM735.89 69.4C732.37 69.4 729.85 71.32 729.85 74.08C729.85 76.88 732.37 78.76 735.89 78.76C739.41 78.76 741.93 76.88 741.93 74.08C741.93 71.32 739.41 69.4 735.89 69.4ZM734.41 85.56H737.73V100H734.41V85.56ZM750.41 64.96H753.69V101.16H750.41V64.96ZM724.45 87.36L724.01 84.56C730.73 84.56 739.89 84.48 747.85 83.28L748.09 85.76C739.93 87.24 731.05 87.36 724.45 87.36ZM760.807 71.12H778.727V73.84H760.807V71.12ZM769.767 76.24C774.287 76.24 777.567 79.64 777.567 84.52C777.567 89.36 774.287 92.76 769.767 92.76C765.287 92.76 762.007 89.36 762.007 84.52C762.007 79.64 765.287 76.24 769.767 76.24ZM769.767 79.08C767.007 79.08 765.007 81.32 765.007 84.52C765.007 87.72 767.007 89.96 769.767 89.96C772.567 89.96 774.607 87.72 774.607 84.52C774.607 81.32 772.567 79.08 769.767 79.08ZM788.287 64.96H791.487V101.12H788.287V64.96ZM782.527 80.16H789.367V82.92H782.527V80.16ZM780.567 65.76H783.687V99.36H780.567V65.76ZM768.167 66H771.447V72.8H768.167V66ZM822.234 68.36H825.194V69.44C825.194 75.56 818.674 79.84 811.274 80.96L810.034 78.28C816.434 77.44 822.234 73.84 822.234 69.44V68.36ZM823.634 68.36H826.554V69.44C826.554 73.84 832.394 77.44 838.794 78.28L837.514 80.96C830.154 79.84 823.634 75.56 823.634 69.44V68.36ZM811.034 66.76H837.794V69.44H811.034V66.76ZM808.034 83.56H840.794V86.28H808.034V83.56ZM822.994 85.24H826.314V93.56H822.994V85.24ZM812.194 97.6H837.154V100.32H812.194V97.6ZM812.194 90.08H815.474V98.64H812.194V90.08ZM871.111 64.92H874.431V101.16H871.111V64.92ZM846.911 68H850.191V77.56H860.631V68H863.951V92.44H846.911V68ZM850.191 80.2V89.72H860.631V80.2H850.191ZM908.948 65H912.108V87.36H908.948V65ZM903.068 74.88H909.908V77.6H903.068V74.88ZM901.268 65.52H904.428V86.84H901.268V65.52ZM881.468 69.08H899.788V71.72H881.468V69.08ZM890.668 73.52C895.188 73.52 898.348 75.96 898.348 79.72C898.348 83.48 895.188 85.92 890.668 85.92C886.108 85.92 882.948 83.48 882.948 79.72C882.948 75.96 886.108 73.52 890.668 73.52ZM890.668 76.04C887.828 76.04 885.908 77.48 885.908 79.72C885.908 81.96 887.828 83.44 890.668 83.44C893.468 83.44 895.388 81.96 895.388 79.72C895.388 77.48 893.468 76.04 890.668 76.04ZM889.028 65.12H892.268V70.64H889.028V65.12ZM891.188 88.44H893.748V89.68C893.748 94.24 890.748 98.8 885.508 100.68L883.948 98.2C888.468 96.68 891.188 92.96 891.188 89.68V88.44ZM891.948 88.44H894.388V89.68C894.388 93.16 896.508 96.84 900.828 98.48L899.428 101C894.268 99.08 891.948 94.28 891.948 89.68V88.44ZM904.468 88.44H906.908V89.68C906.908 93.76 904.548 98.92 899.428 101L898.068 98.48C902.268 96.64 904.468 92.68 904.468 89.68V88.44ZM905.148 88.44H907.708V89.68C907.708 93.2 910.428 96.76 914.988 98.2L913.388 100.68C908.108 98.88 905.148 94.48 905.148 89.68V88.44ZM922.585 86.64H925.865V90.84H943.545V86.64H946.865V100.64H922.585V86.64ZM925.865 93.4V97.96H943.545V93.4H925.865ZM918.425 81.44H951.105V84.12H918.425V81.44ZM933.105 65.36H935.945V66.96C935.945 73.24 928.945 77.76 921.505 78.88L920.305 76.28C926.825 75.4 933.105 71.52 933.105 66.96V65.36ZM933.625 65.36H936.465V66.96C936.465 71.44 942.825 75.4 949.265 76.28L948.025 78.88C940.665 77.76 933.625 73.16 933.625 66.96V65.36ZM981.542 64.96H984.862V101.12H981.542V64.96ZM957.542 68.48H960.822V90.88H957.542V68.48ZM957.542 88.92H960.502C965.982 88.92 971.702 88.52 977.822 87.24L978.222 90.08C971.942 91.36 966.222 91.8 960.502 91.8H957.542V88.92ZM1016.5 64.92H1019.86V101.16H1016.5V64.92ZM1019.06 79.2H1025.78V82H1019.06V79.2ZM993.579 89.36H996.419C1003.1 89.36 1007.78 89.12 1013.18 88.12L1013.54 90.92C1007.98 91.96 1003.22 92.16 996.419 92.16H993.579V89.36ZM993.579 68.44H1010.38V71.16H996.859V90.6H993.579V68.44ZM1033.38 89.96H1031.1L1030.1 69.44H1034.38L1033.38 89.96ZM1029.74 95.84C1029.74 94.8533 1029.98 94.16 1030.46 93.76C1030.94 93.36 1031.52 93.16 1032.22 93.16C1032.88 93.16 1033.46 93.36 1033.94 93.76C1034.44 94.16 1034.7 94.8533 1034.7 95.84C1034.7 96.8 1034.44 97.4933 1033.94 97.92C1033.46 98.3467 1032.88 98.56 1032.22 98.56C1031.52 98.56 1030.94 98.3467 1030.46 97.92C1029.98 97.4933 1029.74 96.8 1029.74 95.84Z" fill="black"/>
</svg>
