<svg width="343" height="71" viewBox="0 0 343 71" fill="none" xmlns="http://www.w3.org/2000/svg">
<path d="M71.8683 29.9258C68.3874 24.7195 63.3299 21.0196 57.3167 19.1453C52.3847 17.6806 47.3203 17.7778 41.9209 17.8819C40.6304 17.9374 39.3259 17.9374 38.0005 17.9374H36.2286V49.5917C35.559 49.6472 34.9032 49.6472 34.2335 49.6472C29.1481 49.7375 24.1604 49.793 19.7237 48.4255C14.443 46.8011 10.1877 43.6635 7.04859 39.1097C3.79784 34.2505 2.73751 27.3157 4.22337 20.8738C6.13475 12.6201 13.4106 5.93518 22.2769 4.26222C25.3742 3.66523 29.2946 3.55416 33.0616 3.55416H39.7514V0H33.0616C29.3714 0 25.1719 0.0555339 21.6072 0.756648C11.3806 2.67257 2.98166 10.4751 0.742409 20.0547C-0.973654 27.4407 0.33781 35.4445 4.13268 41.0603C7.60666 46.225 12.6781 50.029 18.7122 51.8547C22.3885 52.9723 26.1973 53.2222 30.1178 53.2222C31.4292 53.2222 39.7794 53.1181 39.7794 53.1181V21.4152C40.5467 21.4152 41.2582 21.4152 42.0186 21.3597C47.0831 21.2695 51.8616 21.1584 56.2633 22.5329C61.565 24.2127 65.8133 27.2949 68.9454 31.9042C72.2102 36.7079 73.2635 43.6427 71.7497 50.1401C69.8523 58.3938 62.6044 65.0718 53.7171 66.8072C50.6059 67.3556 46.7413 67.4042 42.9534 67.4042H36.2635V71H42.9534C46.6436 71 50.8431 70.9584 54.3798 70.2919C64.6065 68.265 73.0054 60.5735 75.2516 50.9523C76.9817 43.6079 75.6562 35.5 71.8544 29.9188L71.8683 29.9258Z" fill="#BE9761"/>
<path d="M97.5635 16.6253V19.5299H91.3294V29.5642H92.0986C93.1778 29.5642 94.2685 29.5412 95.3707 29.4838C96.4728 29.4264 97.575 29.3116 98.7001 29.1394L99.0445 32.0096C97.9653 32.2047 96.8173 32.331 95.6003 32.377C94.3833 32.4344 93.2123 32.4573 92.0986 32.4573H88V16.6138H97.552L97.5635 16.6253ZM103.361 22.7216H105.543V14.2832H108.769V39.0358H105.543V25.6148H103.361V37.8303H100.135V14.7769H103.361V22.7101V22.7216Z" fill="#BE9761"/>
<path d="M111.157 31.2978C112.489 30.4941 113.625 29.7938 114.567 29.1623C115.508 28.5424 116.289 27.9683 116.92 27.4402C117.552 26.9121 118.045 26.4184 118.413 25.9477C118.78 25.477 119.056 25.0063 119.239 24.5241C119.423 24.0419 119.549 23.5367 119.595 23.0086C119.653 22.4805 119.676 21.8835 119.676 21.2291V19.3922H111.605V16.4875H123.051V21.3898C123.051 22.2738 123.005 23.089 122.913 23.8123C122.821 24.5356 122.649 25.2244 122.397 25.8444C122.144 26.4758 121.777 27.0843 121.306 27.6698C120.835 28.2553 120.227 28.8638 119.481 29.4953C118.734 30.1267 117.827 30.8041 116.748 31.5159C115.669 32.2392 114.406 33.0428 112.925 33.9498L111.146 31.2863L111.157 31.2978ZM130.915 39.0358H127.529V14.2832H130.915V39.0358Z" fill="#BE9761"/>
<path d="M148.331 26.7977C148.618 25.5578 148.802 24.3753 148.905 23.2387C148.997 22.1136 149.055 20.931 149.055 19.7141V18.6234H135.771V15.7188H152.407V19.1056C152.407 20.4948 152.35 21.8495 152.235 23.1928C152.12 24.536 151.948 25.73 151.718 26.7977H155.656V29.645H145.989V39.0477H142.614V29.645H132.981V26.7977H148.343H148.331Z" fill="#BE9761"/>
<path d="M156.633 23.5145H158.998V17.9004H156.793V15.2368H170.559V17.9004H168.423V23.2734C168.883 23.239 169.342 23.2045 169.79 23.1816C170.237 23.1586 170.72 23.1242 171.213 23.0897L171.431 25.6729C170.387 25.7647 169.238 25.8451 167.999 25.914C166.759 25.9829 165.484 26.0403 164.175 26.0747C162.867 26.1092 161.569 26.1321 160.272 26.1551C158.975 26.1781 157.758 26.178 156.621 26.178V23.5145H156.633ZM176.437 27.8083V34.7886H164.164V36.6256H177.183V39.2891H160.915V32.2629H173.188V30.4489H160.777V27.8083H176.437ZM165.174 23.4112V17.9004H162.247V23.4915L165.174 23.4112ZM176.437 26.6832H173.085V14.2725H176.437V26.6832Z" fill="#BE9761"/>
<path d="M183.359 30.276H185.598C186.826 30.276 188.089 30.2415 189.409 30.1611C190.718 30.0808 192.004 29.966 193.244 29.8052L193.611 32.6295C192.348 32.8247 190.971 32.9625 189.49 33.0313C187.997 33.1002 186.436 33.1347 184.806 33.1347H180.041V23.1005H187.974V19.0477H180.041V16.2005H191.304V25.8329H183.37V30.276H183.359ZM198.399 23.089H201.809V26.0166H198.399V39.0358H195.012V14.2832H198.399V23.1005V23.089Z" fill="#BE9761"/>
<path d="M202.452 16.4072H212.062V19.2544H205.701V22.9512H210.868V25.7411H205.701V29.7938H206.849C207.86 29.7938 208.927 29.7593 210.041 29.7019C211.155 29.6445 212.28 29.5297 213.393 29.369L213.715 32.1933C212.682 32.3655 211.51 32.4918 210.202 32.5492C208.893 32.6066 207.538 32.641 206.16 32.641H202.464V16.4072H202.452ZM215.012 25.6492H212.188V22.7446H215.012V14.7884H218.204V37.8418H215.012V25.6492ZM223.244 39.0358H220.052V14.2832H223.244V39.0358Z" fill="#BE9761"/>
<path d="M247.227 33.0776V35.9248H224.541V33.0776H247.227ZM235.964 24.0996C235.827 24.3981 235.528 24.731 235.069 25.0755C234.61 25.4199 234.047 25.8217 233.381 26.2924C232.658 26.7746 231.808 27.3028 230.855 27.8768C229.903 28.4508 228.777 29.1052 227.503 29.8285L225.85 27.165C226.826 26.6139 227.813 26.0399 228.8 25.4428C229.788 24.8458 230.683 24.2833 231.464 23.7552C231.992 23.3993 232.44 23.0434 232.784 22.6875C233.129 22.3316 233.404 21.9527 233.611 21.5509C233.818 21.149 233.955 20.7242 234.047 20.265C234.139 19.8058 234.185 19.2777 234.185 18.6922V15.9482H237.595V18.6922C237.595 19.2777 237.641 19.8058 237.721 20.265C237.813 20.7242 237.951 21.1605 238.157 21.5509C238.364 21.9527 238.639 22.3316 238.984 22.6875C239.328 23.0434 239.765 23.3993 240.304 23.7552C241.085 24.2833 241.969 24.8458 242.968 25.4428C243.955 26.0399 244.942 26.6139 245.918 27.165L244.299 29.7711C243.025 29.0478 241.9 28.3934 240.947 27.8079C239.983 27.2339 239.145 26.7057 238.421 26.2236C237.744 25.7643 237.204 25.3625 236.814 25.041C236.424 24.7196 236.148 24.3981 235.999 24.0996H235.976H235.964Z" fill="#BE9761"/>
<path d="M257.479 39.8398C257.146 39.4953 256.572 38.5654 256.297 37.9798C262.531 34.1108 270.372 27.2453 274.322 22.0904H266.331C264.758 22.0904 263.622 22.3889 262.382 22.8252C261.188 22.2856 259.718 21.4475 258.811 20.6668C258.673 20.5176 258.57 20.4257 258.57 20.2305C258.57 19.9894 259.041 19.048 259.282 18.7151C261.084 19.0595 263.185 19.1054 265.034 19.1054H267.938V16.7978C267.938 15.6727 267.181 15.0871 265.562 14.6853C265.654 14.1457 265.849 13.5602 266.033 13.2158C266.17 12.9747 266.366 12.9173 266.561 12.9173C267.273 12.9173 269.752 13.3535 270.889 13.698C271.463 13.8931 271.601 13.9965 271.601 14.3868V19.0939H273.794C275.458 19.0939 277.318 18.8988 278.306 18.8988C279.454 18.8988 280.062 20.4716 279.304 21.5968C278.019 23.56 275.78 26.0054 273.174 28.5541C276.411 31.011 279.591 33.3072 282.829 35.6607C283.208 35.9018 283.116 36.2463 282.921 36.4988C282.45 37.1418 281.405 38.2095 280.544 38.8065C277.41 36.0166 274.218 33.4105 270.935 30.6207C266.985 34.2027 262.382 37.7273 258.57 39.9316C258.099 40.2301 257.766 40.1268 257.479 39.8283V39.8398ZM268.662 49.7477C268.662 45.0865 272.749 40.4368 279.649 40.4368C286.549 40.4368 290.636 45.0979 290.636 49.7477C290.636 54.3974 286.549 59.0586 279.649 59.0586C272.749 59.0586 268.662 54.3974 268.662 49.7477ZM286.778 49.7477C286.778 46.6593 284.161 43.7202 279.649 43.7202C275.137 43.7202 272.519 46.6593 272.519 49.7477C272.519 52.836 275.137 55.7751 279.649 55.7751C284.161 55.7751 286.778 52.836 286.778 49.7477ZM287.869 29.6907H279.97C279.683 28.7608 279.396 27.3831 279.396 26.7976C279.396 26.212 279.637 26.1087 280.303 26.1087C280.774 26.1087 283.816 26.4531 285.676 26.4531H287.869V16.6026C287.869 15.8678 287.628 15.6727 287.065 15.2249C286.491 14.7886 285.114 14.1917 283.782 13.9046C283.92 13.3191 284.207 12.5269 284.402 12.2399C284.54 11.9988 284.735 11.9414 284.93 11.9414C286.411 11.9414 289.637 12.5729 291.015 13.1125C291.543 13.3076 291.727 13.5028 291.727 13.8931V33.6516C291.727 35.7067 291.394 39.1968 291.199 40.8615C291.153 41.2978 291.061 41.5963 290.682 41.6996C290.154 41.8489 288.73 41.8948 287.881 41.7456V29.6792L287.869 29.6907Z" fill="#BE9761"/>
<path d="M330.67 33.0776C322.679 35.0867 311.646 36.8088 305.607 36.8088C303.61 36.8088 302.944 35.7755 302.944 33.8123V21.6082C302.944 20.2879 301.899 19.645 300.613 19.358C300.659 18.9217 300.854 17.3029 301.474 17.3029C302.611 17.3029 305.091 17.6474 306.331 17.6474H316.606C317.938 17.6474 321.359 17.257 321.887 17.257C322.461 17.257 322.691 17.3603 322.691 17.8425C322.691 18.3821 322.45 20.1502 322.163 20.9768H306.801V33.3301C312.645 33.3301 323.782 31.9065 330.67 30.1385V16.6026C330.67 15.8678 330.429 15.6727 329.866 15.2249C329.292 14.7886 327.915 14.1917 326.583 13.9046C326.721 13.3191 327.008 12.5269 327.203 12.2399C327.341 11.9988 327.536 11.9414 327.731 11.9414C329.2 11.9414 332.438 12.5729 333.816 13.1125C334.332 13.3076 334.528 13.5028 334.528 13.8931V24.6277H336.72C338.569 24.6277 341.623 24.134 342.093 24.134C342.759 24.134 343 24.2373 343 24.8229C343 25.4084 342.713 26.7861 342.426 27.716H334.528V31.3899C334.528 33.4449 334.195 36.9351 333.999 38.5998C333.954 39.0361 333.862 39.3346 333.471 39.4379C332.943 39.5872 331.52 39.6331 330.67 39.4838V33.0661V33.0776ZM310.739 55.1437V46.0279C310.739 44.7076 309.695 44.0647 308.409 43.7777C308.455 43.3414 308.65 41.7226 309.258 41.7226C310.406 41.7226 312.875 42.067 314.115 42.067H327.386C328.569 42.067 331.669 41.8719 332.851 41.8719C333.609 41.8719 334.045 42.2163 334.045 43.1921V56.2802C334.045 57.5087 333.334 57.7957 332.622 57.7957H312.84C311.554 57.7957 310.751 57.015 310.751 55.1437H310.739ZM330.245 54.5581V45.2931H314.551V54.5581H330.245Z" fill="#BE9761"/>
<path d="M88 48.6914H90.8702C91.3294 48.6914 91.7198 48.7488 92.0412 48.8636C92.3742 48.9784 92.6382 49.1277 92.8449 49.3343C93.0516 49.5295 93.2123 49.7706 93.3156 50.0461C93.4189 50.3217 93.4649 50.6202 93.4649 50.9417V51.1713C93.4649 51.4927 93.4075 51.7912 93.3041 52.0783C93.2008 52.3653 93.0401 52.6178 92.8219 52.8245C92.6038 53.0426 92.3283 53.2034 92.0068 53.3411C91.6853 53.4674 91.295 53.5363 90.8587 53.5363H89.3433V56.5558H88V48.7029V48.6914ZM89.3547 49.851V52.3423H90.698C91.1457 52.3423 91.4902 52.2505 91.7427 52.0783C91.9953 51.906 92.1216 51.5846 92.1216 51.1368V50.9417C92.1216 50.7235 92.0872 50.5513 92.0298 50.4135C91.9724 50.2758 91.8805 50.161 91.7657 50.0806C91.6509 50.0002 91.5131 49.9428 91.3524 49.9084C91.1917 49.8739 91.0195 49.8625 90.8243 49.8625H89.3662L89.3547 49.851Z" fill="#BE9761"/>
<path d="M98.8838 48.1748H100.273V49.6558H98.8838V48.1748ZM98.9068 50.5398H100.239V56.5328H98.9068V50.5398Z" fill="#BE9761"/>
<path d="M107.747 48.3125H109.079V56.5442H107.747V48.3125Z" fill="#BE9761"/>
<path d="M116.806 56.6244C116.174 56.6244 115.692 56.4752 115.348 56.1882C115.003 55.8897 114.831 55.4878 114.831 54.9482V54.6038C114.831 54.3627 114.865 54.1331 114.946 53.9265C115.015 53.7198 115.141 53.5361 115.313 53.3869C115.485 53.2376 115.715 53.1113 115.991 53.0309C116.278 52.9391 116.622 52.9046 117.024 52.9046H118.356V52.675C118.356 52.3076 118.275 52.0321 118.103 51.8714C117.942 51.7106 117.678 51.6303 117.311 51.6303C116.702 51.6303 116.163 51.8255 115.669 52.2273L115.015 51.2285C115.313 51.0218 115.646 50.8266 116.014 50.6659C116.381 50.5052 116.817 50.4248 117.322 50.4248C117.655 50.4248 117.977 50.4707 118.264 50.5511C118.551 50.6429 118.803 50.7578 119.01 50.93C119.217 51.0907 119.377 51.2973 119.492 51.527C119.607 51.768 119.664 52.0321 119.664 52.3421V56.5555H118.47L118.448 55.8093C118.39 55.9356 118.298 56.0619 118.183 56.1652C118.057 56.2685 117.919 56.3604 117.77 56.4293C117.609 56.4981 117.449 56.5555 117.288 56.59C117.116 56.6244 116.955 56.6474 116.806 56.6474V56.6244ZM118.356 53.9609H117.058C116.702 53.9609 116.461 54.0298 116.324 54.1675C116.186 54.3053 116.117 54.489 116.117 54.7186V54.8449C116.117 55.0401 116.186 55.1893 116.312 55.3041C116.45 55.419 116.645 55.4649 116.898 55.4649C117.437 55.4649 117.839 55.3271 118.103 55.063C118.218 54.9368 118.298 54.8105 118.31 54.6612C118.333 54.5235 118.344 54.3397 118.344 54.1101V53.9494L118.356 53.9609Z" fill="#BE9761"/>
<path d="M125.083 51.677H124.153V50.5404H125.083V49.002H126.415V50.5404H127.885V51.677H126.415V54.8342C126.415 55.0868 126.461 55.259 126.564 55.3394C126.668 55.4197 126.805 55.4542 126.978 55.4542C127.115 55.4542 127.242 55.4427 127.379 55.4197C127.506 55.3968 127.655 55.3508 127.804 55.282L128.011 56.3841C127.896 56.4415 127.724 56.4989 127.517 56.5563C127.311 56.6137 127.069 56.6367 126.817 56.6367C126.484 56.6367 126.208 56.6022 125.979 56.5219C125.749 56.4415 125.577 56.3267 125.439 56.1775C125.301 56.0282 125.21 55.833 125.152 55.6149C125.095 55.3968 125.072 55.1442 125.072 54.8572V51.6885L125.083 51.677Z" fill="#BE9761"/>
<path d="M137.379 55.982C137.092 56.1772 136.77 56.3379 136.392 56.4527C136.013 56.5675 135.542 56.6249 135.002 56.6249C134.669 56.6249 134.337 56.579 134.015 56.4872C133.694 56.3953 133.418 56.2461 133.165 56.0279C132.913 55.8098 132.718 55.5228 132.568 55.1669C132.419 54.811 132.339 54.3632 132.339 53.8236V53.2037C132.339 52.7215 132.408 52.2967 132.546 51.9408C132.683 51.5849 132.867 51.2978 133.108 51.0682C133.349 50.8386 133.625 50.6664 133.946 50.5631C134.268 50.4483 134.612 50.4023 134.991 50.4023C135.37 50.4023 135.691 50.4597 136.013 50.5631C136.323 50.6664 136.598 50.8386 136.816 51.0568C137.046 51.2749 137.218 51.5504 137.344 51.8834C137.471 52.2163 137.54 52.5952 137.54 53.0314V54.0188H133.648C133.648 54.501 133.774 54.8569 134.015 55.098C134.256 55.3391 134.612 55.4654 135.083 55.4654C135.427 55.4654 135.737 55.4309 136.001 55.3506C136.265 55.2702 136.552 55.1439 136.851 54.9717L137.402 55.959L137.379 55.982ZM136.242 52.997V52.7329C136.242 52.5722 136.219 52.423 136.173 52.2737C136.128 52.1245 136.047 51.9982 135.944 51.8949C135.841 51.7915 135.703 51.6997 135.542 51.6308C135.381 51.5619 135.186 51.5275 134.956 51.5275C134.509 51.5275 134.176 51.6423 133.958 51.8834C133.74 52.1245 133.625 52.4115 133.625 52.7559V52.9855H136.242V52.997Z" fill="#BE9761"/>
<path d="M143.796 55.4654C144.095 55.4654 144.336 55.4195 144.519 55.3391C144.703 55.2587 144.784 55.098 144.784 54.8684V54.7995C144.784 54.6962 144.772 54.6158 144.749 54.5469C144.726 54.478 144.669 54.4206 144.588 54.3632C144.508 54.3173 144.382 54.2599 144.221 54.2255C144.06 54.1795 143.842 54.1336 143.567 54.0762C143.211 54.0073 142.912 53.9155 142.66 53.8236C142.407 53.7203 142.2 53.6055 142.051 53.4562C141.89 53.307 141.776 53.1348 141.707 52.9281C141.638 52.7215 141.592 52.4804 141.592 52.2048V52.09C141.592 51.8834 141.638 51.6882 141.718 51.4815C141.799 51.2749 141.925 51.1027 142.109 50.9419C142.292 50.7812 142.522 50.6549 142.809 50.5516C143.096 50.4483 143.44 50.4023 143.854 50.4023C144.187 50.4023 144.554 50.4368 144.921 50.5057C145.3 50.5746 145.656 50.7238 145.989 50.9534L145.415 51.9408C145.22 51.803 145.002 51.6997 144.761 51.6423C144.519 51.5849 144.267 51.5504 144.014 51.5504C143.601 51.5504 143.314 51.5964 143.165 51.6997C143.004 51.803 142.935 51.9293 142.935 52.09V52.1589C142.935 52.2737 142.947 52.3541 142.981 52.423C143.004 52.4918 143.061 52.5493 143.142 52.5952C143.222 52.6411 143.325 52.687 143.475 52.7215C143.613 52.7559 143.796 52.8018 144.026 52.8363C144.393 52.9166 144.715 52.997 144.979 53.0888C145.254 53.1807 145.472 53.2955 145.645 53.4333C145.817 53.571 145.943 53.7547 146.035 53.9614C146.115 54.1795 146.161 54.4436 146.161 54.7651V54.8798C146.161 55.1095 146.115 55.3391 146.012 55.5457C145.909 55.7524 145.759 55.9476 145.564 56.0968C145.369 56.2576 145.128 56.3838 144.841 56.4757C144.554 56.5675 144.221 56.6135 143.854 56.6135C143.371 56.6135 142.912 56.5446 142.476 56.4183C142.04 56.292 141.684 56.1083 141.408 55.8787L141.994 54.8339C142.258 55.0176 142.533 55.1669 142.832 55.2817C143.13 55.3965 143.463 55.4539 143.819 55.4539L143.796 55.4654Z" fill="#BE9761"/>
<path d="M158.584 48.5771C159.124 48.5771 159.594 48.646 160.008 48.7723C160.421 48.8986 160.823 49.1282 161.202 49.4497L160.478 50.5174C160.168 50.2533 159.858 50.0696 159.56 49.9893C159.261 49.9089 158.928 49.863 158.584 49.863C158.354 49.863 158.136 49.8974 157.918 49.9663C157.7 50.0352 157.505 50.1615 157.333 50.3452C157.16 50.5289 157.023 50.77 156.919 51.0914C156.816 51.4014 156.759 51.8032 156.759 52.2854V53.0891C156.759 53.5024 156.804 53.8583 156.908 54.1453C157.011 54.4323 157.137 54.6735 157.31 54.8571C157.47 55.0408 157.666 55.1671 157.884 55.259C158.102 55.3393 158.331 55.3853 158.572 55.3853C158.928 55.3853 159.284 55.3279 159.652 55.213C160.019 55.0982 160.352 54.8801 160.662 54.5701L161.385 55.6378C161.156 55.8674 160.926 56.0511 160.673 56.1889C160.421 56.3267 160.18 56.43 159.927 56.4989C159.686 56.5793 159.434 56.6252 159.204 56.6481C158.963 56.6711 158.745 56.6826 158.527 56.6826C158.113 56.6826 157.711 56.6252 157.344 56.4989C156.965 56.3726 156.632 56.1774 156.357 55.9134C156.07 55.6493 155.84 55.3049 155.679 54.8916C155.507 54.4783 155.427 53.9731 155.427 53.3876V51.9869C155.427 51.4014 155.507 50.8963 155.679 50.4715C155.84 50.0467 156.07 49.6908 156.357 49.4152C156.644 49.1397 156.977 48.9331 157.367 48.7953C157.746 48.669 158.159 48.6001 158.607 48.6001L158.584 48.5771Z" fill="#BE9761"/>
<path d="M169.146 50.4132C169.41 50.4132 169.663 50.4592 169.904 50.5281C170.145 50.6084 170.363 50.7347 170.558 50.9184C170.753 51.0906 170.902 51.3317 171.017 51.6073C171.132 51.8943 171.189 52.2272 171.189 52.629V56.5325H169.858V52.9161C169.858 52.0435 169.49 51.5958 168.744 51.5958C168.641 51.5958 168.514 51.6073 168.365 51.6417C168.216 51.6761 168.078 51.745 167.952 51.8369C167.826 51.9402 167.711 52.078 167.619 52.2617C167.527 52.4453 167.481 52.6864 167.481 52.9849V56.5325H166.149V48.3008H167.401V51.2169H167.424C167.63 50.9184 167.883 50.7003 168.182 50.5855C168.48 50.4707 168.801 50.4018 169.146 50.4018V50.4132Z" fill="#BE9761"/>
<path d="M181.373 55.982C181.086 56.1772 180.765 56.3379 180.386 56.4527C180.007 56.5675 179.536 56.6249 178.997 56.6249C178.664 56.6249 178.331 56.579 178.009 56.4872C177.688 56.3953 177.412 56.2461 177.16 56.0279C176.907 55.8098 176.712 55.5228 176.563 55.1669C176.413 54.811 176.333 54.3632 176.333 53.8236V53.2037C176.333 52.7215 176.402 52.2967 176.54 51.9408C176.677 51.5849 176.861 51.2978 177.102 51.0682C177.343 50.8386 177.619 50.6664 177.94 50.5631C178.262 50.4483 178.606 50.4023 178.985 50.4023C179.364 50.4023 179.685 50.4597 180.007 50.5631C180.317 50.6664 180.592 50.8386 180.811 51.0568C181.04 51.2749 181.212 51.5504 181.339 51.8834C181.465 52.2163 181.534 52.5952 181.534 53.0314V54.0188H177.642C177.642 54.501 177.768 54.8569 178.009 55.098C178.25 55.3391 178.606 55.4654 179.077 55.4654C179.421 55.4654 179.731 55.4309 179.995 55.3506C180.259 55.2702 180.546 55.1439 180.845 54.9717L181.396 55.959L181.373 55.982ZM180.248 52.997V52.7329C180.248 52.5722 180.225 52.423 180.179 52.2737C180.133 52.1245 180.053 51.9982 179.949 51.8949C179.846 51.7915 179.708 51.6997 179.548 51.6308C179.387 51.5619 179.192 51.5275 178.962 51.5275C178.514 51.5275 178.181 51.6423 177.963 51.8834C177.745 52.1245 177.63 52.4115 177.63 52.7559V52.9855H180.248V52.997Z" fill="#BE9761"/>
<path d="M189.192 56.6244C188.778 56.6244 188.399 56.567 188.067 56.4407C187.734 56.3144 187.447 56.1422 187.217 55.9126C186.976 55.683 186.804 55.396 186.666 55.0516C186.54 54.7071 186.471 54.3168 186.471 53.8805V53.1687C186.471 52.721 186.54 52.3306 186.666 51.9977C186.792 51.6532 186.976 51.3662 187.217 51.1366C187.447 50.907 187.734 50.7233 188.067 50.6085C188.399 50.4822 188.778 50.4248 189.192 50.4248C189.605 50.4248 189.972 50.4822 190.305 50.6085C190.638 50.7348 190.925 50.907 191.166 51.1366C191.407 51.3662 191.58 51.6532 191.717 51.9977C191.844 52.3421 191.913 52.7324 191.913 53.1687V53.8805C191.913 54.3168 191.844 54.7071 191.717 55.0516C191.591 55.396 191.407 55.683 191.166 55.9126C190.925 56.1422 190.65 56.3259 190.305 56.4407C189.972 56.567 189.593 56.6244 189.192 56.6244ZM189.192 55.4304C189.387 55.4304 189.571 55.396 189.743 55.3386C189.915 55.2812 190.053 55.1893 190.179 55.063C190.305 54.9368 190.397 54.776 190.466 54.5694C190.535 54.3627 190.569 54.1216 190.569 53.8346V53.1687C190.569 52.5947 190.443 52.1928 190.19 51.9518C189.938 51.7107 189.605 51.5958 189.18 51.5958C188.755 51.5958 188.422 51.7107 188.17 51.9518C187.917 52.1928 187.791 52.5947 187.791 53.1687V53.8346C187.791 54.1216 187.825 54.3627 187.894 54.5694C187.963 54.776 188.067 54.9368 188.181 55.063C188.308 55.1893 188.445 55.2812 188.618 55.3386C188.79 55.396 188.974 55.4304 189.169 55.4304H189.192Z" fill="#BE9761"/>
<path d="M199.95 50.4141C200.214 50.4141 200.466 50.46 200.707 50.5289C200.948 50.6092 201.167 50.7355 201.362 50.9192C201.557 51.0914 201.706 51.3325 201.821 51.6081C201.936 51.8951 201.993 52.228 201.993 52.6299V56.5333H200.661V52.9169C200.661 52.0443 200.294 51.5966 199.548 51.5966C199.444 51.5966 199.318 51.6081 199.169 51.6425C199.02 51.677 198.882 51.7458 198.756 51.8377C198.629 51.941 198.515 52.0788 198.423 52.2625C198.331 52.4462 198.285 52.6873 198.285 52.9858V56.5333H196.953V50.5404H198.205V51.2292H198.227C198.434 50.9307 198.687 50.7126 198.985 50.5978C199.284 50.483 199.605 50.4141 199.95 50.4141Z" fill="#BE9761"/>
<path d="M211.006 55.7297H210.983C210.833 56.0167 210.604 56.2234 210.317 56.3382C210.03 56.453 209.708 56.5104 209.352 56.5104C208.606 56.5104 208.043 56.2808 207.676 55.8445C207.309 55.3967 207.125 54.7653 207.125 53.9616V53.0202C207.125 52.6184 207.182 52.2625 207.286 51.941C207.401 51.6195 207.55 51.344 207.756 51.1144C207.963 50.8848 208.204 50.7126 208.491 50.5978C208.778 50.483 209.1 50.4141 209.444 50.4141C209.674 50.4141 209.869 50.437 210.041 50.483C210.213 50.5289 210.374 50.5863 210.5 50.6437C210.627 50.7126 210.741 50.7814 210.822 50.8618C210.902 50.9422 210.971 51.0111 211.017 51.0685V50.5518H212.291V56.4989C212.291 57.337 212.073 57.957 211.625 58.3703C211.178 58.7836 210.477 58.9902 209.524 58.9902C209.157 58.9902 208.79 58.9328 208.434 58.8065C208.066 58.6803 207.768 58.531 207.527 58.3358L208.124 57.2681C208.124 57.2681 208.262 57.3714 208.365 57.4403C208.468 57.4977 208.583 57.5551 208.709 57.6125C208.836 57.6585 208.973 57.7044 209.111 57.7388C209.249 57.7733 209.398 57.7847 209.536 57.7847C210.007 57.7847 210.363 57.6814 210.604 57.4748C210.845 57.2681 210.971 56.9466 210.971 56.4989V55.7641L211.006 55.7297ZM208.445 53.755C208.445 54.2601 208.549 54.662 208.744 54.9375C208.939 55.213 209.237 55.3508 209.628 55.3508C209.846 55.3508 210.041 55.3164 210.213 55.236C210.386 55.1556 210.535 55.0523 210.65 54.9145C210.764 54.7768 210.856 54.6275 210.914 54.4438C210.971 54.2716 211.006 54.0764 211.006 53.8698V52.7562C211.006 52.6184 210.983 52.4806 210.925 52.3314C210.868 52.1936 210.787 52.0673 210.684 51.9525C210.569 51.8377 210.443 51.7458 210.271 51.677C210.11 51.6081 209.903 51.5621 209.674 51.5621C209.249 51.5621 208.939 51.6999 208.744 51.9869C208.537 52.274 208.445 52.6643 208.445 53.158V53.7205V53.755Z" fill="#BE9761"/>
<path d="M221.327 55.8327H221.292C221.132 56.1197 220.914 56.3263 220.604 56.4526C220.305 56.5674 219.972 56.6363 219.628 56.6363C218.881 56.6363 218.319 56.4182 217.951 55.9704C217.584 55.5227 217.4 54.8912 217.4 54.0876V53.0313C217.4 52.6295 217.458 52.2621 217.561 51.9407C217.664 51.6192 217.825 51.3437 218.032 51.1255C218.238 50.9074 218.48 50.7352 218.767 50.6089C219.054 50.4941 219.364 50.4252 219.72 50.4252C219.949 50.4252 220.156 50.4482 220.328 50.4941C220.5 50.54 220.649 50.5859 220.776 50.6548C220.902 50.7122 220.994 50.7811 221.074 50.8615C221.155 50.9418 221.212 51.0107 221.246 51.0681V48.3242H222.578V56.5559H221.315V55.8441L221.327 55.8327ZM218.709 53.858C218.709 54.3631 218.813 54.7649 219.008 55.0405C219.214 55.316 219.501 55.4538 219.892 55.4538C220.11 55.4538 220.305 55.4194 220.477 55.339C220.649 55.2586 220.799 55.1553 220.914 55.029C221.028 54.8912 221.12 54.742 221.189 54.5583C221.246 54.3861 221.281 54.1909 221.281 53.9842V52.7673C221.281 52.6295 221.258 52.4917 221.201 52.3425C221.143 52.2047 221.063 52.0784 220.959 51.9636C220.845 51.8488 220.718 51.757 220.546 51.6881C220.385 51.6192 220.179 51.5733 219.949 51.5733C219.524 51.5733 219.214 51.7111 219.019 51.9981C218.813 52.2851 218.721 52.6754 218.721 53.1691V53.8465L218.709 53.858Z" fill="#BE9761"/>
<path d="M229.811 56.6244C229.191 56.6244 228.697 56.4752 228.353 56.1882C228.008 55.8897 227.836 55.4878 227.836 54.9482V54.6038C227.836 54.3627 227.87 54.1331 227.951 53.9265C228.031 53.7198 228.146 53.5361 228.318 53.3869C228.49 53.2376 228.72 53.1113 228.995 53.0309C229.271 52.9391 229.615 52.9046 230.029 52.9046H231.361V52.675C231.361 52.3076 231.28 52.0321 231.108 51.8714C230.947 51.7106 230.683 51.6303 230.316 51.6303C229.707 51.6303 229.168 51.8255 228.674 52.2273L228.02 51.2285C228.318 51.0218 228.651 50.8266 229.018 50.6659C229.386 50.5052 229.822 50.4248 230.327 50.4248C230.66 50.4248 230.982 50.4707 231.269 50.5511C231.556 50.6429 231.808 50.7578 232.015 50.93C232.222 51.0907 232.382 51.2973 232.497 51.527C232.612 51.768 232.669 52.0321 232.669 52.3421V56.5555H231.475L231.452 55.8093C231.395 55.9356 231.303 56.0619 231.188 56.1652C231.062 56.2685 230.924 56.3604 230.775 56.4293C230.626 56.4981 230.454 56.5555 230.293 56.59C230.121 56.6244 229.96 56.6474 229.811 56.6474V56.6244ZM231.361 53.9609H230.063C229.707 53.9609 229.466 54.0298 229.328 54.1675C229.191 54.3053 229.122 54.489 229.122 54.7186V54.8449C229.122 55.0401 229.191 55.1893 229.317 55.3041C229.455 55.419 229.65 55.4649 229.902 55.4649C230.442 55.4649 230.844 55.3271 231.108 55.063C231.223 54.9368 231.303 54.8105 231.315 54.6612C231.338 54.5235 231.349 54.3397 231.349 54.1101V53.9494L231.361 53.9609Z" fill="#BE9761"/>
<path d="M242.635 50.4141C242.899 50.4141 243.151 50.46 243.404 50.5518C243.645 50.6437 243.863 50.7815 244.047 50.9766C244.231 51.1603 244.38 51.4014 244.483 51.6884C244.598 51.9755 244.644 52.2969 244.644 52.6758V56.5448H243.312V52.9628C243.312 52.6987 243.289 52.4691 243.232 52.2969C243.174 52.1247 243.094 51.9869 243.002 51.8836C242.899 51.7803 242.795 51.7229 242.669 51.677C242.543 51.6425 242.405 51.6195 242.267 51.6195C242.141 51.6195 242.015 51.6425 241.877 51.677C241.739 51.7114 241.636 51.7918 241.533 51.8836C241.429 51.9869 241.349 52.1132 241.291 52.2854C241.223 52.4577 241.2 52.6643 241.2 52.9054V56.5333H239.868V52.9284C239.868 52.6758 239.845 52.4691 239.787 52.2969C239.73 52.1247 239.661 51.9984 239.558 51.8951C239.466 51.7918 239.351 51.7229 239.225 51.6884C239.099 51.654 238.961 51.631 238.812 51.631C238.49 51.631 238.238 51.7344 238.042 51.941C237.847 52.1477 237.744 52.4576 237.744 52.871V56.5448H236.412V50.5518H237.664V51.3096H237.686C237.824 51.034 238.031 50.8159 238.306 50.6552C238.582 50.4944 238.903 50.4141 239.282 50.4141C239.638 50.4141 239.96 50.4944 240.247 50.6666C240.534 50.8389 240.729 51.057 240.832 51.3325C241.039 51.0225 241.28 50.8044 241.556 50.6437C241.831 50.4944 242.198 50.4141 242.635 50.4141Z" fill="#BE9761"/>
</svg>
