<svg width="221" height="171" viewBox="0 0 221 171" fill="none" xmlns="http://www.w3.org/2000/svg">
<path d="M8.25495 133.509V136.01H2.87387V144.648H3.53784C4.46937 144.648 5.41081 144.629 6.36216 144.579C7.31351 144.53 8.26486 144.431 9.23603 144.283L9.53333 146.754C8.6018 146.922 7.61081 147.03 6.56036 147.07C5.50991 147.119 4.4991 147.139 3.53784 147.139H0V133.499H8.24504L8.25495 133.509ZM13.2595 138.758H15.1423V131.493H17.927V152.802H15.1423V141.248H13.2595V151.765H10.4748V131.918H13.2595V138.748V138.758Z" fill="#BD945D"/>
<path d="M19.9884 146.141C21.138 145.449 22.1191 144.846 22.9317 144.302C23.7443 143.769 24.4182 143.274 24.9632 142.82C25.5082 142.365 25.9344 141.94 26.2515 141.535C26.5686 141.13 26.8064 140.724 26.965 140.309C27.1236 139.894 27.2326 139.459 27.2722 139.005C27.3218 138.55 27.3416 138.036 27.3416 137.473V135.891H20.3749V133.391H30.2551V137.611C30.2551 138.372 30.2155 139.074 30.1362 139.697C30.0569 140.319 29.9082 140.912 29.6902 141.446C29.4722 141.99 29.1551 142.513 28.7488 143.017C28.3425 143.522 27.8173 144.045 27.1731 144.589C26.529 145.133 25.7461 145.716 24.8146 146.329C23.883 146.951 22.7929 147.643 21.5146 148.424L19.9785 146.131L19.9884 146.141ZM37.0434 152.802H34.12V131.493H37.0434V152.802Z" fill="#BD945D"/>
<path d="M52.0767 142.266C52.3244 141.199 52.483 140.181 52.5722 139.202C52.6515 138.234 52.701 137.216 52.701 136.168V135.229H41.2353V132.729H55.5947V135.644C55.5947 136.84 55.5452 138.006 55.4461 139.163C55.347 140.319 55.1983 141.347 55.0001 142.266H58.3992V144.717H50.0551V152.812H47.1416V144.717H38.8271V142.266H52.0866H52.0767Z" fill="#BD945D"/>
<path d="M59.2414 139.44H61.2828V134.606H59.3801V132.313H71.2621V134.606H69.4188V139.232C69.8152 139.202 70.2116 139.173 70.5981 139.153C70.9846 139.133 71.4008 139.104 71.8269 139.074L72.0152 141.298C71.1134 141.377 70.1224 141.446 69.0522 141.505C67.9819 141.565 66.8819 141.614 65.7522 141.644C64.6224 141.673 63.5026 141.693 62.3828 141.713C61.263 141.733 60.2125 141.733 59.2314 141.733V139.44H59.2414ZM76.3359 143.136V149.145H65.7423V150.727H76.9801V153.02H62.9377V146.971H73.5314V145.409H62.8188V143.136H76.3359ZM66.6143 139.351V134.606H64.0873V139.42L66.6143 139.351ZM76.3359 142.167H73.4423V131.483H76.3359V142.167Z" fill="#BD945D"/>
<path d="M82.3112 145.261H84.2437C85.304 145.261 86.3941 145.231 87.5338 145.162C88.6635 145.093 89.7734 144.994 90.8437 144.856L91.1608 147.287C90.0707 147.455 88.8815 147.574 87.6031 147.633C86.3148 147.692 84.9671 147.722 83.5599 147.722H79.4473V139.084H86.295V135.595H79.4473V133.144H89.1689V141.436H82.3211V145.261H82.3112ZM95.2932 139.074H98.2365V141.594H95.2932V152.802H92.3698V131.493H95.2932V139.084V139.074Z" fill="#BD945D"/>
<path d="M98.792 133.322H107.087V135.773H101.596V138.955H106.056V141.357H101.596V144.846H102.587C103.46 144.846 104.381 144.816 105.342 144.767C106.304 144.717 107.275 144.619 108.236 144.48L108.514 146.912C107.622 147.06 106.611 147.169 105.481 147.218C104.351 147.267 103.182 147.297 101.993 147.297H98.8019V133.322H98.792ZM109.633 141.278H107.196V138.777H109.633V131.928H112.388V151.774H109.633V141.278ZM116.739 152.802H113.984V131.493H116.739V152.802Z" fill="#BD945D"/>
<path d="M137.44 147.673V150.124H117.858V147.673H137.44ZM127.719 139.944C127.6 140.201 127.342 140.487 126.946 140.784C126.549 141.08 126.064 141.426 125.489 141.831C124.865 142.246 124.131 142.701 123.309 143.195C122.486 143.69 121.515 144.253 120.415 144.876L118.988 142.583C119.83 142.108 120.683 141.614 121.535 141.1C122.387 140.586 123.16 140.102 123.834 139.647C124.29 139.341 124.676 139.034 124.974 138.728C125.271 138.421 125.509 138.095 125.687 137.749C125.866 137.403 125.985 137.038 126.064 136.642C126.143 136.247 126.183 135.792 126.183 135.288V132.926H129.126V135.288C129.126 135.792 129.166 136.247 129.235 136.642C129.314 137.038 129.433 137.413 129.612 137.749C129.79 138.095 130.028 138.421 130.325 138.728C130.622 139.034 130.999 139.341 131.465 139.647C132.139 140.102 132.902 140.586 133.764 141.1C134.616 141.614 135.468 142.108 136.311 142.583L134.913 144.826C133.813 144.203 132.842 143.64 132.02 143.136C131.187 142.642 130.464 142.187 129.839 141.772C129.255 141.377 128.789 141.031 128.452 140.754C128.115 140.477 127.877 140.201 127.748 139.944H127.729H127.719Z" fill="#BD945D"/>
<path d="M146.29 153.494C146.003 153.198 145.507 152.397 145.27 151.893C150.651 148.562 157.419 142.652 160.828 138.214H153.931C152.573 138.214 151.592 138.471 150.522 138.847C149.491 138.382 148.223 137.661 147.44 136.988C147.321 136.86 147.232 136.781 147.232 136.613C147.232 136.405 147.638 135.595 147.846 135.308C149.402 135.605 151.215 135.644 152.811 135.644H155.318V133.658C155.318 132.689 154.664 132.185 153.267 131.839C153.346 131.374 153.515 130.87 153.673 130.574C153.792 130.366 153.961 130.317 154.129 130.317C154.743 130.317 156.884 130.693 157.865 130.989C158.361 131.157 158.479 131.246 158.479 131.582V135.634H160.372C161.809 135.634 163.415 135.466 164.267 135.466C165.258 135.466 165.783 136.82 165.129 137.789C164.019 139.479 162.087 141.584 159.837 143.779C162.632 145.894 165.377 147.87 168.171 149.897C168.498 150.104 168.419 150.401 168.251 150.618C167.844 151.172 166.943 152.091 166.199 152.605C163.494 150.203 160.739 147.959 157.905 145.558C154.496 148.641 150.522 151.676 147.232 153.573C146.825 153.83 146.538 153.741 146.29 153.484V153.494ZM155.943 162.024C155.943 158.011 159.47 154.008 165.426 154.008C171.382 154.008 174.91 158.021 174.91 162.024C174.91 166.027 171.382 170.04 165.426 170.04C159.47 170.04 155.943 166.027 155.943 162.024ZM171.58 162.024C171.58 159.365 169.321 156.835 165.426 156.835C161.532 156.835 159.272 159.365 159.272 162.024C159.272 164.683 161.532 167.213 165.426 167.213C169.321 167.213 171.58 164.683 171.58 162.024ZM172.522 144.757H165.704C165.456 143.956 165.208 142.77 165.208 142.266C165.208 141.762 165.416 141.673 165.991 141.673C166.397 141.673 169.024 141.97 170.629 141.97H172.522V133.49C172.522 132.857 172.314 132.689 171.828 132.304C171.333 131.928 170.143 131.414 168.994 131.167C169.113 130.663 169.361 129.981 169.529 129.734C169.648 129.526 169.816 129.477 169.985 129.477C171.263 129.477 174.048 130.02 175.237 130.485C175.693 130.653 175.852 130.821 175.852 131.157V148.167C175.852 149.936 175.564 152.941 175.396 154.374C175.356 154.749 175.277 155.006 174.95 155.095C174.494 155.224 173.265 155.263 172.532 155.135V144.747L172.522 144.757Z" fill="#BD945D"/>
<path d="M209.466 147.673C202.568 149.402 193.045 150.885 187.832 150.885C186.108 150.885 185.533 149.995 185.533 148.305V137.799C185.533 136.662 184.631 136.109 183.521 135.862C183.561 135.486 183.73 134.093 184.265 134.093C185.246 134.093 187.386 134.389 188.457 134.389H197.326C198.476 134.389 201.429 134.053 201.885 134.053C202.38 134.053 202.578 134.142 202.578 134.557C202.578 135.022 202.37 136.544 202.122 137.255H188.863V147.89C193.907 147.89 203.52 146.665 209.466 145.143V133.49C209.466 132.857 209.258 132.689 208.772 132.304C208.276 131.928 207.087 131.414 205.938 131.167C206.057 130.663 206.304 129.981 206.473 129.734C206.592 129.526 206.76 129.477 206.929 129.477C208.197 129.477 210.992 130.02 212.181 130.485C212.627 130.653 212.795 130.821 212.795 131.157V140.398H214.688C216.284 140.398 218.92 139.973 219.326 139.973C219.901 139.973 220.109 140.062 220.109 140.566C220.109 141.07 219.861 142.256 219.613 143.057H212.795V146.22C212.795 147.989 212.508 150.994 212.34 152.427C212.3 152.802 212.221 153.059 211.884 153.148C211.428 153.277 210.199 153.316 209.466 153.188V147.663V147.673ZM192.262 166.669V158.822C192.262 157.685 191.36 157.131 190.25 156.884C190.29 156.509 190.458 155.115 190.984 155.115C191.975 155.115 194.105 155.412 195.176 155.412H206.631C207.652 155.412 210.328 155.244 211.349 155.244C212.003 155.244 212.379 155.54 212.379 156.38V167.648C212.379 168.705 211.765 168.952 211.15 168.952H194.076C192.966 168.952 192.272 168.28 192.272 166.669H192.262ZM209.099 166.165V158.189H195.552V166.165H209.099Z" fill="#BD945D"/>
<path d="M0 161.115H2.47748C2.87387 161.115 3.21081 161.164 3.48829 161.263C3.77568 161.362 4.0036 161.49 4.18198 161.668C4.36036 161.836 4.4991 162.044 4.58829 162.281C4.67748 162.518 4.71712 162.775 4.71712 163.052V163.249C4.71712 163.526 4.66757 163.783 4.57838 164.03C4.48919 164.277 4.35045 164.495 4.16216 164.673C3.97387 164.86 3.73604 164.999 3.45856 165.117C3.18108 165.226 2.84414 165.285 2.46757 165.285H1.15946V167.885H0V161.124V161.115ZM1.16937 162.113V164.258H2.32883C2.71532 164.258 3.01261 164.178 3.23063 164.03C3.44865 163.882 3.55766 163.605 3.55766 163.22V163.052C3.55766 162.864 3.52793 162.716 3.47838 162.597C3.42883 162.478 3.34955 162.38 3.25045 162.31C3.15135 162.241 3.03243 162.192 2.89369 162.162C2.75496 162.133 2.60631 162.123 2.43784 162.123H1.17928L1.16937 162.113Z" fill="#BD945D"/>
<path d="M9.39453 160.67H10.5936V161.945H9.39453V160.67ZM9.41435 162.706H10.5639V167.865H9.41435V162.706Z" fill="#BD945D"/>
<path d="M17.0449 160.788H18.1945V167.875H17.0449V160.788Z" fill="#BD945D"/>
<path d="M24.8637 167.944C24.3186 167.944 23.9024 167.816 23.6051 167.569C23.3078 167.312 23.1592 166.966 23.1592 166.501V166.205C23.1592 165.997 23.1889 165.8 23.2583 165.622C23.3177 165.444 23.4267 165.286 23.5754 165.157C23.724 165.029 23.9222 164.92 24.1601 164.851C24.4078 164.772 24.7051 164.742 25.052 164.742H26.2015V164.544C26.2015 164.228 26.1322 163.991 25.9835 163.852C25.8448 163.714 25.6168 163.645 25.2997 163.645C24.7745 163.645 24.3087 163.813 23.8826 164.159L23.3177 163.299C23.5754 163.121 23.8628 162.953 24.1799 162.815C24.497 162.676 24.8736 162.607 25.3096 162.607C25.597 162.607 25.8745 162.647 26.1222 162.716C26.37 162.795 26.588 162.894 26.7664 163.042C26.9448 163.18 27.0835 163.358 27.1826 163.556C27.2817 163.763 27.3313 163.991 27.3313 164.258V167.885H26.3006L26.2808 167.243C26.2313 167.351 26.152 167.46 26.0529 167.549C25.9439 167.638 25.8249 167.717 25.6961 167.776C25.5574 167.836 25.4186 167.885 25.2799 167.915C25.1313 167.944 24.9925 167.964 24.8637 167.964V167.944ZM26.2015 165.651H25.0817C24.7745 165.651 24.5664 165.711 24.4475 165.829C24.3285 165.948 24.2691 166.106 24.2691 166.304V166.412C24.2691 166.58 24.3285 166.709 24.4376 166.808C24.5565 166.906 24.7249 166.946 24.943 166.946C25.4087 166.946 25.7556 166.827 25.9835 166.6C26.0826 166.491 26.152 166.383 26.1619 166.254C26.1817 166.136 26.1916 165.977 26.1916 165.78V165.641L26.2015 165.651Z" fill="#BD945D"/>
<path d="M32.0088 163.684H31.2061V162.706H32.0088V161.381H33.1583V162.706H34.4268V163.684H33.1583V166.402C33.1583 166.62 33.1979 166.768 33.2871 166.837C33.3763 166.906 33.4952 166.936 33.6439 166.936C33.7628 166.936 33.8718 166.926 33.9907 166.906C34.0997 166.887 34.2286 166.847 34.3574 166.788L34.5358 167.737C34.4367 167.786 34.288 167.835 34.1097 167.885C33.9313 167.934 33.7232 167.954 33.5052 167.954C33.2178 167.954 32.9799 167.924 32.7817 167.855C32.5835 167.786 32.4349 167.687 32.316 167.559C32.197 167.43 32.1178 167.262 32.0682 167.074C32.0187 166.887 31.9988 166.669 31.9988 166.422V163.694L32.0088 163.684Z" fill="#BD945D"/>
<path d="M42.6229 167.391C42.3752 167.559 42.0977 167.697 41.7707 167.796C41.4436 167.895 41.0373 167.944 40.5716 167.944C40.2842 167.944 39.9968 167.905 39.7193 167.826C39.4418 167.746 39.204 167.618 38.986 167.43C38.768 167.242 38.5995 166.995 38.4707 166.689C38.3418 166.383 38.2725 165.997 38.2725 165.533V164.999C38.2725 164.584 38.3319 164.218 38.4508 163.912C38.5698 163.605 38.7283 163.358 38.9364 163.16C39.1445 162.963 39.3824 162.814 39.6598 162.726C39.9373 162.627 40.2346 162.587 40.5617 162.587C40.8887 162.587 41.1662 162.637 41.4436 162.726C41.7112 162.814 41.949 162.963 42.1373 163.151C42.3355 163.338 42.4842 163.576 42.5932 163.862C42.7022 164.149 42.7617 164.475 42.7617 164.851V165.701H39.4022C39.4022 166.116 39.5112 166.422 39.7193 166.63C39.9274 166.837 40.2346 166.946 40.6409 166.946C40.9382 166.946 41.2058 166.916 41.4337 166.847C41.6617 166.778 41.9094 166.669 42.1671 166.521L42.6427 167.371L42.6229 167.391ZM41.6418 164.821V164.594C41.6418 164.455 41.622 164.327 41.5824 164.198C41.5427 164.07 41.4734 163.961 41.3842 163.872C41.295 163.783 41.1761 163.704 41.0373 163.645C40.8986 163.585 40.7301 163.556 40.5319 163.556C40.1454 163.556 39.858 163.655 39.6698 163.862C39.4815 164.07 39.3824 164.317 39.3824 164.613V164.811H41.6418V164.821Z" fill="#BD945D"/>
<path d="M48.1618 166.946C48.4195 166.946 48.6276 166.906 48.7862 166.837C48.9447 166.768 49.0141 166.63 49.0141 166.432V166.373C49.0141 166.284 49.0042 166.214 48.9844 166.155C48.9645 166.096 48.915 166.046 48.8456 165.997C48.7763 165.958 48.6673 165.908 48.5285 165.878C48.3898 165.839 48.2015 165.799 47.9637 165.75C47.6564 165.691 47.3988 165.612 47.1808 165.533C46.9627 165.444 46.7844 165.345 46.6555 165.216C46.5168 165.088 46.4177 164.939 46.3582 164.762C46.2988 164.584 46.2591 164.376 46.2591 164.139V164.04C46.2591 163.862 46.2988 163.694 46.3682 163.516C46.4375 163.338 46.5465 163.19 46.7051 163.052C46.8636 162.913 47.0618 162.805 47.3096 162.716C47.5573 162.627 47.8546 162.587 48.2114 162.587C48.4988 162.587 48.8159 162.617 49.133 162.676C49.46 162.735 49.7673 162.864 50.0546 163.062L49.5591 163.912C49.3907 163.793 49.2024 163.704 48.9943 163.655C48.7862 163.605 48.5682 163.576 48.3501 163.576C47.9934 163.576 47.7456 163.615 47.6168 163.704C47.4781 163.793 47.4186 163.902 47.4186 164.04V164.099C47.4186 164.198 47.4285 164.267 47.4582 164.327C47.4781 164.386 47.5276 164.435 47.597 164.475C47.6664 164.514 47.7555 164.554 47.8844 164.584C48.0033 164.613 48.1618 164.653 48.36 164.683C48.6772 164.752 48.9546 164.821 49.1826 164.9C49.4204 164.979 49.6087 165.078 49.7573 165.196C49.906 165.315 50.015 165.473 50.0943 165.651C50.1636 165.839 50.2033 166.066 50.2033 166.343V166.442C50.2033 166.639 50.1636 166.837 50.0745 167.015C49.9853 167.193 49.8564 167.361 49.688 167.489C49.5195 167.628 49.3114 167.737 49.0636 167.816C48.8159 167.895 48.5285 167.934 48.2114 167.934C47.7952 167.934 47.3988 167.875 47.0222 167.766C46.6456 167.658 46.3384 167.499 46.1006 167.302L46.606 166.402C46.8339 166.56 47.0718 166.689 47.3294 166.788C47.5871 166.887 47.8745 166.936 48.1817 166.936L48.1618 166.946Z" fill="#BD945D"/>
<path d="M60.9264 161.016C61.3922 161.016 61.7985 161.075 62.1552 161.184C62.512 161.292 62.8588 161.49 63.1859 161.767L62.5615 162.686C62.294 162.459 62.0264 162.301 61.7687 162.231C61.5111 162.162 61.2237 162.123 60.9264 162.123C60.7282 162.123 60.5399 162.152 60.3516 162.212C60.1633 162.271 59.9949 162.38 59.8462 162.538C59.6976 162.696 59.5786 162.904 59.4895 163.18C59.4003 163.447 59.3507 163.793 59.3507 164.208V164.9C59.3507 165.256 59.3904 165.562 59.4796 165.809C59.5687 166.056 59.6777 166.264 59.8264 166.422C59.9651 166.58 60.1336 166.689 60.3219 166.768C60.5102 166.837 60.7084 166.877 60.9165 166.877C61.2237 166.877 61.5309 166.827 61.848 166.729C62.1651 166.63 62.4525 166.442 62.7201 166.175L63.3444 167.094C63.1462 167.292 62.948 167.45 62.73 167.569C62.512 167.687 62.3039 167.776 62.0859 167.836C61.8778 167.905 61.6597 167.944 61.4615 167.964C61.2534 167.984 61.0651 167.994 60.8768 167.994C60.5201 167.994 60.1732 167.944 59.8561 167.836C59.5291 167.727 59.2417 167.559 59.0039 167.331C58.7561 167.104 58.5579 166.808 58.4192 166.452C58.2705 166.096 58.2012 165.661 58.2012 165.157V163.951C58.2012 163.447 58.2705 163.012 58.4192 162.647C58.5579 162.281 58.7561 161.974 59.0039 161.737C59.2516 161.5 59.539 161.322 59.8759 161.204C60.203 161.095 60.5597 161.036 60.9462 161.036L60.9264 161.016Z" fill="#BD945D"/>
<path d="M70.0435 162.597C70.2714 162.597 70.4895 162.637 70.6976 162.696C70.9057 162.765 71.094 162.874 71.2624 163.032C71.4309 163.18 71.5597 163.388 71.6588 163.625C71.7579 163.872 71.8075 164.159 71.8075 164.505V167.865H70.6579V164.752C70.6579 164.001 70.3408 163.615 69.6967 163.615C69.6075 163.615 69.4985 163.625 69.3696 163.655C69.2408 163.684 69.1219 163.744 69.0129 163.823C68.9039 163.912 68.8048 164.03 68.7255 164.188C68.6462 164.347 68.6066 164.554 68.6066 164.811V167.865H67.457V160.779H68.5372V163.289H68.557C68.7354 163.032 68.9534 162.844 69.2111 162.745C69.4687 162.647 69.7462 162.587 70.0435 162.587V162.597Z" fill="#BD945D"/>
<path d="M80.5975 167.391C80.3498 167.559 80.0723 167.697 79.7453 167.796C79.4182 167.895 79.0119 167.944 78.5462 167.944C78.2588 167.944 77.9714 167.905 77.6939 167.826C77.4164 167.746 77.1786 167.618 76.9606 167.43C76.7426 167.242 76.5741 166.995 76.4453 166.689C76.3164 166.383 76.2471 165.997 76.2471 165.533V164.999C76.2471 164.584 76.3065 164.218 76.4254 163.912C76.5444 163.605 76.7029 163.358 76.911 163.16C77.1191 162.963 77.357 162.814 77.6345 162.726C77.9119 162.627 78.2092 162.587 78.5363 162.587C78.8633 162.587 79.1408 162.637 79.4182 162.726C79.6858 162.814 79.9236 162.963 80.1119 163.151C80.3101 163.338 80.4588 163.576 80.5678 163.862C80.6768 164.149 80.7363 164.475 80.7363 164.851V165.701H77.3768C77.3768 166.116 77.4858 166.422 77.6939 166.63C77.902 166.837 78.2092 166.946 78.6155 166.946C78.9128 166.946 79.1804 166.916 79.4083 166.847C79.6363 166.778 79.884 166.669 80.1417 166.521L80.6173 167.371L80.5975 167.391ZM79.6263 164.821V164.594C79.6263 164.455 79.6065 164.327 79.5669 164.198C79.5272 164.07 79.4579 163.961 79.3687 163.872C79.2795 163.783 79.1606 163.704 79.0218 163.645C78.8831 163.585 78.7146 163.556 78.5164 163.556C78.13 163.556 77.8426 163.655 77.6543 163.862C77.466 164.07 77.3669 164.317 77.3669 164.613V164.811H79.6263V164.821Z" fill="#BD945D"/>
<path d="M87.3457 167.944C86.989 167.944 86.6619 167.895 86.3746 167.786C86.0872 167.677 85.8394 167.529 85.6412 167.331C85.4331 167.134 85.2845 166.887 85.1655 166.59C85.0565 166.294 84.9971 165.958 84.9971 165.582V164.969C84.9971 164.584 85.0565 164.248 85.1655 163.961C85.2746 163.665 85.4331 163.418 85.6412 163.22C85.8394 163.022 86.0872 162.864 86.3746 162.765C86.6619 162.656 86.989 162.607 87.3457 162.607C87.7025 162.607 88.0196 162.656 88.307 162.765C88.5944 162.874 88.8421 163.022 89.0502 163.22C89.2583 163.418 89.407 163.665 89.5259 163.961C89.6349 164.258 89.6944 164.594 89.6944 164.969V165.582C89.6944 165.958 89.6349 166.294 89.5259 166.59C89.4169 166.887 89.2583 167.134 89.0502 167.331C88.8421 167.529 88.6043 167.687 88.307 167.786C88.0196 167.895 87.6926 167.944 87.3457 167.944ZM87.3457 166.916C87.5142 166.916 87.6728 166.887 87.8214 166.837C87.97 166.788 88.089 166.709 88.198 166.6C88.307 166.491 88.3863 166.353 88.4457 166.175C88.5052 165.997 88.5349 165.79 88.5349 165.543V164.969C88.5349 164.475 88.4259 164.129 88.2079 163.922C87.9899 163.714 87.7025 163.615 87.3358 163.615C86.9691 163.615 86.6818 163.714 86.4637 163.922C86.2457 164.129 86.1367 164.475 86.1367 164.969V165.543C86.1367 165.79 86.1664 165.997 86.2259 166.175C86.2854 166.353 86.3746 166.491 86.4737 166.6C86.5827 166.709 86.7016 166.788 86.8502 166.837C86.9989 166.887 87.1574 166.916 87.3259 166.916H87.3457Z" fill="#BD945D"/>
<path d="M96.6314 162.597C96.8593 162.597 97.0774 162.637 97.2855 162.696C97.4936 162.765 97.6819 162.874 97.8503 163.032C98.0188 163.18 98.1476 163.388 98.2467 163.625C98.3458 163.872 98.3954 164.159 98.3954 164.505V167.865H97.2458V164.752C97.2458 164.001 96.9287 163.615 96.2846 163.615C96.1954 163.615 96.0864 163.625 95.9575 163.655C95.8287 163.684 95.7098 163.744 95.6008 163.823C95.4918 163.912 95.3927 164.03 95.3134 164.188C95.2341 164.346 95.1945 164.554 95.1945 164.811V167.865H94.0449V162.706H95.1251V163.299H95.1449C95.3233 163.042 95.5413 162.854 95.799 162.755C96.0566 162.656 96.3341 162.597 96.6314 162.597Z" fill="#BD945D"/>
<path d="M106.175 167.173H106.155C106.026 167.42 105.828 167.598 105.58 167.697C105.332 167.796 105.055 167.845 104.748 167.845C104.104 167.845 103.618 167.648 103.301 167.272C102.984 166.887 102.825 166.343 102.825 165.651V164.841C102.825 164.495 102.875 164.188 102.964 163.912C103.063 163.635 103.192 163.398 103.37 163.2C103.549 163.002 103.757 162.854 104.004 162.755C104.252 162.656 104.53 162.597 104.827 162.597C105.025 162.597 105.194 162.617 105.342 162.656C105.491 162.696 105.63 162.745 105.739 162.795C105.848 162.854 105.947 162.913 106.016 162.983C106.086 163.052 106.145 163.111 106.185 163.16V162.716H107.285V167.835C107.285 168.557 107.096 169.091 106.71 169.446C106.323 169.802 105.719 169.98 104.896 169.98C104.579 169.98 104.262 169.931 103.955 169.822C103.638 169.713 103.38 169.585 103.172 169.417L103.687 168.498C103.687 168.498 103.806 168.587 103.895 168.646C103.985 168.695 104.084 168.745 104.193 168.794C104.302 168.834 104.421 168.873 104.54 168.903C104.659 168.933 104.787 168.942 104.906 168.942C105.313 168.942 105.62 168.853 105.828 168.676C106.036 168.498 106.145 168.221 106.145 167.835V167.203L106.175 167.173ZM103.965 165.473C103.965 165.908 104.054 166.254 104.222 166.491C104.391 166.728 104.649 166.847 104.986 166.847C105.174 166.847 105.342 166.817 105.491 166.748C105.64 166.679 105.768 166.59 105.868 166.471C105.967 166.353 106.046 166.224 106.095 166.066C106.145 165.918 106.175 165.75 106.175 165.572V164.613C106.175 164.495 106.155 164.376 106.105 164.248C106.056 164.129 105.986 164.02 105.897 163.921C105.798 163.823 105.689 163.744 105.541 163.684C105.402 163.625 105.223 163.585 105.025 163.585C104.659 163.585 104.391 163.704 104.222 163.951C104.044 164.198 103.965 164.534 103.965 164.959V165.444V165.473Z" fill="#BD945D"/>
<path d="M115.084 167.262H115.054C114.915 167.509 114.727 167.687 114.459 167.796C114.202 167.895 113.914 167.954 113.617 167.954C112.973 167.954 112.487 167.766 112.17 167.381C111.853 166.995 111.694 166.452 111.694 165.76V164.851C111.694 164.505 111.744 164.188 111.833 163.912C111.922 163.635 112.061 163.398 112.239 163.21C112.418 163.022 112.626 162.874 112.874 162.765C113.121 162.666 113.389 162.607 113.696 162.607C113.894 162.607 114.073 162.627 114.221 162.666C114.37 162.706 114.499 162.745 114.608 162.805C114.717 162.854 114.796 162.913 114.866 162.983C114.935 163.052 114.984 163.111 115.014 163.16V160.798H116.164V167.885H115.074V167.272L115.084 167.262ZM112.824 165.562C112.824 165.997 112.913 166.343 113.082 166.58C113.26 166.817 113.508 166.936 113.845 166.936C114.033 166.936 114.202 166.906 114.35 166.837C114.499 166.768 114.628 166.679 114.727 166.57C114.826 166.452 114.905 166.323 114.965 166.165C115.014 166.017 115.044 165.849 115.044 165.671V164.623C115.044 164.505 115.024 164.386 114.975 164.258C114.925 164.139 114.856 164.03 114.766 163.931C114.667 163.833 114.558 163.753 114.41 163.694C114.271 163.635 114.093 163.595 113.894 163.595C113.528 163.595 113.26 163.714 113.092 163.961C112.913 164.208 112.834 164.544 112.834 164.969V165.552L112.824 165.562Z" fill="#BD945D"/>
<path d="M122.407 167.944C121.872 167.944 121.445 167.816 121.148 167.569C120.851 167.312 120.702 166.966 120.702 166.501V166.205C120.702 165.997 120.732 165.8 120.801 165.622C120.871 165.444 120.97 165.286 121.118 165.157C121.267 165.029 121.465 164.92 121.703 164.851C121.941 164.772 122.238 164.742 122.595 164.742H123.744V164.544C123.744 164.228 123.675 163.991 123.526 163.852C123.388 163.714 123.16 163.645 122.843 163.645C122.317 163.645 121.852 163.813 121.426 164.159L120.861 163.299C121.118 163.121 121.406 162.953 121.723 162.815C122.04 162.676 122.417 162.607 122.853 162.607C123.14 162.607 123.417 162.647 123.665 162.716C123.913 162.795 124.131 162.894 124.309 163.042C124.488 163.18 124.626 163.358 124.726 163.556C124.825 163.763 124.874 163.991 124.874 164.258V167.885H123.844L123.824 167.243C123.774 167.351 123.695 167.46 123.596 167.549C123.487 167.638 123.368 167.717 123.239 167.776C123.11 167.836 122.962 167.885 122.823 167.915C122.674 167.944 122.535 167.964 122.407 167.964V167.944ZM123.744 165.651H122.625C122.317 165.651 122.109 165.711 121.99 165.829C121.872 165.948 121.812 166.106 121.812 166.304V166.412C121.812 166.58 121.872 166.709 121.981 166.808C122.099 166.906 122.268 166.946 122.486 166.946C122.952 166.946 123.299 166.827 123.526 166.6C123.626 166.491 123.695 166.383 123.705 166.254C123.725 166.136 123.735 165.977 123.735 165.78V165.641L123.744 165.651Z" fill="#BD945D"/>
<path d="M133.477 162.597C133.705 162.597 133.923 162.637 134.141 162.716C134.349 162.795 134.537 162.913 134.696 163.081C134.854 163.239 134.983 163.447 135.072 163.694C135.171 163.941 135.211 164.218 135.211 164.544V167.875H134.061V164.791C134.061 164.564 134.042 164.366 133.992 164.218C133.942 164.07 133.873 163.951 133.794 163.862C133.705 163.773 133.615 163.724 133.506 163.684C133.397 163.655 133.278 163.635 133.16 163.635C133.051 163.635 132.941 163.655 132.823 163.684C132.704 163.714 132.614 163.783 132.525 163.862C132.436 163.951 132.367 164.06 132.317 164.208C132.258 164.356 132.238 164.534 132.238 164.742V167.865H131.088V164.762C131.088 164.544 131.069 164.366 131.019 164.218C130.969 164.07 130.91 163.961 130.821 163.872C130.741 163.783 130.642 163.724 130.533 163.694C130.424 163.664 130.305 163.645 130.177 163.645C129.899 163.645 129.681 163.734 129.513 163.912C129.344 164.089 129.255 164.356 129.255 164.712V167.875H128.105V162.716H129.186V163.368H129.205C129.324 163.131 129.503 162.943 129.741 162.805C129.978 162.666 130.256 162.597 130.583 162.597C130.89 162.597 131.168 162.666 131.415 162.814C131.663 162.963 131.832 163.151 131.921 163.388C132.099 163.121 132.307 162.933 132.545 162.795C132.783 162.666 133.1 162.597 133.477 162.597Z" fill="#BD945D"/>
<path d="M159.193 42.6087C154.248 35.1959 147.063 29.9279 138.521 27.2593C131.514 25.1738 124.32 25.3122 116.65 25.4605C114.816 25.5395 112.963 25.5395 111.08 25.5395H108.563V70.6093C107.612 70.6884 106.68 70.6884 105.729 70.6884C98.5045 70.8169 91.4189 70.8959 85.1162 68.9488C77.6144 66.636 71.5694 62.1686 67.1099 55.6849C62.4919 48.7663 60.9856 38.8924 63.0964 29.7203C65.8117 17.9686 76.1477 8.45058 88.7432 6.0686C93.1432 5.2186 98.7126 5.06046 104.064 5.06046H113.568V0H104.064C98.8216 0 92.8558 0.0790698 87.7919 1.07733C73.264 3.80523 61.3324 14.9145 58.1513 28.5541C55.7135 39.0703 57.5766 50.4663 62.9676 58.4622C67.9027 65.8157 75.1072 71.232 83.6793 73.8314C88.9018 75.4227 94.3126 75.7785 99.882 75.7785C101.745 75.7785 113.607 75.6302 113.607 75.6302V30.4913C114.697 30.4913 115.708 30.4913 116.788 30.4122C123.983 30.2837 130.771 30.1256 137.024 32.0826C144.556 34.4744 150.591 38.8628 155.041 45.4256C159.678 52.2651 161.175 62.139 159.024 71.3901C156.329 83.1419 146.032 92.65 133.407 95.1209C128.987 95.9017 123.497 95.9709 118.116 95.9709H108.613V101.091H118.116C123.359 101.091 129.324 101.031 134.349 100.083C148.877 97.1965 160.808 86.2453 163.999 72.5465C166.457 62.0895 164.574 50.5453 159.173 42.5988L159.193 42.6087Z" fill="#BD945D"/>
</svg>
