<svg width="578" height="96" viewBox="0 0 578 96" fill="none" xmlns="http://www.w3.org/2000/svg">
<path d="M90.9187 32.264H93.7987V64.808H90.9187V32.264ZM85.4107 45.296H91.6747V47.78H85.4107V45.296ZM83.5387 32.984H86.3467V63.152H83.5387V32.984ZM67.3387 54.296H69.4627C74.2147 54.296 77.4547 54.116 81.2347 53.324L81.5227 55.808C77.6347 56.636 74.3587 56.78 69.4627 56.78H67.3387V54.296ZM67.3387 36.224H79.4347V38.672H70.2907V55.412H67.3387V36.224ZM122.992 32.264H125.98V64.808H122.992V32.264ZM113.452 35.756H116.404C116.404 45.188 112.156 53.432 101.284 58.76L99.6999 56.348C109.096 51.812 113.452 44.9 113.452 36.26V35.756ZM101.176 35.756H114.748V38.204H101.176V35.756ZM136.093 34.388H156.433V36.8H136.093V34.388ZM132.421 48.356H161.833V50.804H132.421V48.356ZM145.561 49.976H148.549V64.844H145.561V49.976ZM155.029 34.388H157.945V37.196C157.945 40.58 157.945 44.396 156.721 49.904L153.769 49.508C155.029 44.252 155.029 40.472 155.029 37.196V34.388ZM189.226 32.264H192.25V49.112H189.226V32.264ZM171.01 50.696H192.25V58.544H174.034V63.44H171.118V56.312H189.262V53.072H171.01V50.696ZM171.118 62.072H193.438V64.448H171.118V62.072ZM166.978 34.46H184.438V36.836H166.978V34.46ZM166.402 48.032L166.078 45.548C171.874 45.548 179.65 45.404 185.986 44.612L186.166 46.808C179.686 47.78 172.126 47.996 166.402 48.032ZM170.182 35.54H173.062V46.628H170.182V35.54ZM178.318 35.54H181.234V46.628H178.318V35.54ZM220.687 32.228H223.675V64.844H220.687V32.228ZM222.955 45.188H229.003V47.708H222.955V45.188ZM199.951 54.512H202.543C208.663 54.512 212.911 54.296 217.843 53.36L218.167 55.844C213.091 56.744 208.771 56.996 202.543 56.996H199.951V54.512ZM199.879 35.288H214.603V46.952H202.903V55.52H199.951V44.504H211.651V37.736H199.879V35.288ZM245.273 44.576H251.393V47.06H245.273V44.576ZM232.961 54.548H235.049C240.053 54.548 243.041 54.44 246.641 53.72L246.929 56.168C243.221 56.888 240.125 56.996 235.049 56.996H232.961V54.548ZM232.961 36.188H245.021V38.6H235.805V55.376H232.961V36.188ZM234.941 44.972H243.545V47.348H234.941V44.972ZM256.505 32.264H259.385V64.808H256.505V32.264ZM249.953 33.02H252.797V63.152H249.953V33.02ZM277.922 34.496H280.514V36.98C280.514 44.072 273.926 49.58 267.41 51.056L266.078 48.572C271.802 47.492 277.922 42.524 277.922 36.98V34.496ZM278.462 34.496H281.054V36.98C281.054 42.56 287.21 47.492 292.898 48.572L291.566 51.056C285.086 49.58 278.462 44.108 278.462 36.98V34.496ZM264.89 57.968H294.374V60.416H264.89V57.968ZM315.459 37.808H317.907V39.212C317.907 44.864 314.307 49.616 308.871 51.452L307.431 49.112C312.219 47.564 315.459 43.604 315.459 39.212V37.808ZM315.999 37.808H318.447V39.212C318.447 43.244 321.795 46.88 326.583 48.284L325.215 50.624C319.743 48.932 315.999 44.54 315.999 39.212V37.808ZM308.259 36.188H325.611V38.6H308.259V36.188ZM315.459 32.12H318.447V37.052H315.459V32.12ZM324.639 41.516H331.983V44H324.639V41.516ZM331.119 32.264H334.107V51.956H331.119V32.264ZM323.415 52.82C330.147 52.82 334.251 55.016 334.251 58.796C334.251 62.54 330.147 64.736 323.415 64.736C316.647 64.736 312.543 62.54 312.543 58.796C312.543 55.016 316.647 52.82 323.415 52.82ZM323.415 55.16C318.483 55.16 315.531 56.492 315.531 58.796C315.531 61.064 318.483 62.396 323.415 62.396C328.311 62.396 331.299 61.064 331.299 58.796C331.299 56.492 328.311 55.16 323.415 55.16ZM362.724 32.264H365.712V50.696H362.724V32.264ZM364.884 40.22H370.536V42.668H364.884V40.22ZM341.952 46.376H344.472C351.168 46.376 354.948 46.196 359.304 45.296L359.628 47.744C355.164 48.644 351.312 48.86 344.472 48.86H341.952V46.376ZM341.952 34.424H356.28V36.872H344.904V47.78H341.952V34.424ZM345.264 52.424H365.712V64.376H345.264V52.424ZM362.796 54.836H348.18V61.928H362.796V54.836ZM397.597 54.836C404.725 54.836 408.757 56.528 408.757 59.804C408.757 63.044 404.725 64.736 397.597 64.736C390.505 64.736 386.437 63.044 386.437 59.804C386.437 56.528 390.505 54.836 397.597 54.836ZM397.597 57.068C392.413 57.068 389.497 58.004 389.497 59.804C389.497 61.568 392.413 62.54 397.597 62.54C402.817 62.54 405.697 61.568 405.697 59.804C405.697 58.004 402.817 57.068 397.597 57.068ZM384.457 35H410.629V37.34H384.457V35ZM397.633 38.636C404.329 38.636 408.145 40.256 408.145 43.28C408.145 46.34 404.329 47.924 397.633 47.924C390.901 47.924 387.121 46.34 387.121 43.28C387.121 40.256 390.901 38.636 397.633 38.636ZM397.633 40.76C392.917 40.76 390.289 41.66 390.289 43.28C390.289 44.936 392.917 45.836 397.633 45.836C402.313 45.836 404.941 44.936 404.941 43.28C404.941 41.66 402.313 40.76 397.633 40.76ZM396.157 31.796H399.109V36.476H396.157V31.796ZM382.909 50.408H412.321V52.82H382.909V50.408ZM396.157 47.06H399.109V51.596H396.157V47.06ZM416.062 58.184H445.546V60.668H416.062V58.184ZM429.238 50.408H432.226V58.904H429.238V50.408ZM419.518 34.568H422.47V40.364H439.066V34.568H442.018V51.2H419.518V34.568ZM422.47 42.776V48.752H439.066V42.776H422.47ZM463.975 36.944H473.911V39.392H463.975V36.944ZM463.975 44.432H473.911V46.916H463.975V44.432ZM458.035 34.172C462.823 34.172 466.423 37.412 466.423 41.912C466.423 46.448 462.823 49.652 458.035 49.652C453.211 49.652 449.647 46.448 449.647 41.912C449.647 37.412 453.211 34.172 458.035 34.172ZM458.035 36.728C454.867 36.728 452.527 38.852 452.527 41.912C452.527 44.972 454.867 47.096 458.035 47.096C461.203 47.096 463.579 44.972 463.579 41.912C463.579 38.852 461.203 36.728 458.035 36.728ZM472.939 32.264H475.927V51.524H472.939V32.264ZM465.235 52.28C471.931 52.28 476.071 54.584 476.071 58.508C476.071 62.468 471.931 64.736 465.235 64.736C458.503 64.736 454.363 62.468 454.363 58.508C454.363 54.584 458.503 52.28 465.235 52.28ZM465.235 54.656C460.303 54.656 457.315 56.096 457.315 58.508C457.315 60.956 460.303 62.396 465.235 62.396C470.131 62.396 473.119 60.956 473.119 58.508C473.119 56.096 470.131 54.656 465.235 54.656ZM490.18 33.956H492.664V37.268C492.664 43.532 489.136 48.716 483.7 50.84L482.116 48.428C487.012 46.628 490.18 42.236 490.18 37.268V33.956ZM490.72 33.956H493.168V37.484C493.168 41.876 496.408 45.944 501.088 47.564L499.504 49.904C494.284 47.96 490.72 43.136 490.72 37.484V33.956ZM504.544 32.264H507.532V51.992H504.544V32.264ZM506.704 40.652H512.356V43.172H506.704V40.652ZM497.164 52.892C503.824 52.892 507.856 55.088 507.856 58.832C507.856 62.576 503.824 64.736 497.164 64.736C490.504 64.736 486.472 62.576 486.472 58.832C486.472 55.088 490.504 52.892 497.164 52.892ZM497.164 55.268C492.34 55.268 489.388 56.564 489.388 58.832C489.388 61.1 492.34 62.396 497.164 62.396C501.988 62.396 504.94 61.1 504.94 58.832C504.94 56.564 501.988 55.268 497.164 55.268Z" fill="white"/>
<rect width="42" height="8" fill="white"/>
<rect y="88" width="42" height="8" fill="white"/>
<rect x="8.07715" width="96" height="8.07692" transform="rotate(90 8.07715 0)" fill="white"/>
<rect width="42" height="8" transform="matrix(-1 0 0 1 578 0)" fill="white"/>
<rect width="42" height="8" transform="matrix(-1 0 0 1 578 88)" fill="white"/>
<rect width="96" height="8.07692" transform="matrix(4.37114e-08 1 1 -4.37114e-08 569.923 0)" fill="white"/>
</svg>
