<svg width="930" height="127" viewBox="0 0 930 127" fill="none" xmlns="http://www.w3.org/2000/svg">
<path d="M46.45 31.74C54.07 31.74 59.8 33.54 63.64 37.14C67.48 40.68 69.4 45.63 69.4 51.99C69.4 54.87 68.98 57.63 68.14 60.27C67.36 62.85 66.07 65.16 64.27 67.2C62.53 69.24 60.19 70.86 57.25 72.06C54.37 73.26 50.77 73.86 46.45 73.86H41.86V96H25.57V31.74H46.45ZM46.18 44.25H41.86V61.35H45.1C46.54 61.35 47.86 61.05 49.06 60.45C50.32 59.85 51.31 58.89 52.03 57.57C52.75 56.25 53.11 54.54 53.11 52.44C53.11 49.8 52.54 47.79 51.4 46.41C50.26 44.97 48.52 44.25 46.18 44.25ZM106.815 96H75.4054V87.27L82.9654 83.94V43.8L75.4054 40.47V31.74H106.815V40.47L99.3454 43.8V83.94L106.815 87.27V96ZM116.273 96V31.74H132.563V83.49H155.783V96H116.273ZM202.482 96L199.512 82.23H179.892L176.832 96H158.922L178.632 31.47H200.322L220.302 96H202.482ZM192.762 56.49C192.462 55.17 192.102 53.73 191.682 52.17C191.322 50.55 190.962 48.9 190.602 47.22C190.242 45.48 189.912 43.8 189.612 42.18C189.372 43.8 189.072 45.48 188.712 47.22C188.352 48.9 187.992 50.55 187.632 52.17C187.332 53.73 187.002 55.17 186.642 56.49L183.222 69.45H196.182L192.762 56.49ZM247.413 96H231.123V44.43H216.363V31.74H262.173V44.43H247.413V96ZM306.693 96H270.873V31.74H306.693V44.16H287.163V56.49H305.343V68.91H287.163V83.4H306.693V96ZM356.609 77.37C356.609 81.03 355.799 84.36 354.179 87.36C352.559 90.3 349.979 92.64 346.439 94.38C342.959 96.06 338.489 96.9 333.029 96.9C330.209 96.9 327.749 96.75 325.649 96.45C323.609 96.15 321.689 95.73 319.889 95.19C318.149 94.59 316.319 93.84 314.399 92.94V78.99C317.639 80.49 320.909 81.75 324.209 82.77C327.569 83.79 330.629 84.3 333.389 84.3C335.009 84.3 336.329 84.06 337.349 83.58C338.369 83.04 339.119 82.35 339.599 81.51C340.079 80.61 340.319 79.59 340.319 78.45C340.319 77.07 339.959 75.9 339.239 74.94C338.579 73.92 337.439 72.96 335.819 72.06C334.199 71.1 332.069 70.08 329.429 69C327.209 68.04 325.199 67.02 323.399 65.94C321.599 64.8 320.069 63.51 318.809 62.07C317.549 60.57 316.559 58.8 315.839 56.76C315.179 54.66 314.849 52.2 314.849 49.38C314.849 45.36 315.809 42 317.729 39.3C319.649 36.54 322.289 34.44 325.649 33C329.069 31.56 333.029 30.84 337.529 30.84C341.489 30.84 345.029 31.26 348.149 32.1C351.329 32.94 354.179 34.02 356.699 35.34L351.659 47.31C349.139 46.05 346.619 45.09 344.099 44.43C341.579 43.71 339.239 43.35 337.079 43.35C335.639 43.35 334.469 43.59 333.569 44.07C332.669 44.49 332.009 45.12 331.589 45.96C331.169 46.74 330.959 47.67 330.959 48.75C330.959 50.01 331.319 51.12 332.039 52.08C332.819 52.98 334.079 53.91 335.819 54.87C337.559 55.83 339.899 57.06 342.839 58.56C345.779 59.94 348.269 61.47 350.309 63.15C352.409 64.77 353.969 66.72 354.989 69C356.069 71.22 356.609 74.01 356.609 77.37ZM393.15 43.53C391.17 43.53 389.37 44.01 387.75 44.97C386.13 45.87 384.75 47.22 383.61 49.02C382.53 50.82 381.72 52.98 381.18 55.5C380.64 58.02 380.37 60.87 380.37 64.05C380.37 68.37 380.88 72.03 381.9 75.03C382.92 78.03 384.42 80.31 386.4 81.87C388.44 83.43 391.02 84.21 394.14 84.21C396.72 84.21 399.21 83.88 401.61 83.22C404.07 82.5 406.56 81.6 409.08 80.52V93.48C406.44 94.68 403.71 95.55 400.89 96.09C398.07 96.63 395.1 96.9 391.98 96.9C385.38 96.9 380.01 95.55 375.87 92.85C371.73 90.09 368.67 86.25 366.69 81.33C364.71 76.35 363.72 70.56 363.72 63.96C363.72 59.1 364.35 54.66 365.61 50.64C366.87 46.56 368.73 43.05 371.19 40.11C373.71 37.17 376.77 34.89 380.37 33.27C384.03 31.65 388.23 30.84 392.97 30.84C395.91 30.84 399.09 31.26 402.51 32.1C405.93 32.88 408.96 33.96 411.6 35.34L406.65 47.58C404.49 46.44 402.33 45.48 400.17 44.7C398.01 43.92 395.67 43.53 393.15 43.53ZM472.652 96H456.272V69H437.282V96H420.902V31.74H437.282V56.31H456.272V31.74H472.652V96ZM521.585 96H485.765V31.74H521.585V44.16H502.055V56.49H520.235V68.91H502.055V83.4H521.585V96ZM588.602 63.78C588.602 68.76 588.032 73.29 586.892 77.37C585.812 81.39 584.072 84.87 581.672 87.81C579.332 90.75 576.302 93 572.582 94.56C568.922 96.12 564.482 96.9 559.262 96.9C554.162 96.9 549.752 96.12 546.032 94.56C542.372 92.94 539.342 90.69 536.942 87.81C534.602 84.87 532.832 81.36 531.632 77.28C530.492 73.2 529.922 68.67 529.922 63.69C529.922 57.03 530.942 51.24 532.982 46.32C535.082 41.4 538.292 37.59 542.612 34.89C546.992 32.13 552.572 30.75 559.352 30.75C566.252 30.75 571.832 32.13 576.092 34.89C580.412 37.59 583.562 41.43 585.542 46.41C587.582 51.33 588.602 57.12 588.602 63.78ZM547.022 63.78C547.022 67.98 547.442 71.61 548.282 74.67C549.122 77.67 550.442 79.98 552.242 81.6C554.042 83.22 556.382 84.03 559.262 84.03C562.262 84.03 564.632 83.22 566.372 81.6C568.172 79.98 569.462 77.67 570.242 74.67C571.082 71.61 571.502 67.98 571.502 63.78C571.502 57.42 570.572 52.44 568.712 48.84C566.852 45.24 563.732 43.44 559.352 43.44C556.412 43.44 554.012 44.28 552.152 45.96C550.352 47.58 549.032 49.92 548.192 52.98C547.412 55.98 547.022 59.58 547.022 63.78ZM657.094 96H635.764L613.624 48.93H613.264C613.264 49.77 613.294 50.85 613.354 52.17C613.414 53.43 613.504 54.87 613.624 56.49C613.744 58.05 613.834 59.7 613.894 61.44C613.954 63.12 614.014 64.74 614.074 66.3V96H599.584V31.74H620.824L642.874 78.27H643.144C643.144 77.49 643.114 76.47 643.054 75.21C642.994 73.89 642.904 72.48 642.784 70.98C642.724 69.42 642.664 67.83 642.604 66.21C642.544 64.59 642.514 63.03 642.514 61.53V31.74H657.094V96ZM694.458 59.19H720.468V93.12C717.288 94.26 713.688 95.19 709.668 95.91C705.708 96.57 701.538 96.9 697.158 96.9C691.338 96.9 686.238 95.67 681.858 93.21C677.478 90.75 674.058 87.06 671.598 82.14C669.198 77.22 667.998 71.1 667.998 63.78C667.998 57.06 669.198 51.24 671.598 46.32C673.998 41.4 677.538 37.59 682.218 34.89C686.958 32.19 692.808 30.84 699.768 30.84C703.548 30.84 707.118 31.2 710.478 31.92C713.838 32.64 716.748 33.6 719.208 34.8L714.078 46.95C711.918 45.87 709.668 45.03 707.328 44.43C704.988 43.83 702.498 43.53 699.858 43.53C696.258 43.53 693.318 44.43 691.038 46.23C688.818 47.97 687.228 50.4 686.268 53.52C685.308 56.58 684.828 60.09 684.828 64.05C684.828 68.19 685.338 71.76 686.358 74.76C687.438 77.76 688.998 80.1 691.038 81.78C693.078 83.4 695.568 84.21 698.508 84.21C699.168 84.21 699.918 84.18 700.758 84.12C701.658 84 702.498 83.88 703.278 83.76C704.118 83.64 704.778 83.52 705.258 83.4V71.52H694.458V59.19ZM784.036 62.88C784.036 70.2 782.716 76.32 780.076 81.24C777.496 86.16 773.836 89.85 769.096 92.31C764.356 94.77 758.746 96 752.266 96H732.826V31.74H753.706C760.186 31.74 765.676 32.94 770.176 35.34C774.736 37.74 778.186 41.25 780.526 45.87C782.866 50.43 784.036 56.1 784.036 62.88ZM767.206 63.42C767.206 59.04 766.696 55.44 765.676 52.62C764.716 49.8 763.246 47.7 761.266 46.32C759.286 44.94 756.826 44.25 753.886 44.25H749.116V83.4H752.716C757.696 83.4 761.356 81.75 763.696 78.45C766.036 75.09 767.206 70.08 767.206 63.42ZM830.285 96L827.315 82.23H807.695L804.635 96H786.725L806.435 31.47H828.125L848.105 96H830.285ZM820.565 56.49C820.265 55.17 819.905 53.73 819.485 52.17C819.125 50.55 818.765 48.9 818.405 47.22C818.045 45.48 817.715 43.8 817.415 42.18C817.175 43.8 816.875 45.48 816.515 47.22C816.155 48.9 815.795 50.55 815.435 52.17C815.135 53.73 814.805 55.17 814.445 56.49L811.025 69.45H823.985L820.565 56.49ZM881.192 96L868.592 47.13H868.232C868.352 48.33 868.472 50.04 868.592 52.26C868.712 54.48 868.832 56.88 868.952 59.46C869.072 62.04 869.132 64.44 869.132 66.66V96H854.642V31.74H877.412L888.932 76.47H889.202L900.632 31.74H923.402V96H908.372V66.21C908.372 64.17 908.402 61.92 908.462 59.46C908.522 56.94 908.612 54.57 908.732 52.35C908.852 50.13 908.942 48.42 909.002 47.22H908.732L896.312 96H881.192Z" fill="#D9D9D9" fill-opacity="0.2"/>
<path d="M22.794 75.316C21.1313 75.316 19.6427 75.6447 18.328 76.302C17.052 76.9593 15.9693 77.9067 15.08 79.144C14.1907 80.3427 13.514 81.812 13.05 83.552C12.6247 85.292 12.412 87.2447 12.412 89.41C12.412 92.3487 12.76 94.862 13.456 96.95C14.1907 98.9993 15.3313 100.565 16.878 101.648C18.4247 102.731 20.3967 103.272 22.794 103.272C24.4953 103.272 26.1773 103.079 27.84 102.692C29.5413 102.305 31.378 101.764 33.35 101.068V108.434C31.5327 109.169 29.7347 109.71 27.956 110.058C26.1773 110.406 24.186 110.58 21.982 110.58C17.7287 110.58 14.21 109.71 11.426 107.97C8.68067 106.191 6.65067 103.717 5.336 100.546C4.02133 97.3367 3.364 93.6053 3.364 89.352C3.364 86.22 3.78933 83.3587 4.64 80.768C5.49067 78.1387 6.728 75.8767 8.352 73.982C10.0147 72.0873 12.0447 70.618 14.442 69.574C16.878 68.53 19.662 68.008 22.794 68.008C24.8433 68.008 26.8927 68.2787 28.942 68.82C31.03 69.3227 33.0213 70.0187 34.916 70.908L32.074 78.042C30.5273 77.3073 28.9613 76.6693 27.376 76.128C25.8293 75.5867 24.302 75.316 22.794 75.316ZM76.0797 110H67.3217V92.136H50.9077V110H42.1497V68.588H50.9077V84.828H67.3217V68.588H76.0797V110ZM110.337 110H86.4993V68.588H110.337V75.78H95.2573V84.886H109.293V92.078H95.2573V102.75H110.337V110ZM156.538 89.236C156.538 92.4453 156.132 95.3647 155.32 97.994C154.547 100.585 153.348 102.827 151.724 104.722C150.139 106.617 148.09 108.067 145.576 109.072C143.102 110.077 140.182 110.58 136.818 110.58C133.454 110.58 130.516 110.077 128.002 109.072C125.528 108.028 123.478 106.578 121.854 104.722C120.269 102.827 119.07 100.565 118.258 97.936C117.485 95.3067 117.098 92.3873 117.098 89.178C117.098 84.886 117.794 81.1547 119.186 77.984C120.617 74.8133 122.782 72.358 125.682 70.618C128.621 68.8393 132.352 67.95 136.876 67.95C141.362 67.95 145.054 68.8393 147.954 70.618C150.854 72.358 153 74.8327 154.392 78.042C155.823 81.2127 156.538 84.944 156.538 89.236ZM126.32 89.236C126.32 92.136 126.688 94.63 127.422 96.718C128.157 98.806 129.298 100.411 130.844 101.532C132.391 102.653 134.382 103.214 136.818 103.214C139.332 103.214 141.342 102.653 142.85 101.532C144.397 100.411 145.518 98.806 146.214 96.718C146.949 94.63 147.316 92.136 147.316 89.236C147.316 84.8667 146.504 81.4447 144.88 78.97C143.256 76.4953 140.588 75.258 136.876 75.258C134.402 75.258 132.391 75.8187 130.844 76.94C129.298 78.0613 128.157 79.666 127.422 81.754C126.688 83.842 126.32 86.336 126.32 89.236ZM201.83 110H190.694L172.656 78.68H172.424C172.463 79.6467 172.502 80.6327 172.54 81.638C172.579 82.6047 172.618 83.5907 172.656 84.596C172.734 85.5627 172.792 86.5487 172.83 87.554C172.869 88.5207 172.908 89.5067 172.946 90.512V110H165.116V68.588H176.194L194.174 99.618H194.348C194.31 98.6513 194.271 97.704 194.232 96.776C194.194 95.8093 194.155 94.862 194.116 93.934C194.116 92.9673 194.097 92.02 194.058 91.092C194.02 90.1253 193.981 89.1587 193.942 88.192V68.588H201.83V110ZM228.016 86.742H244.43V108.202C242.265 108.937 240.003 109.517 237.644 109.942C235.324 110.367 232.675 110.58 229.698 110.58C225.599 110.58 222.1 109.768 219.2 108.144C216.339 106.52 214.154 104.123 212.646 100.952C211.177 97.7813 210.442 93.876 210.442 89.236C210.442 84.9053 211.273 81.1547 212.936 77.984C214.637 74.8133 217.093 72.358 220.302 70.618C223.511 68.878 227.436 68.008 232.076 68.008C234.28 68.008 236.445 68.24 238.572 68.704C240.699 69.168 242.632 69.7867 244.372 70.56L241.472 77.578C240.196 76.9207 238.746 76.3793 237.122 75.954C235.498 75.5287 233.797 75.316 232.018 75.316C229.466 75.316 227.243 75.896 225.348 77.056C223.492 78.216 222.042 79.8593 220.998 81.986C219.993 84.074 219.49 86.5487 219.49 89.41C219.49 92.1167 219.857 94.514 220.592 96.602C221.327 98.69 222.487 100.333 224.072 101.532C225.657 102.692 227.726 103.272 230.278 103.272C231.129 103.272 231.863 103.253 232.482 103.214C233.139 103.137 233.739 103.059 234.28 102.982C234.821 102.866 235.343 102.769 235.846 102.692V94.05H228.016V86.742ZM288.605 88.888C288.605 93.528 287.715 97.414 285.937 100.546C284.158 103.678 281.567 106.037 278.165 107.622C274.801 109.207 270.741 110 265.985 110H254.269V68.588H267.261C271.591 68.588 275.342 69.3613 278.513 70.908C281.722 72.4547 284.197 74.736 285.937 77.752C287.715 80.7293 288.605 84.4413 288.605 88.888ZM279.499 89.12C279.499 86.0653 279.054 83.552 278.165 81.58C277.275 79.608 275.941 78.158 274.163 77.23C272.423 76.2633 270.277 75.78 267.725 75.78H263.027V102.75H266.797C271.089 102.75 274.279 101.609 276.367 99.328C278.455 97.0467 279.499 93.644 279.499 89.12ZM321.416 110L318.4 100.14H303.32L300.304 110H290.85L305.466 68.414H316.196L330.87 110H321.416ZM313.296 83.146C313.102 82.4887 312.851 81.6573 312.542 80.652C312.232 79.6467 311.923 78.622 311.614 77.578C311.304 76.534 311.053 75.6253 310.86 74.852C310.666 75.6253 310.396 76.592 310.048 77.752C309.738 78.8733 309.429 79.956 309.12 81C308.849 82.0053 308.636 82.7207 308.482 83.146L305.524 92.774H316.312L313.296 83.146ZM353.631 110L343.655 77.52H343.423C343.461 78.2933 343.519 79.4533 343.597 81C343.674 82.5467 343.751 84.2093 343.829 85.988C343.906 87.728 343.945 89.3133 343.945 90.744V110H336.115V68.588H348.063L357.865 100.256H358.039L368.421 68.588H380.369V110H372.191V90.396C372.191 89.0813 372.21 87.5733 372.249 85.872C372.326 84.1707 372.384 82.566 372.423 81.058C372.5 79.5113 372.558 78.3513 372.597 77.578H372.365L361.693 110H353.631ZM419.12 68.588C424.456 68.588 428.342 69.748 430.778 72.068C433.252 74.3493 434.49 77.5007 434.49 81.522C434.49 83.3393 434.219 85.0793 433.678 86.742C433.136 88.366 432.228 89.8353 430.952 91.15C429.714 92.426 428.071 93.4313 426.022 94.166C423.972 94.9007 421.44 95.268 418.424 95.268H414.654V110H405.896V68.588H419.12ZM418.656 75.78H414.654V88.076H417.554C419.216 88.076 420.647 87.8633 421.846 87.438C423.044 87.0127 423.972 86.336 424.63 85.408C425.287 84.48 425.616 83.2813 425.616 81.812C425.616 79.7627 425.055 78.2547 423.934 77.288C422.812 76.2827 421.053 75.78 418.656 75.78ZM457.802 110H438.952V105.012L443.998 102.692V75.896L438.952 73.576V68.588H457.802V73.576L452.756 75.896V102.692L457.802 105.012V110ZM464.859 110V68.588H473.617V102.75H490.437V110H464.859ZM523 110L519.984 100.14H504.904L501.888 110H492.434L507.05 68.414H517.78L532.454 110H523ZM514.88 83.146C514.686 82.4887 514.435 81.6573 514.126 80.652C513.816 79.6467 513.507 78.622 513.198 77.578C512.888 76.534 512.637 75.6253 512.444 74.852C512.25 75.6253 511.98 76.592 511.632 77.752C511.322 78.8733 511.013 79.956 510.704 81C510.433 82.0053 510.22 82.7207 510.066 83.146L507.108 92.774H517.896L514.88 83.146ZM549.57 110H540.812V75.896H529.56V68.588H560.822V75.896H549.57V110ZM591.046 110H567.208V68.588H591.046V75.78H575.966V84.886H590.002V92.078H575.966V102.75H591.046V110ZM624.081 98.516C624.081 100.952 623.482 103.079 622.283 104.896C621.085 106.713 619.345 108.125 617.063 109.13C614.821 110.097 612.075 110.58 608.827 110.58C607.397 110.58 605.985 110.483 604.593 110.29C603.24 110.097 601.925 109.826 600.649 109.478C599.412 109.091 598.233 108.627 597.111 108.086V99.908C599.083 100.759 601.113 101.551 603.201 102.286C605.328 102.982 607.435 103.33 609.523 103.33C610.954 103.33 612.095 103.137 612.945 102.75C613.835 102.363 614.473 101.841 614.859 101.184C615.285 100.527 615.497 99.7727 615.497 98.922C615.497 97.878 615.13 96.9887 614.395 96.254C613.699 95.5193 612.752 94.8427 611.553 94.224C610.355 93.5667 608.982 92.8707 607.435 92.136C606.469 91.672 605.425 91.1307 604.303 90.512C603.182 89.8547 602.099 89.062 601.055 88.134C600.05 87.1673 599.219 86.0073 598.561 84.654C597.904 83.3007 597.575 81.6767 597.575 79.782C597.575 77.3073 598.136 75.2 599.257 73.46C600.417 71.6813 602.041 70.328 604.129 69.4C606.256 68.472 608.75 68.008 611.611 68.008C613.777 68.008 615.826 68.2593 617.759 68.762C619.731 69.2647 621.781 69.98 623.907 70.908L621.065 77.752C619.171 76.9787 617.469 76.3793 615.961 75.954C614.453 75.5287 612.907 75.316 611.321 75.316C610.239 75.316 609.311 75.49 608.537 75.838C607.764 76.186 607.165 76.6693 606.739 77.288C606.353 77.9067 606.159 78.6413 606.159 79.492C606.159 80.4587 606.449 81.29 607.029 81.986C607.609 82.6433 608.479 83.2813 609.639 83.9C610.799 84.5187 612.249 85.2533 613.989 86.104C616.116 87.1093 617.914 88.1533 619.383 89.236C620.891 90.3187 622.051 91.5947 622.863 93.064C623.675 94.5333 624.081 96.3507 624.081 98.516Z" fill="#EA7A4A"/>
<path d="M640.76 87.02H662.864V89.468H640.76V87.02ZM636.764 93.824H666.284V96.272H636.764V93.824ZM640.76 78.452H643.712V88.244H640.76V78.452ZM640.544 106.568H663.044V109.016H640.544V106.568ZM640.544 99.512H643.496V107.216H640.544V99.512Z" fill="black"/>
</svg>
