<svg width="623" height="64" viewBox="0 0 623 64" fill="none" xmlns="http://www.w3.org/2000/svg">
<path d="M38.1415 1.432H46.6535V37.144H38.1415V1.432ZM44.2855 16.024H54.5255V23H44.2855V16.024ZM8.1255 39.704H46.6535V60.056H8.1255V39.704ZM38.3335 46.424H16.5095V53.336H38.3335V46.424ZM-0.00249982 6.744H34.8775V13.464H-0.00249982V6.744ZM17.4695 15.192C26.0455 15.192 31.9975 19.544 31.9975 25.88C31.9975 32.28 26.0455 36.504 17.4695 36.504C8.8295 36.504 2.8775 32.28 2.8775 25.88C2.8775 19.544 8.8295 15.192 17.4695 15.192ZM17.4695 21.528C13.6295 21.528 11.0695 23 11.0695 25.88C11.0695 28.76 13.6295 30.296 17.4695 30.296C21.2455 30.296 23.8695 28.76 23.8695 25.88C23.8695 23 21.2455 21.528 17.4695 21.528ZM13.1815 1.048H21.6935V10.392H13.1815V1.048ZM66.1045 8.152H73.2725C73.2725 23.192 71.8645 36.44 64.5045 48.216L57.9765 44.696C64.8885 33.816 66.1045 23.512 66.1045 8.856V8.152ZM59.8965 8.152H70.6485V15H59.8965V8.152ZM79.3525 8.152H86.5205C86.5205 23.64 85.6245 38.424 77.6885 51.096L71.1605 47.512C78.7125 35.736 79.3525 23.704 79.3525 8.92V8.152ZM75.0645 8.152H84.1525V15H75.0645V8.152ZM102.201 1.432H110.329V60.696H102.201V1.432ZM83.6405 23.64H92.0245V30.488H83.6405V23.64ZM90.7445 2.712H98.6805V58.072H90.7445V2.712ZM172.517 1.368H181.029V33.368H172.517V1.368ZM177.637 14.04H188.901V20.952H177.637V14.04ZM141.861 35.736H181.029V50.776H150.437V56.152H141.989V45.016H172.645V41.88H141.861V35.736ZM141.989 54.04H182.757V60.312H141.989V54.04ZM134.373 5.784H169.253V12.184H134.373V5.784ZM151.845 13.592C160.613 13.592 166.373 17.368 166.373 23.32C166.373 29.272 160.613 32.92 151.845 32.92C143.013 32.92 137.253 29.272 137.253 23.32C137.253 17.368 143.013 13.592 151.845 13.592ZM151.845 19.544C147.877 19.544 145.445 20.824 145.445 23.32C145.445 25.688 147.877 26.968 151.845 26.968C155.813 26.968 158.245 25.688 158.245 23.32C158.245 20.824 155.813 19.544 151.845 19.544ZM147.557 0.983997H156.069V10.328H147.557V0.983997ZM230.801 7.704H238.353V9.112C238.353 18.52 230.417 26.456 215.312 28.184L212.241 21.464C225.105 20.056 230.801 14.232 230.801 9.112V7.704ZM234.961 7.704H242.513V9.112C242.513 14.296 248.273 20.056 261.137 21.464L258.001 28.184C242.961 26.456 234.961 18.584 234.961 9.112V7.704ZM214.737 3.992H258.641V10.648H214.737V3.992ZM209.873 30.936H263.505V37.72H209.873V30.936ZM233.105 35.224H241.681V47.704H233.105V35.224ZM216.081 52.888H257.617V59.672H216.081V52.888ZM216.081 42.648H224.529V55.256H216.081V42.648ZM309.388 1.368H317.964V60.824H309.388V1.368ZM271.692 6.104H280.14V20.504H292.364V6.104H300.812V47H271.692V6.104ZM280.14 27.096V40.152H292.364V27.096H280.14ZM338.631 48.28C338.247 49.7733 337.756 51.3947 337.159 53.144C336.561 54.8507 335.921 56.5573 335.239 58.264C334.556 60.0133 333.852 61.6773 333.127 63.256H327.303C327.729 61.592 328.135 59.8213 328.519 57.944C328.903 56.1093 329.265 54.296 329.607 52.504C329.948 50.712 330.225 49.0693 330.439 47.576H338.183L338.631 48.28ZM366.155 25.432H397.131V32.216H366.155V25.432ZM377.291 30.936H385.867V43.416H377.291V30.936ZM366.155 6.68H396.747V13.4H374.667V27.544H366.155V6.68ZM403.083 1.368H411.595V60.824H403.083V1.368ZM363.403 49.112L362.379 42.264C373.707 42.264 387.659 42.2 399.819 40.856L400.459 47.064C387.659 49.048 374.411 49.176 363.403 49.112ZM452.55 7.32H464.39V14.104H452.55V7.32ZM452.55 18.392H464.39V25.112H452.55V18.392ZM462.086 1.432H470.598V35.48H462.086V1.432ZM434.566 3.544H441.542V8.92C441.542 21.08 436.486 31.768 425.286 35.928L420.614 29.272C430.534 25.752 434.566 17.432 434.566 8.92V3.544ZM436.23 3.544H443.142V8.92C443.142 17.048 446.982 25.112 456.39 28.568L451.654 35.288C441.03 31.128 436.23 20.696 436.23 8.92V3.544ZM435.014 37.72H441.414V39.128C441.414 48.152 437.51 56.536 428.23 59.928L424.07 53.72C431.814 51.032 435.014 45.016 435.014 39.128V37.72ZM437.19 37.72H443.334V39.128C443.334 45.016 446.15 51.224 453.51 54.296L449.99 60.504C440.582 56.984 437.19 47.96 437.19 39.128V37.72ZM456.646 37.72H462.726V39.128C462.726 47.384 459.27 56.792 449.99 60.504L446.47 54.296C453.766 50.904 456.646 44.44 456.646 39.128V37.72ZM458.63 37.72H465.03V39.128C465.03 45.4 468.166 51.224 476.102 53.72L471.814 59.928C462.47 56.664 458.63 48.6 458.63 39.128V37.72ZM524.097 23.832H534.529V30.808H524.097V23.832ZM517.761 1.368H526.337V60.632H517.761V1.368ZM481.665 7.064H490.177V43.864H481.665V7.064ZM481.665 39.128H486.785C495.233 39.128 504.385 38.552 513.921 36.632L514.817 43.608C505.025 45.656 495.489 46.168 486.785 46.168H481.665V39.128ZM550.588 31.512H559.036V48.152H550.588V31.512ZM572.092 31.512H580.604V48.152H572.092V31.512ZM538.812 46.936H592.444V53.848H538.812V46.936ZM565.564 4.312C578.3 4.312 587.708 10.584 587.708 20.248C587.708 29.912 578.3 36.12 565.564 36.12C552.764 36.12 543.42 29.912 543.42 20.248C543.42 10.584 552.764 4.312 565.564 4.312ZM565.564 10.968C557.308 10.968 551.804 14.36 551.804 20.248C551.804 26.072 557.308 29.528 565.564 29.528C573.819 29.528 579.324 26.072 579.324 20.248C579.324 14.36 573.819 10.968 565.564 10.968ZM603.831 38.616C603.831 37.1227 604.001 35.8213 604.343 34.712C604.727 33.56 605.324 32.472 606.135 31.448C606.988 30.424 608.119 29.3787 609.527 28.312C610.977 27.2027 612.108 26.2427 612.919 25.432C613.772 24.6213 614.391 23.832 614.775 23.064C615.159 22.2533 615.351 21.336 615.351 20.312C615.351 18.6907 614.775 17.4533 613.623 16.6C612.513 15.7467 610.913 15.32 608.823 15.32C606.945 15.32 605.153 15.5973 603.447 16.152C601.74 16.664 600.033 17.368 598.327 18.264L595.447 12.248C597.409 11.224 599.543 10.3707 601.847 9.688C604.151 9.00533 606.689 8.664 609.463 8.664C613.729 8.664 617.036 9.70933 619.383 11.8C621.772 13.8907 622.967 16.6 622.967 19.928C622.967 21.7627 622.668 23.3413 622.071 24.664C621.516 25.944 620.684 27.1387 619.575 28.248C618.465 29.3573 617.1 30.5307 615.479 31.768C614.156 32.792 613.132 33.6667 612.407 34.392C611.724 35.1173 611.255 35.8427 610.999 36.568C610.785 37.2507 610.679 38.104 610.679 39.128V40.728H603.831V38.616ZM602.615 50.904C602.615 49.0693 603.084 47.7893 604.023 47.064C605.004 46.3387 606.177 45.976 607.543 45.976C608.865 45.976 609.996 46.3387 610.935 47.064C611.916 47.7893 612.407 49.0693 612.407 50.904C612.407 52.6533 611.916 53.912 610.935 54.68C609.996 55.448 608.865 55.832 607.543 55.832C606.177 55.832 605.004 55.448 604.023 54.68C603.084 53.912 602.615 52.6533 602.615 50.904Z" fill="white"/>
</svg>
