<svg width="1920" height="272" viewBox="0 0 1920 272" fill="none" xmlns="http://www.w3.org/2000/svg">
<path d="M0 0H1920V100V200H0V0Z" fill="#EA7A4A"/>
<path d="M568.073 129.268H557.447V89.156H568.073V93.342H562.553V125.082H568.073V129.268ZM601.841 83.498H607.637V126.094H601.841V83.498ZM596.137 99.874H603.221V104.796H596.137V99.874ZM592.319 84.234H597.977V124.07H592.319V84.234ZM572.263 111.466H575.253C580.497 111.466 584.867 111.282 589.927 110.362L590.387 115.33C585.235 116.342 580.727 116.48 575.253 116.48H572.263V111.466ZM572.263 88.42H587.995V93.342H578.335V113.858H572.263V88.42ZM642.731 83.498H648.895V126.094H642.731V83.498ZM630.173 87.914H636.245C636.245 100.932 631.829 111.604 616.695 118.918L613.521 114.042C625.757 108.154 630.173 100.426 630.173 89.018V87.914ZM615.775 87.914H633.071V92.744H615.775V87.914ZM660.115 85.982H686.841V90.812H660.115V85.982ZM655.745 104.106H694.247V109.028H655.745V104.106ZM671.707 107.556H677.871V126.14H671.707V107.556ZM683.713 85.982H689.739V89.754C689.739 94.354 689.739 99.506 688.083 107.05L682.057 106.36C683.713 99.23 683.713 94.17 683.713 89.754V85.982ZM727.364 83.498H733.528V105.302H727.364V83.498ZM704.686 107.004H733.528V118.504H710.804V123.656H704.778V114.134H727.456V111.696H704.686V107.004ZM704.778 121.08H734.678V125.818H704.778V121.08ZM699.856 86.074H722.81V90.766H699.856V86.074ZM699.35 104.566L698.752 99.736C706.204 99.736 716.14 99.598 724.374 98.586L724.696 102.956C716.278 104.336 706.71 104.52 699.35 104.566ZM703.214 88.19H709.056V102.128H703.214V88.19ZM713.518 88.19H719.452V102.128H713.518V88.19ZM767.656 83.452H773.728V126.186H767.656V83.452ZM772.348 99.552H779.892V104.612H772.348V99.552ZM742.08 111.282H745.668C752.89 111.282 758.502 111.052 764.758 109.948L765.356 114.87C758.916 116.02 753.074 116.296 745.668 116.296H742.08V111.282ZM742.034 87.086H761.63V103.6H748.152V113.168H742.08V98.724H755.558V91.962H742.034V87.086ZM799.991 99H807.535V103.922H799.991V99ZM783.891 111.834H786.789C792.769 111.834 796.633 111.742 801.279 110.96L801.785 115.836C797.001 116.664 792.907 116.756 786.789 116.756H783.891V111.834ZM783.891 88.19H799.715V93.02H789.687V113.628H783.891V88.19ZM788.031 99.644H798.105V104.336H788.031V99.644ZM813.423 83.498H819.265V126.094H813.423V83.498ZM804.637 84.234H810.341V124.208H804.637V84.234ZM840.789 85.936H846.125V89.018C846.125 98.264 839.547 106.452 828.507 108.614L825.885 103.554C835.499 101.898 840.789 95.136 840.789 89.018V85.936ZM842.031 85.936H847.321V89.018C847.321 95.274 852.565 101.898 862.225 103.554L859.603 108.614C848.563 106.452 842.031 98.402 842.031 89.018V85.936ZM825.011 115.928H863.559V120.896H825.011V115.928ZM888.799 90.95H893.721V92.514C893.721 99.92 889.949 106.59 881.807 108.936L878.955 104.152C885.809 102.22 888.799 97.344 888.799 92.514V90.95ZM889.949 90.95H894.917V92.514C894.917 96.884 897.953 101.346 904.807 103.14L902.047 107.878C893.859 105.716 889.949 99.506 889.949 92.514V90.95ZM880.427 87.914H903.289V92.698H880.427V87.914ZM888.799 83.36H894.917V89.8H888.799V83.36ZM902.093 94.86H910.235V99.782H902.093V94.86ZM908.763 83.498H914.881V109.212H908.763V83.498ZM900.437 109.948C909.453 109.948 915.019 112.892 915.019 117.998C915.019 123.104 909.453 126.094 900.437 126.094C891.421 126.094 885.855 123.104 885.855 117.998C885.855 112.892 891.421 109.948 900.437 109.948ZM900.437 114.594C894.871 114.594 891.973 115.698 891.973 117.998C891.973 120.298 894.871 121.448 900.437 121.448C906.049 121.448 908.947 120.298 908.947 117.998C908.947 115.698 906.049 114.594 900.437 114.594ZM948.963 83.498H955.081V107.372H948.963V83.498ZM953.379 93.066H960.739V98.034H953.379V93.066ZM923.157 100.978H926.699C935.945 100.978 940.545 100.748 945.651 99.69L946.249 104.52C941.051 105.67 936.175 105.9 926.699 105.9H923.157V100.978ZM923.157 86.12H942.063V90.996H929.229V103.83H923.157V86.12ZM927.389 109.212H955.081V125.634H927.389V109.212ZM949.101 114.042H933.415V120.804H949.101V114.042ZM963.173 125.082H968.693V93.342H963.173V89.156H973.799V129.268H963.173V125.082ZM980.687 92.2H997.287V108.96H980.687V92.2ZM994.047 94.88H983.927V106.28H994.047V94.88ZM1003.93 88.92H1007.25V115.44H1003.93V88.92ZM1006.21 99.96H1012.61V102.72H1006.21V99.96ZM984.727 121.6H1008.89V124.32H984.727V121.6ZM984.727 112.92H988.047V122.76H984.727V112.92ZM1027.72 91.56C1033.36 91.56 1037.4 95.04 1037.4 100.08C1037.4 105.16 1033.36 108.64 1027.72 108.64C1022.08 108.64 1018 105.16 1018 100.08C1018 95.04 1022.08 91.56 1027.72 91.56ZM1027.72 94.44C1023.96 94.44 1021.24 96.72 1021.24 100.08C1021.24 103.44 1023.96 105.76 1027.72 105.76C1031.44 105.76 1034.16 103.44 1034.16 100.08C1034.16 96.72 1031.44 94.44 1027.72 94.44ZM1042.12 88.92H1045.44V125.16H1042.12V88.92ZM1016.64 117.24L1016.16 114.48C1022.76 114.48 1031.88 114.44 1039.76 113.2L1040.04 115.64C1031.92 117.2 1023.08 117.24 1016.64 117.24ZM1077.91 103.24H1084.75V105.96H1077.91V103.24ZM1070.55 98.2H1073.11V100.08C1073.11 107.28 1070.11 114.56 1064.83 117.72L1062.87 115.2C1067.75 112.36 1070.55 106 1070.55 100.08V98.2ZM1071.15 98.2H1073.71V100.08C1073.71 105.84 1076.59 111.8 1081.47 114.44L1079.59 116.92C1074.27 113.96 1071.15 107.12 1071.15 100.08V98.2ZM1063.87 95.6H1080.39V98.36H1063.87V95.6ZM1070.55 90.24H1073.75V97.72H1070.55V90.24ZM1090.67 88.96H1093.87V125.12H1090.67V88.96ZM1083.43 89.8H1086.55V123.28H1083.43V89.8ZM1113.99 99H1122.03V101.68H1113.99V99ZM1113.71 108.08H1121.95V110.76H1113.71V108.08ZM1127.51 88.96H1130.71V125.12H1127.51V88.96ZM1120.27 89.88H1123.39V123.28H1120.27V89.88ZM1112.19 93.52H1115.39C1115.39 103 1111.59 111.52 1101.87 117.32L1099.95 114.96C1108.39 109.84 1112.19 102.64 1112.19 94.12V93.52ZM1101.55 93.52H1113.51V96.24H1101.55V93.52ZM1145.99 92.64H1148.71V95.56C1148.71 102.16 1144.63 107.8 1138.59 110.04L1136.87 107.4C1142.27 105.48 1145.99 100.68 1145.99 95.56V92.64ZM1146.63 92.64H1149.31V95.56C1149.31 100.2 1152.83 104.72 1158.07 106.56L1156.39 109.2C1150.51 107.04 1146.63 101.6 1146.63 95.56V92.64ZM1156.11 98.36H1164.15V101.12H1156.11V98.36ZM1137.91 91.44H1157.23V94.12H1137.91V91.44ZM1142.39 112.56H1166.51V125.12H1163.19V115.28H1142.39V112.56ZM1163.19 88.96H1166.51V110.6H1163.19V88.96ZM1199.86 89H1203.22V115.4H1199.86V89ZM1179.98 121.6H1204.3V124.32H1179.98V121.6ZM1179.98 112.68H1183.26V122.52H1179.98V112.68ZM1183.82 91.48C1189.22 91.48 1193.22 95.16 1193.22 100.4C1193.22 105.6 1189.22 109.32 1183.82 109.32C1178.42 109.32 1174.38 105.6 1174.38 100.4C1174.38 95.16 1178.42 91.48 1183.82 91.48ZM1183.82 94.36C1180.3 94.36 1177.62 96.84 1177.62 100.4C1177.62 103.92 1180.3 106.4 1183.82 106.4C1187.34 106.4 1190.02 103.92 1190.02 100.4C1190.02 96.84 1187.34 94.36 1183.82 94.36ZM1220.77 117.72H1253.53V120.48H1220.77V117.72ZM1223.61 92.56H1250.45V95.28H1223.61V92.56ZM1223.69 107.84H1250.41V110.56H1223.69V107.84ZM1229.25 95.08H1232.57V108.12H1229.25V95.08ZM1241.57 95.08H1244.85V108.12H1241.57V95.08ZM1257.57 117.92H1290.33V120.68H1257.57V117.92ZM1272.21 110.16H1275.53V119.08H1272.21V110.16ZM1261.53 91.64H1286.29V102.6H1264.93V109.84H1261.65V99.92H1283.01V94.32H1261.53V91.64ZM1261.65 108.44H1287.13V111.16H1261.65V108.44ZM1308.6 101.88H1315.52V104.64H1308.6V101.88ZM1301.84 92.36H1304.44V99.24C1304.44 106.8 1301.28 114.12 1296 117.36L1293.92 114.84C1298.88 111.92 1301.84 105.44 1301.84 99.24V92.36ZM1302.48 92.36H1305.04V99.12C1305.04 104.92 1307.76 111.08 1312.52 113.96L1310.6 116.56C1305.4 113.36 1302.48 106.16 1302.48 99.12V92.36ZM1321.88 88.96H1325.08V125.12H1321.88V88.96ZM1314.56 89.72H1317.68V123.32H1314.56V89.72ZM1345.64 91.44H1348.52V94.2C1348.52 102.08 1341.2 108.2 1333.96 109.84L1332.48 107.08C1338.84 105.88 1345.64 100.36 1345.64 94.2V91.44ZM1346.24 91.44H1349.12V94.2C1349.12 100.4 1355.96 105.88 1362.28 107.08L1360.8 109.84C1353.6 108.2 1346.24 102.12 1346.24 94.2V91.44ZM1331.16 117.52H1363.92V120.24H1331.16V117.52Z" fill="white"/>
<path d="M959.662 272L1041 200H879L959.662 272Z" fill="#EA7A4A"/>
</svg>
