<svg width="82" height="77" viewBox="0 0 82 77" fill="none" xmlns="http://www.w3.org/2000/svg">
<path d="M77.5422 32.2884C73.7864 26.671 68.3296 22.679 61.8417 20.6568C56.5204 19.0764 51.0561 19.1813 45.2305 19.2936C43.8381 19.3535 42.4306 19.3535 41.0005 19.3535H39.0888V53.5068C38.3662 53.5668 37.6587 53.5668 36.9362 53.5668C31.4493 53.6641 26.0678 53.724 21.2809 52.2486C15.5832 50.496 10.992 47.1106 7.60506 42.1973C4.09767 36.9545 2.95362 29.4722 4.55679 22.5217C6.61908 13.6164 14.4693 6.40374 24.0356 4.59871C27.3774 3.95459 31.6074 3.83476 35.6717 3.83476H42.8897V0H35.6717C31.6902 0 27.1591 0.0599181 23.3131 0.816384C12.2791 2.88356 3.21706 11.302 0.801021 21.6379C-1.05052 29.607 0.364479 38.2427 4.45895 44.3019C8.20719 49.8743 13.679 53.9787 20.1895 55.9485C24.156 57.1544 28.2656 57.424 32.4955 57.424C33.9105 57.424 42.9198 57.3116 42.9198 57.3116V23.1059C43.7478 23.1059 44.5155 23.1059 45.3359 23.046C50.8002 22.9486 55.9559 22.8288 60.7052 24.3118C66.4254 26.1243 71.0091 29.4497 74.3885 34.4229C77.911 39.6059 79.0475 47.0881 77.4142 54.0985C75.367 63.0039 67.5468 70.209 57.958 72.0815C54.6011 72.6731 50.4314 72.7256 46.3444 72.7256H39.1264V76.6053H46.3444C50.326 76.6053 54.857 76.5603 58.673 75.8413C69.707 73.6543 78.769 65.3556 81.1926 54.9748C83.0592 47.0507 81.6291 38.3026 77.5271 32.2809L77.5422 32.2884Z" fill="white"/>
</svg>
