<svg width="1165" height="450" viewBox="0 0 1165 450" fill="none" xmlns="http://www.w3.org/2000/svg">
<rect width="248" height="248" rx="124" fill="white"/>
<path d="M96.9231 83.52H101.283V86.8C101.283 94.16 98.0831 100.64 91.0431 103.08L88.2031 98.88C94.4031 96.8 96.9231 91.84 96.9231 86.8V83.52ZM98.0031 83.52H102.323V87.32C102.323 91.76 104.803 96.08 110.603 97.88L107.843 102C101.163 99.76 98.0031 94 98.0031 87.32V83.52ZM112.643 81.52H117.963V103.4H112.643V81.52ZM116.483 90.08H122.883V94.48H116.483V90.08ZM105.883 104.24C113.563 104.24 118.403 106.92 118.403 111.4C118.403 115.92 113.563 118.56 105.883 118.56C98.1631 118.56 93.3231 115.92 93.3231 111.4C93.3231 106.92 98.1631 104.24 105.883 104.24ZM105.883 108.36C101.163 108.36 98.6031 109.36 98.6031 111.4C98.6031 113.48 101.163 114.44 105.883 114.44C110.603 114.44 113.123 113.48 113.123 111.4C113.123 109.36 110.603 108.36 105.883 108.36ZM135.08 98.8H140.36V107.12H135.08V98.8ZM151.72 81.52H157.08V109.4H151.72V81.52ZM130.4 113.68H157.88V117.92H130.4V113.68ZM130.4 106.64H135.72V114.72H130.4V106.64ZM126 99.72L125.36 95.52C132.12 95.48 141.28 95.36 149.16 94.28L149.52 98.04C141.48 99.48 132.68 99.68 126 99.72ZM144.6 101.28H152.92V105.4H144.6V101.28ZM128.72 83.36H144.44V87.56H128.72V83.36ZM141.08 83.36H146.36V84.64C146.36 86.8 146.36 90.8 145.4 96.32L140.2 95.96C141.08 90.48 141.08 86.72 141.08 84.64V83.36ZM88.8031 148.48H122.323V152.68H88.8031V148.48ZM103.323 150.72H108.683V158.52H103.323V150.72ZM92.6831 161.68H118.643V165.92H92.6831V161.68ZM92.6831 155.72H97.9631V163.48H92.6831V155.72ZM93.0831 130.68H98.3231V134.48H112.763V130.68H118.043V145.92H93.0831V130.68ZM98.3231 138.48V141.76H112.763V138.48H98.3231ZM144.52 136.4H152.04V140.72H144.52V136.4ZM134.08 131.44H138.44V134.92C138.44 142.24 135.2 148.6 128.16 151.04L125.36 146.84C131.56 144.8 134.08 139.92 134.08 134.92V131.44ZM135.16 131.44H139.44V135.24C139.44 139.84 141.92 144.36 147.72 146.24L144.96 150.4C138.24 148.08 135.16 142.08 135.16 135.24V131.44ZM131.36 153.24H156.6V166.56H151.28V157.44H131.36V153.24ZM151.28 129.52H156.6V151.56H151.28V129.52Z" fill="#F28C68"/>
<path d="M17.6483 348.52H24.4243V350.424H17.6483V348.52ZM17.4243 353.784H24.2563V355.688H17.4243V353.784ZM24.0323 343.872H26.3563V359.048H24.0323V343.872ZM16.1083 345.776H18.6003C18.6003 352.3 14.0923 356.864 6.81234 359.048L5.86034 357.172C12.3283 355.296 16.1083 351.572 16.1083 346.784V345.776ZM7.17634 345.776H17.7043V347.68H7.17634V345.776ZM18.1243 359.328C23.2483 359.328 26.4963 361.148 26.4963 364.2C26.4963 367.252 23.2483 369.072 18.1243 369.072C13.0003 369.072 9.75234 367.252 9.75234 364.2C9.75234 361.148 13.0003 359.328 18.1243 359.328ZM18.1243 361.148C14.4283 361.148 12.0483 362.296 12.0483 364.2C12.0483 366.104 14.4283 367.224 18.1243 367.224C21.8483 367.224 24.2283 366.104 24.2283 364.2C24.2283 362.296 21.8483 361.148 18.1243 361.148ZM50.5462 343.872H52.7862V369.184H50.5462V343.872ZM41.3342 352.944H46.1782V354.876H41.3342V352.944ZM45.4782 344.46H47.6622V367.896H45.4782V344.46ZM36.4622 347.792H38.2542V351.012C38.2542 356.556 36.1262 361.792 32.4022 364.144L30.9742 362.408C34.5022 360.28 36.4622 355.66 36.4622 351.012V347.792ZM36.9382 347.792H38.7302V351.012C38.7302 355.408 40.6342 359.804 44.1062 361.82L42.6782 363.528C38.9822 361.288 36.9382 356.304 36.9382 351.012V347.792ZM31.6742 346.812H43.2382V348.744H31.6742V346.812ZM58.188 347.736H78.74V349.668H58.188V347.736ZM57.068 364.2H80V366.132H57.068V364.2ZM68.464 351.292C73.56 351.292 76.752 353.168 76.752 356.304C76.752 359.44 73.56 361.288 68.464 361.288C63.396 361.288 60.204 359.44 60.204 356.304C60.204 353.168 63.396 351.292 68.464 351.292ZM68.464 353.196C64.824 353.196 62.528 354.372 62.528 356.304C62.528 358.236 64.824 359.412 68.464 359.412C72.132 359.412 74.428 358.236 74.428 356.304C74.428 354.372 72.132 353.196 68.464 353.196ZM67.344 344.32H69.64V348.828H67.344V344.32ZM82.7978 356.92H105.758V358.824H82.7978V356.92ZM85.7098 344.488H102.79V350.48H88.0618V353.84H85.7658V348.772H100.522V346.308H85.7098V344.488ZM85.7658 352.944H103.35V354.764H85.7658V352.944ZM85.8778 361.12H102.818V368.848H85.8778V361.12ZM100.55 362.968H88.1458V366.972H100.55V362.968ZM120.008 344.292C125.58 344.292 128.912 345.86 128.912 348.688C128.912 351.516 125.58 353.084 120.008 353.084C114.408 353.084 111.104 351.516 111.104 348.688C111.104 345.86 114.408 344.292 120.008 344.292ZM120.008 346.056C115.864 346.056 113.484 347.008 113.484 348.688C113.484 350.368 115.864 351.32 120.008 351.32C124.124 351.32 126.504 350.368 126.504 348.688C126.504 347.008 124.124 346.056 120.008 346.056ZM108.556 354.764H131.432V356.64H108.556V354.764ZM111.328 358.796H128.52V364.508H113.68V367.588H111.384V362.828H126.224V360.588H111.328V358.796ZM111.384 367.084H129.276V368.904H111.384V367.084ZM142.524 346.588H156.608V348.492H142.524V346.588ZM142.16 362.94L141.88 360.952C146.444 360.952 152.576 360.896 157.784 360.252L157.924 361.988C152.632 362.856 146.612 362.94 142.16 362.94ZM145.24 348.016H147.508V361.484H145.24V348.016ZM151.624 348.016H153.892V361.484H151.624V348.016ZM159.324 343.872H161.676V369.184H159.324V343.872ZM161.116 353.98H165.82V355.94H161.116V353.98ZM175.03 345.356C178.838 345.356 181.638 347.82 181.638 351.376C181.638 354.904 178.838 357.34 175.03 357.34C171.222 357.34 168.422 354.904 168.422 351.376C168.422 347.82 171.222 345.356 175.03 345.356ZM175.03 347.344C172.51 347.344 170.69 348.968 170.69 351.376C170.69 353.756 172.51 355.408 175.03 355.408C177.55 355.408 179.37 353.756 179.37 351.376C179.37 348.968 177.55 347.344 175.03 347.344ZM185.278 343.872H187.602V358.768H185.278V343.872ZM186.958 350.368H191.354V352.328H186.958V350.368ZM171.166 360.084H187.602V369.212H185.278V361.96H171.166V360.084ZM210.868 343.872H213.192V369.184H210.868V343.872ZM212.632 354.26H217.336V356.22H212.632V354.26ZM193.592 347.904H208.516V349.808H193.592V347.904ZM201.152 351.908C204.736 351.908 207.312 354.316 207.312 357.732C207.312 361.148 204.736 363.556 201.152 363.556C197.596 363.556 194.992 361.148 194.992 357.732C194.992 354.316 197.596 351.908 201.152 351.908ZM201.152 353.84C198.856 353.84 197.204 355.436 197.204 357.732C197.204 360 198.856 361.624 201.152 361.624C203.448 361.624 205.1 360 205.1 357.732C205.1 355.436 203.448 353.84 201.152 353.84ZM199.948 344.18H202.272V348.772H199.948V344.18ZM230.886 349.5H238.53V351.432H230.886V349.5ZM230.886 357.508H238.53V359.44H230.886V357.508ZM226.238 345.804C229.906 345.804 232.538 349.248 232.538 354.624C232.538 360.028 229.906 363.472 226.238 363.472C222.542 363.472 219.938 360.028 219.938 354.624C219.938 349.248 222.542 345.804 226.238 345.804ZM226.238 347.904C223.802 347.904 222.122 350.536 222.122 354.624C222.122 358.74 223.802 361.428 226.238 361.428C228.674 361.428 230.354 358.74 230.354 354.624C230.354 350.536 228.674 347.904 226.238 347.904ZM238.026 343.844H240.322V369.212H238.026V343.844ZM45.2251 382.908H47.5211V386.548H54.6611V382.908H56.9291V393.968H45.2251V382.908ZM47.5211 388.368V392.092H54.6611V388.368H47.5211ZM61.4931 381.872H63.8171V394.92H61.4931V381.872ZM62.8091 387.304H67.5411V389.236H62.8091V387.304ZM47.7451 396.152H63.8171V402.284H50.0971V406.092H47.8011V400.548H61.5491V398H47.7451V396.152ZM47.8011 405.056H64.7411V406.904H47.8011V405.056ZM87.7829 381.872H90.0789V407.184H87.7829V381.872ZM88.7629 391.756H93.4389V393.688H88.7629V391.756ZM70.3949 384.224H72.3829V390.72H75.4629V384.224H77.3949V401.052H70.3949V384.224ZM72.3829 392.568V399.148H75.4629V392.568H72.3829ZM78.7389 384.224H80.6989V390.72H83.6949V384.224H85.6549V401.052H78.7389V384.224ZM80.6989 392.568V399.148H83.6949V392.568H80.6989ZM95.7047 402.06H118.637V404.02H95.7047V402.06ZM98.4767 383.804H115.809V391.476H100.857V396.544H98.5607V389.628H113.513V385.708H98.4767V383.804ZM98.5607 395.564H116.397V397.468H98.5607V395.564ZM140.727 381.872H142.967V407.184H140.727V381.872ZM129.751 392.204H136.135V394.08H129.751V392.204ZM135.463 382.516H137.647V405.896H135.463V382.516ZM130.059 385.064H132.299C132.299 391.7 129.639 397.664 122.807 401.724L121.435 400.072C127.399 396.488 130.059 391.448 130.059 385.484V385.064ZM122.555 385.064H130.927V386.968H122.555V385.064ZM174.331 381.872H176.571V407.184H174.331V381.872ZM170.047 392.008H174.919V393.94H170.047V392.008ZM168.591 382.432H170.775V405.896H168.591V382.432ZM155.991 399.008H157.643C161.339 399.008 163.859 398.868 166.799 398.252L167.023 400.184C163.999 400.828 161.451 400.94 157.643 400.94H155.991V399.008ZM155.991 384.952H165.399V386.856H158.287V399.876H155.991V384.952ZM180.825 394.164H203.701V396.068H180.825V394.164ZM192.249 398.14C197.681 398.14 200.929 399.764 200.929 402.648C200.929 405.56 197.681 407.184 192.249 407.184C186.817 407.184 183.569 405.56 183.569 402.648C183.569 399.764 186.817 398.14 192.249 398.14ZM192.249 399.96C188.301 399.96 185.921 400.94 185.921 402.648C185.921 404.412 188.301 405.364 192.249 405.364C196.225 405.364 198.577 404.412 198.577 402.648C198.577 400.94 196.225 399.96 192.249 399.96ZM192.277 382.488C197.737 382.488 201.181 384.308 201.181 387.332C201.181 390.328 197.737 392.148 192.277 392.148C186.789 392.148 183.373 390.328 183.373 387.332C183.373 384.308 186.789 382.488 192.277 382.488ZM192.277 384.336C188.245 384.336 185.753 385.456 185.753 387.332C185.753 389.208 188.245 390.3 192.277 390.3C196.281 390.3 198.801 389.208 198.801 387.332C198.801 385.456 196.281 384.336 192.277 384.336Z" fill="white"/>
<line x1="98" y1="302" x2="150" y2="302" stroke="white" stroke-width="4"/>
<rect x="445.5" width="248" height="248" rx="124" fill="white"/>
<path d="M524.945 84.36H529.265V89.76C529.265 99.28 525.985 107.88 518.625 111.28L515.465 106.88C521.905 104.08 524.945 96.96 524.945 89.76V84.36ZM525.985 84.36H530.305V89.76C530.305 96.6 533.225 103.4 539.545 106.12L536.425 110.4C529.265 107.12 525.985 98.88 525.985 89.76V84.36ZM541.305 81.48H546.665V118.64H541.305V81.48ZM566.462 83.64H571.102V86.32C571.102 94.36 565.382 101.48 555.782 103.36L553.502 98.96C561.862 97.52 566.462 91.64 566.462 86.32V83.64ZM567.542 83.64H572.142V86.32C572.142 91.76 576.702 97.52 585.102 98.96L582.822 103.36C573.222 101.48 567.542 94.48 567.542 86.32V83.64ZM552.742 109.72H586.262V114.04H552.742V109.72ZM605.138 90.44H610.778V94.68H605.138V90.44ZM590.938 98H593.458C598.738 98 602.138 97.92 606.178 97.24L606.658 101.36C602.458 102.12 598.938 102.2 593.458 102.2H590.938V98ZM590.938 83.72H604.898V87.92H596.058V100.44H590.938V83.72ZM594.538 90.84H603.538V94.88H594.538V90.84ZM616.018 81.52H621.058V103.6H616.018V81.52ZM608.778 82.08H613.738V103.32H608.778V82.08ZM595.978 105.08H621.058V118.16H595.978V105.08ZM615.858 109.24H601.218V113.96H615.858V109.24ZM560.943 129.52H566.023V166.56H560.943V129.52ZM556.263 143.48H562.383V147.72H556.263V143.48ZM545.223 134.04H550.303C550.303 144.48 547.263 152.92 536.903 158.96L533.823 155.28C542.263 150.28 545.223 144.04 545.223 135.16V134.04ZM535.703 134.04H546.783V138.32H535.703V134.04ZM552.743 130.48H557.703V164.96H552.743V130.48ZM590.02 137.4H598.62V141.68H590.02V137.4ZM579.58 131.8H583.86V135.8C583.86 143.36 580.7 149.8 573.7 152.36L570.9 148.2C577.02 146.16 579.58 141.04 579.58 135.8V131.8ZM580.74 131.8H584.98V135.84C584.98 140.6 587.42 145.36 593.26 147.36L590.42 151.44C583.78 149.04 580.74 142.84 580.74 135.84V131.8ZM596.78 129.56H602.1V156.88H596.78V129.56ZM577.58 161.68H602.9V165.92H577.58V161.68ZM577.58 154.12H582.94V164.04H577.58V154.12Z" fill="#F28C68"/>
<path d="M416.321 354.344H418.645V358.852H416.321V354.344ZM427.941 343.872H430.265V358.768H427.941V343.872ZM409.741 355.128L409.461 353.392C414.333 353.392 420.521 353.364 425.925 352.748L426.065 354.26C420.521 355.072 414.473 355.128 409.741 355.128ZM413.297 359.692H430.265V364.956H415.621V367.812H413.353V363.416H427.969V361.372H413.297V359.692ZM413.353 367.224H431.105V368.904H413.353V367.224ZM422.901 355.912H428.669V357.424H422.901V355.912ZM417.637 344.348C421.389 344.348 423.853 345.804 423.853 348.156C423.853 350.508 421.389 351.964 417.637 351.964C413.857 351.964 411.393 350.508 411.393 348.156C411.393 345.804 413.857 344.348 417.637 344.348ZM417.637 345.972C415.145 345.972 413.549 346.812 413.549 348.156C413.549 349.5 415.145 350.34 417.637 350.34C420.073 350.34 421.669 349.5 421.669 348.156C421.669 346.812 420.073 345.972 417.637 345.972ZM449.869 347.484H451.745V351.6C451.745 356.948 448.525 362.324 444.493 364.312L443.149 362.464C446.817 360.728 449.869 355.968 449.869 351.6V347.484ZM450.317 347.484H452.193V351.6C452.193 355.884 455.245 360.252 458.969 361.848L457.653 363.696C453.565 361.792 450.317 356.864 450.317 351.6V347.484ZM443.989 346.448H458.129V348.408H443.989V346.448ZM461.545 343.872H463.869V369.184H461.545V343.872ZM479.183 356.472H481.507V360.308H479.183V356.472ZM468.935 355.1H491.783V356.892H468.935V355.1ZM479.211 343.704H481.507V346.784H479.211V343.704ZM479.099 347.008H481.143V347.4C481.143 351.376 476.411 353.504 470.811 353.98L470.139 352.188C475.123 351.88 479.099 350.116 479.099 347.4V347.008ZM479.575 347.008H481.619V347.4C481.619 350.116 485.595 351.88 490.551 352.188L489.879 353.98C484.279 353.504 479.575 351.376 479.575 347.4V347.008ZM471.259 346.084H489.459V347.848H471.259V346.084ZM471.679 359.188H488.871V364.76H474.031V367.812H471.735V363.108H486.575V360.952H471.679V359.188ZM471.735 367.14H489.627V368.904H471.735V367.14ZM506.117 344.292C511.689 344.292 515.021 345.86 515.021 348.688C515.021 351.516 511.689 353.084 506.117 353.084C500.517 353.084 497.213 351.516 497.213 348.688C497.213 345.86 500.517 344.292 506.117 344.292ZM506.117 346.056C501.973 346.056 499.593 347.008 499.593 348.688C499.593 350.368 501.973 351.32 506.117 351.32C510.233 351.32 512.613 350.368 512.613 348.688C512.613 347.008 510.233 346.056 506.117 346.056ZM494.665 354.764H517.541V356.64H494.665V354.764ZM497.437 358.796H514.629V364.508H499.789V367.588H497.493V362.828H512.333V360.588H497.437V358.796ZM497.493 367.084H515.385V368.904H497.493V367.084ZM535.55 357.256H537.902V362.744H535.55V357.256ZM535.55 348.352H537.426V348.912C537.426 353.336 534.542 356.752 530.286 358.096L529.222 356.276C532.974 355.156 535.55 352.328 535.55 348.912V348.352ZM535.998 348.352H537.874V348.912C537.874 352.188 540.534 354.932 544.258 356.024L543.194 357.816C538.938 356.556 535.998 353.196 535.998 348.912V348.352ZM529.81 347.176H543.726V349.052H529.81V347.176ZM535.55 344.04H537.902V347.988H535.55V344.04ZM546.61 343.844H548.934V369.212H546.61V343.844ZM528.774 364.004L528.438 362.044C533.058 362.044 539.442 362.016 544.958 361.176L545.154 362.884C539.47 363.948 533.282 363.976 528.774 364.004ZM554.084 363.976H577.016V365.908H554.084V363.976ZM564.276 357.844H566.572V364.62H564.276V357.844ZM564.22 345.552H566.236V347.512C566.236 352.916 561.056 357.088 555.96 358.152L554.98 356.22C559.432 355.408 564.22 351.684 564.22 347.512V345.552ZM564.64 345.552H566.656V347.512C566.656 351.712 571.472 355.408 575.924 356.22L574.916 358.152C569.82 357.088 564.64 352.916 564.64 347.512V345.552ZM586.393 358.964H588.717V363.08H586.393V358.964ZM597.033 343.872H599.357V369.184H597.033V343.872ZM598.601 354.624H603.277V356.584H598.601V354.624ZM579.869 364.368L579.533 362.436C584.069 362.436 590.257 362.38 595.493 361.624L595.689 363.36C590.229 364.34 584.293 364.368 579.869 364.368ZM579.953 346.924H595.101V348.8H579.953V346.924ZM587.541 350.284C591.069 350.284 593.505 352.132 593.505 354.96C593.505 357.816 591.069 359.636 587.541 359.636C584.013 359.636 581.605 357.816 581.605 354.96C581.605 352.132 584.013 350.284 587.541 350.284ZM587.541 352.076C585.273 352.076 583.789 353.224 583.789 354.96C583.789 356.696 585.273 357.844 587.541 357.844C589.809 357.844 591.321 356.696 591.321 354.96C591.321 353.224 589.809 352.076 587.541 352.076ZM586.393 343.9H588.717V348.184H586.393V343.9ZM630.778 343.788H633.102V357.76H630.778V343.788ZM632.122 349.864H636.854V351.824H632.122V349.864ZM617.03 359.048H633.102V364.704H619.382V367.784H617.086V363.024H630.834V360.812H617.03V359.048ZM617.086 367.112H634.026V368.904H617.086V367.112ZM613.53 346.14H628.482V347.96H613.53V346.14ZM621.006 349.08C624.646 349.08 627.054 350.676 627.054 353.252C627.054 355.8 624.646 357.368 621.006 357.368C617.31 357.368 614.93 355.8 614.93 353.252C614.93 350.676 617.31 349.08 621.006 349.08ZM621.006 350.788C618.654 350.788 617.142 351.74 617.142 353.252C617.142 354.736 618.654 355.688 621.006 355.688C623.33 355.688 624.842 354.736 624.842 353.252C624.842 351.74 623.33 350.788 621.006 350.788ZM619.83 343.592H622.154V347.4H619.83V343.592ZM657.327 344.768H659.371V346.168C659.371 351.012 654.443 354.484 649.179 355.38L648.255 353.504C652.875 352.804 657.327 349.78 657.327 346.168V344.768ZM657.747 344.768H659.763V346.168C659.763 349.696 664.271 352.804 668.835 353.504L667.911 355.38C662.703 354.484 657.747 350.956 657.747 346.168V344.768ZM657.327 359.552H659.623V369.184H657.327V359.552ZM647.107 358.124H669.983V360.056H647.107V358.124ZM687.04 359.44H688.832V360.812C688.832 364.116 686.76 367.448 683.12 368.848L681.944 367.112C685.136 365.964 687.04 363.248 687.04 360.812V359.44ZM687.544 359.44H689.28V360.812C689.28 363.36 690.792 366.076 693.816 367.308L692.836 369.072C689.196 367.644 687.544 364.172 687.544 360.812V359.44ZM696.392 359.44H698.128V360.812C698.128 363.78 696.448 367.532 692.836 369.072L691.856 367.308C694.852 365.936 696.392 362.996 696.392 360.812V359.44ZM696.868 359.44H698.66V360.812C698.66 363.416 700.536 366.02 703.756 367.112L702.58 368.848C698.884 367.504 696.868 364.312 696.868 360.812V359.44ZM699.136 343.9H701.488V358.348H699.136V343.9ZM687.908 345.356C691.744 345.356 694.488 347.764 694.488 351.264C694.488 354.764 691.744 357.144 687.908 357.144C684.072 357.144 681.3 354.764 681.3 351.264C681.3 347.764 684.072 345.356 687.908 345.356ZM687.908 347.288C685.388 347.288 683.568 348.912 683.568 351.264C683.568 353.616 685.388 355.212 687.908 355.212C690.428 355.212 692.248 353.616 692.248 351.264C692.248 348.912 690.428 347.288 687.908 347.288ZM709.578 351.46H726.77V353.364H709.578V351.46ZM706.47 356.752H729.43V358.656H706.47V356.752ZM709.578 344.796H711.874V352.412H709.578V344.796ZM709.41 366.664H726.91V368.568H709.41V366.664ZM709.41 361.176H711.706V367.168H709.41V361.176ZM385.447 384.056H387.351V388.592C387.351 394.416 384.215 399.82 380.071 401.92L378.643 400.016C382.395 398.224 385.447 393.38 385.447 388.592V384.056ZM385.839 384.056H387.743V388.592C387.743 393.212 390.767 397.86 394.519 399.596L393.119 401.444C389.003 399.428 385.839 394.22 385.839 388.592V384.056ZM397.151 381.844H399.475V407.212H397.151V381.844ZM414.677 383.608H416.693V385.54C416.693 391.056 411.569 395.34 406.501 396.488L405.465 394.556C409.917 393.716 414.677 389.852 414.677 385.54V383.608ZM415.097 383.608H417.113V385.54C417.113 389.88 421.901 393.716 426.325 394.556L425.289 396.488C420.249 395.34 415.097 391.084 415.097 385.54V383.608ZM404.541 401.864H427.473V403.768H404.541V401.864ZM441.162 388.228H445.474V390.132H441.162V388.228ZM431.446 393.688H433.042C436.99 393.688 439.342 393.604 442.142 393.044L442.366 394.892C439.454 395.48 437.074 395.564 433.042 395.564H431.446V393.688ZM431.446 383.524H440.994V385.4H433.686V394.808H431.446V383.524ZM432.986 388.48H439.986V390.328H432.986V388.48ZM449.394 381.872H451.606V397.104H449.394V381.872ZM444.522 382.292H446.706V396.852H444.522V382.292ZM435.002 398.308H451.606V406.848H435.002V398.308ZM449.366 400.156H437.27V404.972H449.366V400.156ZM481.235 381.9H483.559V400.464H481.235V381.9ZM482.831 389.544H487.311V391.476H482.831V389.544ZM467.795 404.72H484.707V406.624H467.795V404.72ZM467.795 398.672H470.119V405.168H467.795V398.672ZM464.967 383.692H467.263V387.92H474.403V383.692H476.671V396.236H464.967V383.692ZM467.263 389.74V394.36H474.403V389.74H467.263ZM501.197 385.512H508.925V387.416H501.197V385.512ZM501.197 391.336H508.925V393.268H501.197V391.336ZM496.577 383.356C500.301 383.356 503.101 385.876 503.101 389.376C503.101 392.904 500.301 395.396 496.577 395.396C492.825 395.396 490.053 392.904 490.053 389.376C490.053 385.876 492.825 383.356 496.577 383.356ZM496.577 385.344C494.113 385.344 492.293 386.996 492.293 389.376C492.293 391.756 494.113 393.408 496.577 393.408C499.041 393.408 500.889 391.756 500.889 389.376C500.889 386.996 499.041 385.344 496.577 385.344ZM508.169 381.872H510.493V396.852H508.169V381.872ZM502.177 397.44C507.385 397.44 510.605 399.232 510.605 402.284C510.605 405.364 507.385 407.128 502.177 407.128C496.941 407.128 493.721 405.364 493.721 402.284C493.721 399.232 496.941 397.44 502.177 397.44ZM502.177 399.288C498.341 399.288 496.017 400.408 496.017 402.284C496.017 404.188 498.341 405.308 502.177 405.308C505.985 405.308 508.309 404.188 508.309 402.284C508.309 400.408 505.985 399.288 502.177 399.288ZM516.567 384.644H528.019V386.52H516.567V384.644ZM520.515 391.868H522.811V400.436H520.515V391.868ZM527.067 384.644H529.335V385.988C529.335 388.06 529.335 391.364 528.607 396.068L526.311 395.844C527.067 391.28 527.067 388.032 527.067 385.988V384.644ZM532.527 381.872H534.823V407.184H532.527V381.872ZM534.207 392.456H538.883V394.416H534.207V392.456ZM515.447 401.668L515.167 399.708C519.759 399.708 525.863 399.624 530.987 398.98L531.099 400.688C525.863 401.528 519.927 401.64 515.447 401.668ZM555.772 385.484H557.648V389.6C557.648 394.948 554.428 400.324 550.396 402.312L549.052 400.464C552.72 398.728 555.772 393.968 555.772 389.6V385.484ZM556.22 385.484H558.096V389.6C558.096 393.884 561.148 398.252 564.872 399.848L563.556 401.696C559.468 399.792 556.22 394.864 556.22 389.6V385.484ZM549.892 384.448H564.032V386.408H549.892V384.448ZM567.448 381.872H569.772V407.184H567.448V381.872ZM574.81 394.556H597.77V396.46H574.81V394.556ZM585.086 390.72H587.382V395.424H585.086V390.72ZM585.058 382.264H587.074V383.384C587.074 387.948 582.23 391.196 577.078 392.036L576.182 390.188C580.718 389.572 585.058 386.772 585.058 383.384V382.264ZM585.422 382.264H587.41V383.384C587.41 386.772 591.778 389.572 596.286 390.188L595.418 392.036C590.294 391.168 585.422 387.948 585.422 383.384V382.264ZM577.358 398.924H594.858V407.184H592.534V400.8H577.358V398.924ZM607.035 384.448H608.939V386.492C608.939 391.112 606.083 395.06 601.855 396.628L600.651 394.78C604.431 393.436 607.035 390.076 607.035 386.492V384.448ZM607.483 384.448H609.359V386.492C609.359 389.74 611.823 392.904 615.491 394.192L614.315 396.04C610.199 394.528 607.483 390.72 607.483 386.492V384.448ZM614.119 388.452H619.747V390.384H614.119V388.452ZM601.379 383.608H614.903V385.484H601.379V383.608ZM604.515 398.392H621.399V407.184H619.075V400.296H604.515V398.392ZM619.075 381.872H621.399V397.02H619.075V381.872ZM646.94 387.892H653.744V389.824H646.94V387.892ZM641.116 383.02C644.896 383.02 647.64 385.428 647.64 388.9C647.64 392.372 644.896 394.752 641.116 394.752C637.336 394.752 634.592 392.372 634.592 388.9C634.592 385.428 637.336 383.02 641.116 383.02ZM641.116 384.98C638.624 384.98 636.832 386.576 636.832 388.9C636.832 391.196 638.624 392.82 641.116 392.82C643.608 392.82 645.4 391.196 645.4 388.9C645.4 386.576 643.608 384.98 641.116 384.98ZM652.708 381.872H655.032V395.452H652.708V381.872ZM638.82 396.712H641.144V399.904H652.736V396.712H655.032V406.848H638.82V396.712ZM641.144 401.752V404.972H652.736V401.752H641.144ZM679.222 381.872H681.462V407.184H679.222V381.872ZM668.722 391.532H675.078V393.436H668.722V391.532ZM674.126 382.46H676.338V405.896H674.126V382.46ZM660.91 399.148H662.534C666.482 399.148 668.862 399.036 671.662 398.448L671.886 400.38C669.002 400.996 666.566 401.108 662.534 401.108H660.91V399.148ZM660.91 384.952H670.43V386.856H663.206V399.904H660.91V384.952ZM704.112 381.844H706.436V407.212H704.112V381.844ZM693.08 383.804C696.832 383.804 699.52 387.248 699.52 392.624C699.52 398.028 696.832 401.472 693.08 401.472C689.356 401.472 686.668 398.028 686.668 392.624C686.668 387.248 689.356 383.804 693.08 383.804ZM693.08 385.904C690.616 385.904 688.88 388.536 688.88 392.624C688.88 396.74 690.616 399.428 693.08 399.428C695.572 399.428 697.28 396.74 697.28 392.624C697.28 388.536 695.572 385.904 693.08 385.904ZM714.442 395.508H731.83V397.384H714.442V395.508ZM711.502 402.004H734.434V403.936H711.502V402.004ZM714.442 384.028H731.55V385.932H716.794V396.096H714.442V384.028ZM716.038 389.684H731.018V391.532H716.038V389.684ZM737.259 402.144H760.191V404.076H737.259V402.144ZM747.507 396.712H749.831V402.956H747.507V396.712ZM740.031 383.748H757.363V391.42H742.411V396.488H740.115V389.544H755.067V385.624H740.031V383.748ZM740.115 395.508H757.951V397.412H740.115V395.508ZM521.832 419.872H524.072V445.184H521.832V419.872ZM517.828 429.896H522.672V431.8H517.828V429.896ZM516.232 420.404H518.444V443.924H516.232V420.404ZM503.464 422.784H513.124V438.408H503.464V422.784ZM510.94 424.632H505.648V436.56H510.94V424.632ZM538.574 432.472H540.898V436.308H538.574V432.472ZM528.326 431.1H551.174V432.892H528.326V431.1ZM538.602 419.704H540.898V422.784H538.602V419.704ZM538.49 423.008H540.534V423.4C540.534 427.376 535.802 429.504 530.202 429.98L529.53 428.188C534.514 427.88 538.49 426.116 538.49 423.4V423.008ZM538.966 423.008H541.01V423.4C541.01 426.116 544.986 427.88 549.942 428.188L549.27 429.98C543.67 429.504 538.966 427.376 538.966 423.4V423.008ZM530.65 422.084H548.85V423.848H530.65V422.084ZM531.07 435.188H548.262V440.76H533.422V443.812H531.126V439.108H545.966V436.952H531.07V435.188ZM531.126 443.14H549.018V444.904H531.126V443.14ZM564.871 421.076H581.167V422.98H564.871V421.076ZM561.959 430.512H584.891V432.416H561.959V430.512ZM579.655 421.076H581.923V422.812C581.923 424.884 581.923 427.572 581.139 431.268L578.871 431.016C579.655 427.404 579.655 424.828 579.655 422.812V421.076ZM564.395 436.196H582.091V445.268H579.767V438.072H564.395V436.196ZM606.952 419.872H609.192V445.184H606.952V419.872ZM602.668 430.008H607.54V431.94H602.668V430.008ZM601.212 420.432H603.396V443.896H601.212V420.432ZM588.612 437.008H590.264C593.96 437.008 596.48 436.868 599.42 436.252L599.644 438.184C596.62 438.828 594.072 438.94 590.264 438.94H588.612V437.008ZM588.612 422.952H598.02V424.856H590.908V437.876H588.612V422.952ZM620.026 434.964H622.35V439.08H620.026V434.964ZM630.666 419.872H632.99V445.184H630.666V419.872ZM632.234 430.624H636.91V432.584H632.234V430.624ZM613.502 440.368L613.166 438.436C617.702 438.436 623.89 438.38 629.126 437.624L629.322 439.36C623.862 440.34 617.926 440.368 613.502 440.368ZM613.586 422.924H628.734V424.8H613.586V422.924ZM621.174 426.284C624.702 426.284 627.138 428.132 627.138 430.96C627.138 433.816 624.702 435.636 621.174 435.636C617.646 435.636 615.238 433.816 615.238 430.96C615.238 428.132 617.646 426.284 621.174 426.284ZM621.174 428.076C618.906 428.076 617.422 429.224 617.422 430.96C617.422 432.696 618.906 433.844 621.174 433.844C623.442 433.844 624.954 432.696 624.954 430.96C624.954 429.224 623.442 428.076 621.174 428.076ZM620.026 419.9H622.35V424.184H620.026V419.9Z" fill="white"/>
<line x1="543" y1="302" x2="595" y2="302" stroke="white" stroke-width="4"/>
<rect x="904" width="248" height="248" rx="124" fill="white"/>
<path d="M999.845 81.56H1005.2V108.16H999.845V81.56ZM980.525 113.68H1006.12V117.92H980.525V113.68ZM980.525 105.48H985.845V115.4H980.525V105.48ZM985.045 83.88C990.725 83.88 995.085 87.8 995.085 93.28C995.085 98.72 990.725 102.68 985.045 102.68C979.365 102.68 974.965 98.72 974.965 93.28C974.965 87.8 979.365 83.88 985.045 83.88ZM985.045 88.48C982.285 88.48 980.165 90.24 980.165 93.28C980.165 96.28 982.285 98.04 985.045 98.04C987.765 98.04 989.885 96.28 989.885 93.28C989.885 90.24 987.765 88.48 985.045 88.48ZM1011.24 109.92H1044.76V114.28H1011.24V109.92ZM1013.8 84.72H1042V88.96H1013.8V84.72ZM1013.96 100.04H1041.88V104.32H1013.96V100.04ZM1018.84 88.64H1024.16V100.44H1018.84V88.64ZM1031.68 88.64H1036.96V100.44H1031.68V88.64ZM1071.76 81.48H1077.04V118.64H1071.76V81.48ZM1075.84 95.48H1082.4V99.88H1075.84V95.48ZM1049.52 105.68H1052.64C1058.92 105.68 1063.8 105.48 1069.24 104.52L1069.76 108.8C1064.16 109.8 1059.08 110.04 1052.64 110.04H1049.52V105.68ZM1049.48 84.64H1066.52V99H1054.8V107.32H1049.52V94.76H1061.24V88.88H1049.48V84.64ZM996.643 131.68H1019.88V135.88H996.643V131.68ZM992.843 147.44H1026.32V151.72H992.843V147.44ZM1006.72 150.44H1012.08V166.6H1006.72V150.44ZM1017.16 131.68H1022.4V134.96C1022.4 138.96 1022.4 143.44 1020.96 150L1015.72 149.4C1017.16 143.2 1017.16 138.8 1017.16 134.96V131.68ZM1038.2 131.44H1042.64V134.76C1042.64 142.2 1039.32 148.72 1032.04 151.16L1029.28 146.88C1035.6 144.84 1038.2 139.84 1038.2 134.76V131.44ZM1039.32 131.44H1043.6V134.52C1043.6 139.44 1046 144 1051.88 145.88L1049.12 150.04C1042.28 147.68 1039.32 141.72 1039.32 134.52V131.44ZM1055.28 129.52H1060.6V151.2H1055.28V129.52ZM1048.04 152.16C1055.88 152.16 1060.72 154.84 1060.72 159.36C1060.72 163.92 1055.88 166.56 1048.04 166.56C1040.2 166.56 1035.36 163.92 1035.36 159.36C1035.36 154.84 1040.2 152.16 1048.04 152.16ZM1048.04 156.28C1043.24 156.28 1040.68 157.28 1040.68 159.36C1040.68 161.44 1043.24 162.48 1048.04 162.48C1052.88 162.48 1055.44 161.44 1055.44 159.36C1055.44 157.28 1052.88 156.28 1048.04 156.28ZM1048.52 136.24H1056.04V140.56H1048.52V136.24Z" fill="#F28C68"/>
<path d="M961.685 350.004H967.313V351.908H961.685V350.004ZM966.669 343.872H968.993V357.62H966.669V343.872ZM952.781 358.852H955.077V361.932H966.697V358.852H968.993V368.848H952.781V358.852ZM955.077 363.808V366.944H966.697V363.808H955.077ZM954.629 345.86H956.533V347.932C956.533 352.524 953.677 356.5 949.449 358.068L948.245 356.192C952.025 354.876 954.629 351.516 954.629 347.932V345.86ZM955.077 345.86H956.953V347.904C956.953 351.18 959.417 354.344 963.085 355.632L961.909 357.452C957.793 355.968 955.077 352.16 955.077 347.904V345.86ZM948.973 345.384H962.497V347.26H948.973V345.384ZM976.859 345.356H993.015V347.26H976.859V345.356ZM973.947 355.492H996.879V357.424H973.947V355.492ZM991.643 345.356H993.911V347.344C993.911 349.668 993.911 352.44 993.099 356.304L990.831 356.052C991.643 352.3 991.643 349.612 991.643 347.344V345.356ZM976.943 366.692H994.667V368.624H976.943V366.692ZM976.943 360.224H979.267V366.972H976.943V360.224ZM1006.06 345.3H1007.99V347.904C1007.99 352.804 1005.22 356.808 1000.88 358.432L999.677 356.528C1003.54 355.156 1006.06 351.768 1006.06 347.904V345.3ZM1006.48 345.3H1008.38V347.82C1008.38 351.404 1010.85 354.568 1014.54 355.856L1013.28 357.676C1009.2 356.136 1006.48 352.412 1006.48 347.82V345.3ZM1018.18 343.872H1020.51V358.852H1018.18V343.872ZM1012.19 359.58C1017.4 359.58 1020.62 361.344 1020.62 364.368C1020.62 367.392 1017.4 369.128 1012.19 369.128C1006.96 369.128 1003.74 367.392 1003.74 364.368C1003.74 361.344 1006.96 359.58 1012.19 359.58ZM1012.19 361.428C1008.38 361.428 1006.06 362.52 1006.06 364.368C1006.06 366.216 1008.38 367.308 1012.19 367.308C1016 367.308 1018.32 366.216 1018.32 364.368C1018.32 362.52 1016 361.428 1012.19 361.428ZM1012.7 349.22H1018.69V351.152H1012.7V349.22ZM1036.89 344.292C1042.46 344.292 1045.79 345.86 1045.79 348.688C1045.79 351.516 1042.46 353.084 1036.89 353.084C1031.29 353.084 1027.98 351.516 1027.98 348.688C1027.98 345.86 1031.29 344.292 1036.89 344.292ZM1036.89 346.056C1032.74 346.056 1030.36 347.008 1030.36 348.688C1030.36 350.368 1032.74 351.32 1036.89 351.32C1041 351.32 1043.38 350.368 1043.38 348.688C1043.38 347.008 1041 346.056 1036.89 346.056ZM1025.43 354.764H1048.31V356.64H1025.43V354.764ZM1028.21 358.796H1045.4V364.508H1030.56V367.588H1028.26V362.828H1043.1V360.588H1028.21V358.796ZM1028.26 367.084H1046.15V368.904H1028.26V367.084ZM1062.2 350.34H1079.4V352.216H1062.2V350.34ZM1062.2 344.432H1064.5V351.544H1062.2V344.432ZM1059.1 355.408H1081.97V357.256H1059.1V355.408ZM1069.37 351.572H1071.67V356.668H1069.37V351.572ZM1061.64 359.776H1079.45V361.652H1061.64V359.776ZM1061.39 366.972H1079.68V368.848H1061.39V366.972ZM1065.48 360.336H1067.78V367.84H1065.48V360.336ZM1073.29 360.336H1075.59V367.84H1073.29V360.336ZM1096.25 349.5H1103.89V351.432H1096.25V349.5ZM1096.25 357.508H1103.89V359.44H1096.25V357.508ZM1091.6 345.804C1095.27 345.804 1097.9 349.248 1097.9 354.624C1097.9 360.028 1095.27 363.472 1091.6 363.472C1087.91 363.472 1085.3 360.028 1085.3 354.624C1085.3 349.248 1087.91 345.804 1091.6 345.804ZM1091.6 347.904C1089.17 347.904 1087.49 350.536 1087.49 354.624C1087.49 358.74 1089.17 361.428 1091.6 361.428C1094.04 361.428 1095.72 358.74 1095.72 354.624C1095.72 350.536 1094.04 347.904 1091.6 347.904ZM1103.39 343.844H1105.69V369.212H1103.39V343.844ZM899.932 397.048H902.284V401.22H899.932V397.048ZM911.02 381.872H913.344V407.184H911.02V381.872ZM893.184 402.368L892.876 400.436C897.664 400.408 903.964 400.352 909.424 399.652L909.592 401.36C903.964 402.312 897.86 402.368 893.184 402.368ZM893.408 384.952H908.78V386.828H893.408V384.952ZM901.08 388.284C904.72 388.284 907.184 390.132 907.184 392.96C907.184 395.816 904.72 397.636 901.08 397.636C897.468 397.636 895.004 395.816 895.004 392.96C895.004 390.132 897.468 388.284 901.08 388.284ZM901.08 390.076C898.812 390.076 897.216 391.224 897.216 392.96C897.216 394.696 898.812 395.844 901.08 395.844C903.376 395.844 904.972 394.696 904.972 392.96C904.972 391.224 903.376 390.076 901.08 390.076ZM899.932 381.872H902.256V385.988H899.932V381.872ZM925.662 394.612H927.986V400.24H925.662V394.612ZM936.89 381.872H939.214V401.136H936.89V381.872ZM921.938 404.72H939.83V406.624H921.938V404.72ZM921.938 399.26H924.262V405.252H921.938V399.26ZM918.662 395.48L918.354 393.576C923.03 393.576 929.302 393.52 934.678 392.82L934.846 394.528C929.386 395.396 923.254 395.48 918.662 395.48ZM931.738 396.824H937.478V398.532H931.738V396.824ZM926.586 382.908C930.282 382.908 932.802 384.644 932.802 387.304C932.802 389.992 930.282 391.728 926.586 391.728C922.862 391.728 920.342 389.992 920.342 387.304C920.342 384.644 922.862 382.908 926.586 382.908ZM926.586 384.644C924.206 384.644 922.554 385.68 922.554 387.304C922.554 388.928 924.206 389.964 926.586 389.964C928.938 389.964 930.59 388.928 930.59 387.304C930.59 385.68 928.938 384.644 926.586 384.644ZM954.472 382.768H956.516V384.168C956.516 389.012 951.588 392.484 946.324 393.38L945.4 391.504C950.02 390.804 954.472 387.78 954.472 384.168V382.768ZM954.892 382.768H956.908V384.168C956.908 387.696 961.416 390.804 965.98 391.504L965.056 393.38C959.848 392.484 954.892 388.956 954.892 384.168V382.768ZM954.472 397.552H956.768V407.184H954.472V397.552ZM944.252 396.124H967.128V398.056H944.252V396.124ZM984.492 393.744H986.816V396.992H984.492V393.744ZM995.16 381.9H997.484V398.868H995.16V381.9ZM996.504 389.544H1001.18V391.476H996.504V389.544ZM978.024 398.14L977.716 396.236C982.252 396.236 988.412 396.236 993.648 395.48L993.844 397.132C988.44 398.084 982.448 398.112 978.024 398.14ZM980.852 400.128H997.484V407.184H995.16V401.976H980.852V400.128ZM978.36 384.168H992.892V385.904H978.36V384.168ZM985.64 386.884C989.196 386.884 991.52 388.312 991.52 390.636C991.52 392.96 989.196 394.388 985.64 394.388C982.056 394.388 979.732 392.96 979.732 390.636C979.732 388.312 982.056 386.884 985.64 386.884ZM985.64 388.48C983.372 388.48 981.916 389.292 981.916 390.636C981.916 391.924 983.372 392.764 985.64 392.764C987.88 392.764 989.336 391.924 989.336 390.636C989.336 389.292 987.88 388.48 985.64 388.48ZM984.492 381.676H986.816V385.008H984.492V381.676ZM1003.64 402.032H1026.57V403.964H1003.64V402.032ZM1013.89 395.984H1016.21V402.592H1013.89V395.984ZM1006.33 383.664H1008.63V388.172H1021.53V383.664H1023.83V396.6H1006.33V383.664ZM1008.63 390.048V394.696H1021.53V390.048H1008.63ZM1039.65 391.7H1044.44V393.632H1039.65V391.7ZM1048.66 381.872H1050.9V407.184H1048.66V381.872ZM1043.65 382.404H1045.86V405.924H1043.65V382.404ZM1035.08 383.972C1038.36 383.972 1040.49 387.36 1040.49 392.792C1040.49 398.224 1038.36 401.612 1035.08 401.612C1031.81 401.612 1029.71 398.224 1029.71 392.792C1029.71 387.36 1031.81 383.972 1035.08 383.972ZM1035.08 386.128C1033.1 386.128 1031.84 388.704 1031.84 392.792C1031.84 396.88 1033.1 399.456 1035.08 399.456C1037.1 399.456 1038.36 396.88 1038.36 392.792C1038.36 388.704 1037.1 386.128 1035.08 386.128ZM1068.88 397.524H1071.26V407.184H1068.88V397.524ZM1077.59 397.524H1079.97V407.184H1077.59V397.524ZM1063 396.264H1085.96V398.196H1063V396.264ZM1074.43 382.88C1079.72 382.88 1083.28 385.008 1083.28 388.396C1083.28 391.756 1079.72 393.912 1074.43 393.912C1069.16 393.912 1065.58 391.756 1065.58 388.396C1065.58 385.008 1069.16 382.88 1074.43 382.88ZM1074.43 384.756C1070.56 384.756 1067.93 386.184 1067.93 388.396C1067.93 390.608 1070.56 392.036 1074.43 392.036C1078.29 392.036 1080.9 390.608 1080.9 388.396C1080.9 386.184 1078.29 384.756 1074.43 384.756ZM1107.21 381.844H1109.54V407.212H1107.21V381.844ZM1090.25 399.176H1092.35C1096.57 399.176 1100.35 399.008 1104.83 398.28L1105.09 400.184C1100.49 400.94 1096.69 401.108 1092.35 401.108H1090.25V399.176ZM1090.19 384.224H1101.89V393.268H1092.57V399.904H1090.25V391.364H1099.54V386.128H1090.19V384.224ZM1131.68 381.872H1134.01V407.184H1131.68V381.872ZM1133.45 392.26H1138.15V394.22H1133.45V392.26ZM1114.41 385.904H1129.33V387.808H1114.41V385.904ZM1121.97 389.908C1125.55 389.908 1128.13 392.316 1128.13 395.732C1128.13 399.148 1125.55 401.556 1121.97 401.556C1118.41 401.556 1115.81 399.148 1115.81 395.732C1115.81 392.316 1118.41 389.908 1121.97 389.908ZM1121.97 391.84C1119.67 391.84 1118.02 393.436 1118.02 395.732C1118.02 398 1119.67 399.624 1121.97 399.624C1124.26 399.624 1125.92 398 1125.92 395.732C1125.92 393.436 1124.26 391.84 1121.97 391.84ZM1120.76 382.18H1123.09V386.772H1120.76V382.18ZM1151.93 387.92H1159.74V389.824H1151.93V387.92ZM1151.93 394.892H1159.74V396.824H1151.93V394.892ZM1141.31 384.336H1152.82V400.8H1141.31V384.336ZM1150.53 386.212H1143.58V398.924H1150.53V386.212ZM1158.84 381.844H1161.14V407.212H1158.84V381.844ZM941.621 420.516H943.609V421.748C943.609 426.34 938.765 429.728 933.641 430.624L932.717 428.776C937.197 428.104 941.621 425.136 941.621 421.748V420.516ZM941.985 420.516H943.973V421.748C943.973 425.052 948.453 428.076 952.849 428.748L951.981 430.568C946.857 429.7 941.985 426.228 941.985 421.748V420.516ZM931.345 432.752H954.277V434.656H931.345V432.752ZM941.817 433.928H944.141V439.752H941.817V433.928ZM934.257 442.72H951.729V444.624H934.257V442.72ZM934.257 437.316H936.553V443.336H934.257V437.316ZM974.406 419.872H976.73V439.696H974.406V419.872ZM975.75 428.692H980.426V430.624H975.75V428.692ZM960.714 442.72H977.626V444.624H960.714V442.72ZM960.714 438.38H963.038V443.308H960.714V438.38ZM963.738 432.248H966.062V435.692H963.738V432.248ZM957.27 436.784L956.962 434.908C961.442 434.908 967.686 434.824 972.894 434.012L973.09 435.664C967.742 436.644 961.666 436.756 957.27 436.784ZM957.606 422.336H972.138V424.1H957.606V422.336ZM964.886 425.136C968.442 425.136 970.766 426.62 970.766 429.028C970.766 431.464 968.442 432.948 964.886 432.948C961.33 432.948 958.978 431.464 958.978 429.028C958.978 426.62 961.33 425.136 964.886 425.136ZM964.886 426.788C962.618 426.788 961.162 427.656 961.162 429.028C961.162 430.428 962.618 431.268 964.886 431.268C967.126 431.268 968.582 430.428 968.582 429.028C968.582 427.656 967.126 426.788 964.886 426.788ZM963.738 419.76H966.062V423.12H963.738V419.76ZM993.619 421.524H1009.44V423.4H993.619V421.524ZM990.763 432.388H1013.64V434.292H990.763V432.388ZM1000.98 433.648H1003.31V445.212H1000.98V433.648ZM1008.35 421.524H1010.62V423.708C1010.62 426.34 1010.62 429.308 1009.66 433.592L1007.37 433.284C1008.35 429.196 1008.35 426.256 1008.35 423.708V421.524ZM1016.52 440.004H1039.45V441.936H1016.52V440.004ZM1026.83 433.872H1029.12V440.648H1026.83V433.872ZM1026.77 423.064H1028.73V424.632C1028.73 429.812 1023.55 433.732 1018.57 434.768L1017.61 432.92C1021.98 432.192 1026.77 428.636 1026.77 424.632V423.064ZM1027.19 423.064H1029.15V424.632C1029.15 428.636 1033.97 432.108 1038.39 432.836L1037.47 434.684C1032.4 433.676 1027.19 429.812 1027.19 424.632V423.064ZM1018.4 422.168H1037.52V424.072H1018.4V422.168ZM1042.25 431.632H1065.21V433.396H1042.25V431.632ZM1044.97 435.44H1062.33V440.844H1047.35V443.812H1045.05V439.248H1060.06V437.092H1044.97V435.44ZM1045.05 443.196H1063.14V444.876H1045.05V443.196ZM1045.16 420.6H1062.24V425.864H1047.51V428.608H1045.22V424.296H1059.97V422.252H1045.16V420.6ZM1045.22 428.048H1062.72V429.728H1045.22V428.048ZM1081.76 435.524H1084.14V445.184H1081.76V435.524ZM1090.47 435.524H1092.85V445.184H1090.47V435.524ZM1075.88 434.264H1098.84V436.196H1075.88V434.264ZM1087.31 420.88C1092.6 420.88 1096.16 423.008 1096.16 426.396C1096.16 429.756 1092.6 431.912 1087.31 431.912C1082.04 431.912 1078.46 429.756 1078.46 426.396C1078.46 423.008 1082.04 420.88 1087.31 420.88ZM1087.31 422.756C1083.44 422.756 1080.81 424.184 1080.81 426.396C1080.81 428.608 1083.44 430.036 1087.31 430.036C1091.17 430.036 1093.78 428.608 1093.78 426.396C1093.78 424.184 1091.17 422.756 1087.31 422.756ZM1108.36 423.484H1110.24V427.6C1110.24 432.948 1107.02 438.324 1102.99 440.312L1101.64 438.464C1105.31 436.728 1108.36 431.968 1108.36 427.6V423.484ZM1108.81 423.484H1110.69V427.6C1110.69 431.884 1113.74 436.252 1117.46 437.848L1116.15 439.696C1112.06 437.792 1108.81 432.864 1108.81 427.6V423.484ZM1102.48 422.448H1116.62V424.408H1102.48V422.448ZM1120.04 419.872H1122.36V445.184H1120.04V419.872Z" fill="white"/>
<line x1="1002" y1="302" x2="1054" y2="302" stroke="white" stroke-width="4"/>
</svg>
