<svg width="825" height="314" viewBox="0 0 825 314" fill="none" xmlns="http://www.w3.org/2000/svg">
<path d="M99.8198 0.868H104.392V34.204H99.8198V0.868ZM93.2318 1.516H97.6958V32.656H93.2318V1.516ZM75.6998 4.54H90.8558V8.356H75.6998V4.54ZM75.6278 26.788L75.1238 22.9C79.4798 22.9 86.4638 22.828 91.3238 22.252L91.6118 25.708C86.5718 26.68 79.8758 26.788 75.6278 26.788ZM77.7878 7.06H82.0718V23.764H77.7878V7.06ZM84.5198 7.06H88.8038V23.764H84.5198V7.06ZM90.1358 10.048H95.7158V13.936H90.1358V10.048ZM90.1358 16.708H95.7158V20.596H90.1358V16.708ZM125.413 8.212H133.765V12.064H125.413V8.212ZM117.781 2.236C122.785 2.236 126.565 5.584 126.565 10.192C126.565 14.836 122.785 18.148 117.781 18.148C112.741 18.148 108.961 14.836 108.961 10.192C108.961 5.584 112.741 2.236 117.781 2.236ZM117.781 6.232C115.333 6.232 113.533 7.708 113.533 10.192C113.533 12.676 115.333 14.188 117.781 14.188C120.229 14.188 121.993 12.676 121.993 10.192C121.993 7.708 120.229 6.232 117.781 6.232ZM131.677 0.868H136.465V18.796H131.677V0.868ZM114.325 20.236H119.077V23.404H131.713V20.236H136.465V33.844H114.325V20.236ZM119.077 27.076V30.028H131.713V27.076H119.077ZM142.006 20.524H171.526V22.972H142.006V20.524ZM155.182 21.676H158.134V33.808H155.182V21.676ZM145.714 2.56H148.702V7.024H164.794V2.56H167.746V16.636H145.714V2.56ZM148.702 9.436V14.224H164.794V9.436H148.702ZM198.991 1.228H201.943V33.844H198.991V1.228ZM192.223 13.504H199.423V15.988H192.223V13.504ZM176.635 23.548H179.119C185.239 23.548 189.091 23.44 193.663 22.576L193.951 25.024C189.271 25.852 185.311 26.032 179.119 26.032H176.635V23.548ZM176.635 4.216H191.683V6.7H179.587V24.412H176.635V4.216ZM178.831 13.36H190.279V15.772H178.831V13.36ZM241.604 0.868H246.14V34.204H241.604V0.868ZM237.608 13.648H243.152V17.536H237.608V13.648ZM234.44 1.372H238.904V32.692H234.44V1.372ZM223.208 6.052H226.844V9.004C226.844 17.248 225.044 24.52 219.5 27.868L216.62 24.196C221.624 21.316 223.208 15.412 223.208 9.004V6.052ZM224.18 6.052H227.852V9.004C227.852 14.872 229.544 20.416 234.512 23.008L231.776 26.644C226.16 23.62 224.18 16.744 224.18 9.004V6.052ZM217.7 4.252H232.856V8.104H217.7V4.252ZM257.873 6.736H261.725V7.96C261.725 13.756 258.737 18.904 252.401 20.74L250.133 17.032C255.533 15.52 257.873 11.704 257.873 7.96V6.736ZM258.773 6.736H262.661V7.96C262.661 11.344 264.965 14.8 270.329 16.204L268.169 19.948C261.761 18.256 258.773 13.36 258.773 7.96V6.736ZM251.321 4.324H269.213V8.068H251.321V4.324ZM257.873 0.759999H262.661V5.8H257.873V0.759999ZM271.841 0.868H276.629V20.956H271.841V0.868ZM275.297 8.68H281.057V12.604H275.297V8.68ZM265.757 21.568C272.705 21.568 277.025 23.908 277.025 27.904C277.025 31.9 272.705 34.204 265.757 34.204C258.773 34.204 254.453 31.9 254.453 27.904C254.453 23.908 258.773 21.568 265.757 21.568ZM265.757 25.24C261.473 25.24 259.205 26.068 259.205 27.904C259.205 29.704 261.473 30.568 265.757 30.568C270.005 30.568 272.273 29.704 272.273 27.904C272.273 26.068 270.005 25.24 265.757 25.24ZM300.351 8.212H308.703V12.064H300.351V8.212ZM292.719 2.236C297.723 2.236 301.503 5.584 301.503 10.192C301.503 14.836 297.723 18.148 292.719 18.148C287.679 18.148 283.899 14.836 283.899 10.192C283.899 5.584 287.679 2.236 292.719 2.236ZM292.719 6.232C290.271 6.232 288.471 7.708 288.471 10.192C288.471 12.676 290.271 14.188 292.719 14.188C295.167 14.188 296.931 12.676 296.931 10.192C296.931 7.708 295.167 6.232 292.719 6.232ZM306.615 0.868H311.403V18.796H306.615V0.868ZM289.263 20.236H294.015V23.404H306.651V20.236H311.403V33.844H289.263V20.236ZM294.015 27.076V30.028H306.651V27.076H294.015ZM339.552 1.264H342.504V33.808H339.552V1.264ZM341.568 14.656H347.364V17.176H341.568V14.656ZM323.964 4.756H326.7C326.7 12.604 325.044 20.2 319.212 26.5L316.8 24.808C322.164 19.228 323.964 12.46 323.964 5.08V4.756ZM317.844 4.756H325.08V7.24H317.844V4.756ZM332.82 4.756H335.592C335.592 12.64 334.476 21.568 328.5 28.66L326.088 27.004C331.596 20.632 332.82 12.568 332.82 5.044V4.756ZM327.744 4.756H334.044V7.24H327.744V4.756ZM358.701 5.908H361.113V11.2C361.113 18.076 356.973 24.988 351.789 27.544L350.061 25.168C354.777 22.936 358.701 16.816 358.701 11.2V5.908ZM359.277 5.908H361.689V11.2C361.689 16.708 365.613 22.324 370.401 24.376L368.709 26.752C363.453 24.304 359.277 17.968 359.277 11.2V5.908ZM351.141 4.576H369.321V7.096H351.141V4.576ZM373.713 1.264H376.701V33.808H373.713V1.264ZM402.322 16.384H405.274V22.504H402.322V16.384ZM397.642 21.568H400.63V25.06H416.074V21.568H419.026V33.376H397.642V21.568ZM400.63 27.4V30.964H416.074V27.4H400.63ZM416.038 1.264H419.026V19.948H416.038V1.264ZM392.998 17.968L392.602 15.52C398.686 15.52 406.786 15.484 413.878 14.548L414.094 16.708C406.822 17.932 398.938 17.968 392.998 17.968ZM401.926 2.056H404.338V3.676C404.338 8.392 400.774 12.1 395.338 13.468L394.006 11.2C398.758 10.048 401.926 7.096 401.926 3.676V2.056ZM402.574 2.056H405.022V3.676C405.022 6.988 408.226 9.724 412.87 10.696L411.61 13C406.21 11.74 402.574 8.248 402.574 3.676V2.056ZM434.287 5.908H436.699V11.2C436.699 18.076 432.559 24.988 427.375 27.544L425.647 25.168C430.363 22.936 434.287 16.816 434.287 11.2V5.908ZM434.863 5.908H437.275V11.2C437.275 16.708 441.199 22.324 445.987 24.376L444.295 26.752C439.039 24.304 434.863 17.968 434.863 11.2V5.908ZM426.727 4.576H444.907V7.096H426.727V4.576ZM449.299 1.264H452.287V33.808H449.299V1.264ZM477.116 3.1C481.976 3.1 485.54 6.196 485.54 10.624C485.54 15.052 481.976 18.148 477.116 18.148C472.292 18.148 468.728 15.052 468.728 10.624C468.728 6.196 472.292 3.1 477.116 3.1ZM477.116 5.548C474.02 5.548 471.644 7.672 471.644 10.624C471.644 13.576 474.02 15.7 477.116 15.7C480.284 15.7 482.66 13.576 482.66 10.624C482.66 7.672 480.284 5.548 477.116 5.548ZM490.4 1.264H493.388V17.464H490.4V1.264ZM492.092 8.572H498.212V11.02H492.092V8.572ZM471.536 30.496H473.084C475.028 30.496 478.16 30.316 480.932 29.38L481.436 31.792C478.304 32.8 475.316 32.944 473.084 32.944H471.536V30.496ZM471.536 20.992H474.452V31.36H471.536V20.992ZM480.248 21.208H496.592V23.44H480.248V21.208ZM488.456 24.592C491.984 24.592 494.468 26.356 494.468 29.164C494.468 32.008 491.984 33.772 488.456 33.772C484.892 33.772 482.408 32.008 482.408 29.164C482.408 26.356 484.892 24.592 488.456 24.592ZM488.456 26.716C486.44 26.716 485.072 27.688 485.072 29.164C485.072 30.676 486.44 31.648 488.456 31.648C490.4 31.648 491.804 30.676 491.804 29.164C491.804 27.688 490.4 26.716 488.456 26.716ZM486.98 18.292H489.896V22.936H486.98V18.292ZM510.341 3.172C515.237 3.172 518.837 6.304 518.837 10.84C518.837 15.376 515.237 18.508 510.341 18.508C505.445 18.508 501.845 15.376 501.845 10.84C501.845 6.304 505.445 3.172 510.341 3.172ZM510.341 5.692C507.101 5.692 504.761 7.78 504.761 10.84C504.761 13.9 507.101 15.988 510.341 15.988C513.581 15.988 515.921 13.9 515.921 10.84C515.921 7.78 513.581 5.692 510.341 5.692ZM523.517 1.264H526.505V19.804H523.517V1.264ZM525.677 9.04H531.329V11.524H525.677V9.04ZM509.045 21.244H511.349V23.008C511.349 27.292 508.721 31.612 504.041 33.412L502.529 31.18C506.633 29.668 509.045 26.14 509.045 23.008V21.244ZM509.693 21.244H511.925V23.008C511.925 26.32 513.833 29.848 517.793 31.432L516.497 33.7C511.781 31.864 509.693 27.364 509.693 23.008V21.244ZM521.069 21.244H523.301V23.008C523.301 26.86 521.177 31.72 516.497 33.7L515.201 31.432C519.125 29.668 521.069 25.852 521.069 23.008V21.244ZM521.645 21.244H523.985V23.008C523.985 26.392 526.361 29.776 530.465 31.18L528.989 33.412C524.237 31.684 521.645 27.544 521.645 23.008V21.244ZM536.222 17.824H538.67C544.682 17.824 548.498 17.608 552.926 16.744L553.214 19.192C548.678 20.056 544.79 20.272 538.67 20.272H536.222V17.824ZM536.222 3.928H551.126V6.376H539.174V18.58H536.222V3.928ZM558.146 1.264H561.134V25.024H558.146V1.264ZM549.038 10.264H558.83V12.676H549.038V10.264ZM540.326 30.856H561.998V33.304H540.326V30.856ZM540.326 23.26H543.314V32.26H540.326V23.26ZM585.423 4.072H587.871V9.904C587.871 17.392 583.839 24.34 578.511 27.04L576.675 24.592C581.499 22.288 585.423 16.06 585.423 9.904V4.072ZM585.927 4.072H588.375V9.904C588.375 15.844 592.263 21.82 597.087 24.052L595.287 26.428C589.995 23.836 585.927 17.14 585.927 9.904V4.072ZM600.471 1.228H603.459V33.844H600.471V1.228ZM632.22 1.264H635.208V25.06H632.22V1.264ZM634.272 11.128H640.032V13.612H634.272V11.128ZM623.328 3.784H626.496C626.496 12.208 620.592 18.364 611.268 21.352L609.972 18.904C618.18 16.384 623.328 11.344 623.328 5.08V3.784ZM611.304 3.784H624.84V6.232H611.304V3.784ZM614.904 30.64H636.648V33.088H614.904V30.64ZM614.904 22.648H617.892V31.612H614.904V22.648ZM652.405 17.572H681.925V20.02H652.405V17.572ZM665.617 12.64H668.569V18.688H665.617V12.64ZM665.581 1.768H668.173V3.208C668.173 9.076 661.945 13.252 655.321 14.332L654.169 11.956C660.001 11.164 665.581 7.564 665.581 3.208V1.768ZM666.049 1.768H668.605V3.208C668.605 7.564 674.221 11.164 680.017 11.956L678.901 14.332C672.313 13.216 666.049 9.076 666.049 3.208V1.768ZM655.681 23.188H678.181V33.808H675.193V25.6H655.681V23.188ZM698.734 13.9H704.89V16.384H698.734V13.9ZM710.326 1.264H713.206V33.808H710.326V1.264ZM703.882 1.948H706.726V32.188H703.882V1.948ZM692.866 3.964C697.078 3.964 699.814 8.32 699.814 15.304C699.814 22.288 697.078 26.644 692.866 26.644C688.654 26.644 685.954 22.288 685.954 15.304C685.954 8.32 688.654 3.964 692.866 3.964ZM692.866 6.736C690.31 6.736 688.69 10.048 688.69 15.304C688.69 20.56 690.31 23.872 692.866 23.872C695.458 23.872 697.078 20.56 697.078 15.304C697.078 10.048 695.458 6.736 692.866 6.736ZM734.911 12.28H743.983V14.728H734.911V12.28ZM727.063 4.072H729.511V9.868C729.511 17.176 725.659 24.16 720.511 26.932L718.603 24.556C723.391 22.18 727.063 15.916 727.063 9.868V4.072ZM727.639 4.072H730.051V9.868C730.051 15.808 733.723 21.712 738.439 23.944L736.675 26.356C731.419 23.692 727.639 16.996 727.639 9.868V4.072ZM742.507 1.228H745.459V33.844H742.507V1.228ZM93.128 57.228H96.152V89.844H93.128V57.228ZM95.432 70.08H101.48V72.6H95.432V70.08ZM72.5 79.224H75.056C81.068 79.224 85.28 79.008 90.14 78.108L90.464 80.628C85.46 81.564 81.176 81.744 75.056 81.744H72.5V79.224ZM72.5 60.396H87.62V62.844H75.452V80.34H72.5V60.396ZM112.817 60.072H115.265V65.904C115.265 73.392 111.233 80.34 105.905 83.04L104.069 80.592C108.893 78.288 112.817 72.06 112.817 65.904V60.072ZM113.321 60.072H115.769V65.904C115.769 71.844 119.657 77.82 124.481 80.052L122.681 82.428C117.389 79.836 113.321 73.14 113.321 65.904V60.072ZM127.865 57.228H130.853V89.844H127.865V57.228ZM154.674 59.784H157.122V62.376C157.122 67.992 153.414 72.564 147.87 74.328L146.394 71.952C151.326 70.476 154.674 66.66 154.674 62.376V59.784ZM155.214 59.784H157.662V62.376C157.662 66.228 160.902 69.756 165.69 71.124L164.286 73.5C158.85 71.844 155.214 67.524 155.214 62.376V59.784ZM147.402 59.064H164.826V61.512H147.402V59.064ZM168.966 57.264H171.954V74.004H168.966V57.264ZM170.658 64.32H176.742V66.804H170.658V64.32ZM151.29 75.552H171.954V83.436H154.314V88.44H151.362V81.24H169.038V77.892H151.29V75.552ZM151.362 87.18H173.142V89.484H151.362V87.18ZM182.931 65.796H198.555V68.1H182.931V65.796ZM182.931 58.632H198.195V60.972H185.991V66.84H182.931V58.632ZM189.159 67.092H192.147V72.528H189.159V67.092ZM203.523 57.264H206.511V74.76H203.523V57.264ZM180.411 74.004L180.015 71.628C186.315 71.592 194.271 71.448 201.003 70.692L201.183 72.78C194.271 73.788 186.531 74.004 180.411 74.004ZM185.055 76.236H206.511V83.832H188.043V88.008H185.091V81.564H203.595V78.612H185.055V76.236ZM185.091 87.072H207.627V89.448H185.091V87.072ZM235.444 58.416H238.072V60.216C238.072 66.444 231.736 70.908 224.968 72.06L223.78 69.648C229.72 68.748 235.444 64.86 235.444 60.216V58.416ZM235.984 58.416H238.576V60.216C238.576 64.752 244.372 68.748 250.24 69.648L249.052 72.06C242.356 70.908 235.984 66.372 235.984 60.216V58.416ZM235.444 77.424H238.396V89.808H235.444V77.424ZM222.304 75.588H251.716V78.072H222.304V75.588ZM287.021 57.264H290.009V76.344H287.021V57.264ZM289.181 65.436H294.833V67.92H289.181V65.436ZM266.105 59.208H269.057V64.104H278.237V59.208H281.153V74.292H266.105V59.208ZM269.057 66.516V71.88H278.237V66.516H269.057ZM268.085 77.964H278.417V89.808H275.465V80.412H268.085V77.964ZM279.965 77.964H290.009V89.808H287.057V80.412H279.965V77.964ZM311.066 69.9H317.222V72.384H311.066V69.9ZM322.658 57.264H325.538V89.808H322.658V57.264ZM316.214 57.948H319.058V88.188H316.214V57.948ZM305.198 59.964C309.41 59.964 312.146 64.32 312.146 71.304C312.146 78.288 309.41 82.644 305.198 82.644C300.986 82.644 298.286 78.288 298.286 71.304C298.286 64.32 300.986 59.964 305.198 59.964ZM305.198 62.736C302.642 62.736 301.022 66.048 301.022 71.304C301.022 76.56 302.642 79.872 305.198 79.872C307.79 79.872 309.41 76.56 309.41 71.304C309.41 66.048 307.79 62.736 305.198 62.736ZM344.067 76.344H346.875V80.412H352.563V76.344H355.335V89.376H344.067V76.344ZM346.875 82.644V87.036H352.563V82.644H346.875ZM361.635 76.164H363.939V78.864C363.939 83.292 361.707 87.756 357.207 89.664L355.695 87.396C359.619 85.74 361.635 82.176 361.635 78.864V76.164ZM362.247 76.164H364.551V78.864C364.551 82.356 366.567 85.884 370.491 87.396L368.979 89.664C364.443 87.792 362.247 83.472 362.247 78.864V76.164ZM356.703 64.896H365.451V67.38H356.703V64.896ZM349.215 58.704C354.075 58.704 357.603 61.728 357.603 66.192C357.603 70.62 354.075 73.68 349.215 73.68C344.355 73.68 340.827 70.62 340.827 66.192C340.827 61.728 344.355 58.704 349.215 58.704ZM349.215 61.188C346.011 61.188 343.707 63.24 343.707 66.192C343.707 69.108 346.011 71.196 349.215 71.196C352.419 71.196 354.723 69.108 354.723 66.192C354.723 63.24 352.419 61.188 349.215 61.188ZM364.119 57.264H367.107V74.508H364.119V57.264ZM381.756 77.1H384.096V78.972C384.096 83.292 381.432 87.612 376.752 89.412L375.24 87.18C379.344 85.668 381.756 82.14 381.756 78.972V77.1ZM382.44 77.1H384.672V78.972C384.672 82.284 386.58 85.848 390.504 87.432L389.244 89.7C384.528 87.864 382.44 83.328 382.44 78.972V77.1ZM393.816 77.1H396.012V78.972C396.012 82.824 393.888 87.72 389.244 89.7L387.948 87.432C391.836 85.632 393.816 81.816 393.816 78.972V77.1ZM394.392 77.1H396.732V78.972C396.732 82.392 399.108 85.776 403.284 87.18L401.736 89.412C397.02 87.684 394.392 83.508 394.392 78.972V77.1ZM389.46 65.4H398.064V67.884H389.46V65.4ZM382.332 59.1C387.12 59.1 390.684 62.232 390.684 66.732C390.684 71.196 387.12 74.328 382.332 74.328C377.544 74.328 374.016 71.196 374.016 66.732C374.016 62.232 377.544 59.1 382.332 59.1ZM382.332 61.584C379.164 61.584 376.86 63.744 376.86 66.732C376.86 69.72 379.164 71.844 382.332 71.844C385.464 71.844 387.804 69.72 387.804 66.732C387.804 63.744 385.464 61.584 382.332 61.584ZM397.236 57.264H400.224V75.804H397.236V57.264ZM408.429 73.824H410.877C416.889 73.824 420.705 73.608 425.133 72.744L425.421 75.192C420.885 76.056 416.997 76.272 410.877 76.272H408.429V73.824ZM408.429 59.928H423.333V62.376H411.381V74.58H408.429V59.928ZM430.353 57.264H433.341V81.024H430.353V57.264ZM421.245 66.264H431.037V68.676H421.245V66.264ZM412.533 86.856H434.205V89.304H412.533V86.856ZM412.533 79.26H415.521V88.26H412.533V79.26ZM472.678 57.228H475.666V89.844H472.678V57.228ZM450.898 60H453.85V68.604H463.246V60H466.234V81.996H450.898V60ZM453.85 70.98V79.548H463.246V70.98H453.85ZM483.763 58.92H486.715V63.924H495.535V58.92H498.451V73.824H483.763V58.92ZM486.715 66.264V71.376H495.535V66.264H486.715ZM497.623 65.256H506.839V67.704H497.623V65.256ZM505.939 57.264H508.927V75.048H505.939V57.264ZM488.083 76.632H491.035V80.556H505.975V76.632H508.927V89.376H488.083V76.632ZM491.035 82.932V86.928H505.975V82.932H491.035ZM529.984 57.804C537.148 57.804 541.432 59.82 541.432 63.456C541.432 67.092 537.148 69.108 529.984 69.108C522.784 69.108 518.536 67.092 518.536 63.456C518.536 59.82 522.784 57.804 529.984 57.804ZM529.984 60.072C524.656 60.072 521.596 61.296 521.596 63.456C521.596 65.616 524.656 66.84 529.984 66.84C535.276 66.84 538.336 65.616 538.336 63.456C538.336 61.296 535.276 60.072 529.984 60.072ZM515.26 71.268H544.672V73.68H515.26V71.268ZM518.824 76.452H540.928V83.796H521.848V87.756H518.896V81.636H537.976V78.756H518.824V76.452ZM518.896 87.108H541.9V89.448H518.896V87.108ZM580.013 57.264H583.001V73.824H580.013V57.264ZM581.705 64.248H587.789V66.732H581.705V64.248ZM562.337 75.372H583.001V83.364H565.361V88.224H562.409V81.096H580.085V77.748H562.337V75.372ZM562.409 86.964H584.189V89.376H562.409V86.964ZM566.729 58.416C571.625 58.416 575.153 61.404 575.153 65.652C575.153 69.936 571.625 72.924 566.729 72.924C561.905 72.924 558.341 69.936 558.341 65.652C558.341 61.404 561.905 58.416 566.729 58.416ZM566.729 60.864C563.597 60.864 561.257 62.844 561.257 65.652C561.257 68.496 563.597 70.476 566.729 70.476C569.933 70.476 572.273 68.496 572.273 65.652C572.273 62.844 569.933 60.864 566.729 60.864ZM614.642 57.228H617.63V89.844H614.642V57.228ZM608.234 64.68H615.434V67.128H608.234V64.68ZM592.07 79.764H594.482C599.522 79.764 603.662 79.62 608.63 78.828L608.918 81.312C603.806 82.104 599.63 82.284 594.482 82.284H592.07V79.764ZM591.998 60.18H606.218V71.844H595.022V80.34H592.07V69.396H603.266V62.664H591.998V60.18ZM608.018 73.572H615.218V76.02H608.018V73.572ZM627.707 72.852H650.063V75.3H627.707V72.852ZM623.999 82.932H653.483V85.416H623.999V82.932ZM627.707 60.252H649.739V62.736H630.695V73.932H627.707V60.252ZM680.768 57.264H683.792V75.156H680.768V57.264ZM658.772 72.024H661.4C667.304 72.024 671.66 71.844 676.88 70.98L677.204 73.464C671.84 74.292 667.448 74.472 661.4 74.472H658.772V72.024ZM658.7 58.848H673.46V67.668H661.688V73.644H658.772V65.328H670.544V61.26H658.7V58.848ZM662.732 76.776H665.684V80.592H680.84V76.776H683.792V89.376H662.732V76.776ZM665.684 82.968V86.928H680.84V82.968H665.684ZM713.886 57.264H716.874V89.808H713.886V57.264ZM692.286 60.432H695.238V80.592H692.286V60.432ZM692.286 78.828H694.95C699.882 78.828 705.03 78.468 710.538 77.316L710.898 79.872C705.246 81.024 700.098 81.42 694.95 81.42H692.286V78.828ZM745.347 57.228H748.371V89.844H745.347V57.228ZM747.651 70.08H753.699V72.6H747.651V70.08ZM724.719 79.224H727.275C733.287 79.224 737.499 79.008 742.359 78.108L742.683 80.628C737.679 81.564 733.395 81.744 727.275 81.744H724.719V79.224ZM724.719 60.396H739.839V62.844H727.671V80.34H724.719V60.396ZM125.665 243.432H129.265C137.137 243.432 142.273 243.24 148.033 242.184L148.657 247.32C142.705 248.424 137.377 248.664 129.265 248.664H125.665V243.432ZM125.665 218.76H145.777V223.848H132.049V245.4H125.665V218.76ZM154.513 214.824H160.897V259.416H154.513V214.824ZM143.617 230.136H157.201V235.32H143.617V230.136ZM198.189 214.776H204.621V259.368H198.189V214.776ZM180.669 217.896C187.389 217.896 192.333 224.04 192.333 233.736C192.333 243.528 187.389 249.672 180.669 249.672C173.949 249.672 169.005 243.528 169.005 233.736C169.005 224.04 173.949 217.896 180.669 217.896ZM180.669 223.704C177.357 223.704 175.101 227.208 175.101 233.736C175.101 240.36 177.357 243.912 180.669 243.912C183.981 243.912 186.189 240.36 186.189 233.736C186.189 227.208 183.981 223.704 180.669 223.704ZM221.609 217.224H226.841V221.16C226.841 229.992 223.001 237.768 214.553 240.696L211.145 235.656C218.585 233.16 221.609 227.208 221.609 221.16V217.224ZM222.905 217.224H228.089V221.784C228.089 227.112 231.065 232.296 238.025 234.456L234.713 239.4C226.697 236.712 222.905 229.8 222.905 221.784V217.224ZM240.473 214.824H246.857V241.08H240.473V214.824ZM245.081 225.096H252.761V230.376H245.081V225.096ZM232.361 242.088C241.577 242.088 247.385 245.304 247.385 250.68C247.385 256.104 241.577 259.272 232.361 259.272C223.097 259.272 217.289 256.104 217.289 250.68C217.289 245.304 223.097 242.088 232.361 242.088ZM232.361 247.032C226.697 247.032 223.625 248.232 223.625 250.68C223.625 253.176 226.697 254.328 232.361 254.328C238.025 254.328 241.049 253.176 241.049 250.68C241.049 248.232 238.025 247.032 232.361 247.032ZM268.49 240.456H308.666V245.4H268.49V240.456ZM285.386 236.232H291.77V242.472H285.386V236.232ZM273.338 253.56H304.154V258.504H273.338V253.56ZM273.338 247.512H279.722V256.68H273.338V247.512ZM270.41 218.424H306.602V223.224H270.41V218.424ZM288.602 224.472C298.058 224.472 303.482 226.824 303.482 231.24C303.482 235.656 298.058 238.056 288.602 238.056C279.146 238.056 273.722 235.656 273.722 231.24C273.722 226.824 279.146 224.472 288.602 224.472ZM288.602 228.936C282.794 228.936 280.25 229.608 280.25 231.24C280.25 232.872 282.794 233.544 288.602 233.544C294.362 233.544 296.954 232.872 296.954 231.24C296.954 229.608 294.362 228.936 288.602 228.936ZM285.386 214.632H291.77V221.496H285.386V214.632ZM322.631 221.832H327.671V226.824C327.671 236.856 323.447 247.08 315.287 250.92L311.687 245.88C319.031 242.424 322.631 234.12 322.631 226.824V221.832ZM323.975 221.832H329.015V226.824C329.015 233.544 332.471 241.416 339.767 244.776L336.263 249.816C328.103 246.024 323.975 236.28 323.975 226.824V221.832ZM313.415 219.096H337.799V224.328H313.415V219.096ZM341.063 214.824H347.495V259.272H341.063V214.824ZM346.055 231.768H353.927V237.048H346.055V231.768ZM373.4 218.568H401.576V223.704H373.4V218.568ZM369.32 248.76H409.496V253.944H369.32V248.76ZM383.528 233.496H389.912V251.304H383.528V233.496ZM399.272 218.568H405.656V222.84C405.656 228.408 405.656 234.648 403.88 244.152L397.496 243.432C399.272 234.6 399.272 228.168 399.272 222.84V218.568ZM415.684 218.328H437.236V239.832H415.684V218.328ZM430.996 223.368H421.924V234.792H430.996V223.368ZM443.956 214.872H450.388V246.456H443.956V214.872ZM420.772 253.224H451.492V258.36H420.772V253.224ZM420.772 243.576H427.156V255.48H420.772V243.576ZM486.096 214.824H492.432V259.272H486.096V214.824ZM490.992 232.152H498.864V237.48H490.992V232.152ZM457.392 221.4H483.264V226.488H457.392V221.4ZM470.4 228.984C476.88 228.984 481.68 233.4 481.68 239.592C481.68 245.784 476.88 250.2 470.4 250.2C463.92 250.2 459.12 245.784 459.12 239.592C459.12 233.4 463.92 228.984 470.4 228.984ZM470.4 234.168C467.376 234.168 465.216 236.184 465.216 239.592C465.216 243 467.376 245.016 470.4 245.016C473.424 245.016 475.584 243 475.584 239.592C475.584 236.184 473.424 234.168 470.4 234.168ZM467.184 215.544H473.568V223.32H467.184V215.544ZM512.444 221.832H517.532V226.824C517.532 237.096 513.356 247.128 505.004 250.92L501.404 245.88C508.844 242.568 512.444 234.36 512.444 226.824V221.832ZM513.884 221.832H518.924V226.824C518.924 234.024 522.476 241.704 529.916 244.776L526.46 249.816C518.012 246.168 513.884 236.712 513.884 226.824V221.832ZM503.18 219.096H528.092V224.328H503.18V219.096ZM532.22 214.824H538.652V259.272H532.22V214.824ZM559.709 219H580.973V248.472H559.709V219ZM574.685 223.992H565.997V243.432H574.685V223.992ZM586.781 214.824H593.213V259.272H586.781V214.824ZM591.773 231.576H599.645V236.856H591.773V231.576ZM620.042 229.752H627.386V234.936H620.042V229.752ZM610.538 218.664H615.434V226.152C615.434 236.232 612.65 246.072 605.546 250.44L601.706 245.64C608.234 241.608 610.538 233.688 610.538 226.152V218.664ZM611.93 218.664H616.73V225.864C616.73 233.112 618.602 240.504 624.65 244.44L621.194 249.432C614.138 245.064 611.93 235.464 611.93 225.864V218.664ZM634.634 214.824H640.73V259.272H634.634V214.824ZM625.61 215.496H631.562V257.256H625.61V215.496ZM655.558 237.384H661.894V249.864H655.558V237.384ZM671.686 237.384H678.07V249.864H671.686V237.384ZM646.726 248.952H686.95V254.136H646.726V248.952ZM666.79 216.984C676.342 216.984 683.398 221.688 683.398 228.936C683.398 236.184 676.342 240.84 666.79 240.84C657.19 240.84 650.182 236.184 650.182 228.936C650.182 221.688 657.19 216.984 666.79 216.984ZM666.79 221.976C660.598 221.976 656.47 224.52 656.47 228.936C656.47 233.304 660.598 235.896 666.79 235.896C672.982 235.896 677.11 233.304 677.11 228.936C677.11 224.52 672.982 221.976 666.79 221.976ZM697.938 244.296H693.33L692.13 220.728H699.138L697.938 244.296ZM691.938 251.928C691.938 250.584 692.29 249.64 692.994 249.096C693.698 248.52 694.578 248.232 695.634 248.232C696.626 248.232 697.474 248.504 698.178 249.048C698.914 249.592 699.282 250.552 699.282 251.928C699.282 253.24 698.914 254.184 698.178 254.76C697.474 255.336 696.626 255.624 695.634 255.624C694.578 255.624 693.698 255.336 692.994 254.76C692.29 254.184 691.938 253.24 691.938 251.928ZM8.32188 286.808H10.7699V288.212C10.7699 293.864 7.16988 298.616 1.73388 300.452L0.293875 298.112C5.08188 296.564 8.32188 292.604 8.32188 288.212V286.808ZM8.86188 286.808H11.3099V288.212C11.3099 292.244 14.6579 295.88 19.4459 297.284L18.0779 299.624C12.6059 297.932 8.86188 293.54 8.86188 288.212V286.808ZM1.12188 285.188H18.4739V287.6H1.12188V285.188ZM8.32188 281.12H11.3099V286.052H8.32188V281.12ZM17.5019 290.516H24.8459V293H17.5019V290.516ZM23.9819 281.264H26.9699V300.956H23.9819V281.264ZM16.2779 301.82C23.0099 301.82 27.1139 304.016 27.1139 307.796C27.1139 311.54 23.0099 313.736 16.2779 313.736C9.50988 313.736 5.40588 311.54 5.40588 307.796C5.40588 304.016 9.50988 301.82 16.2779 301.82ZM16.2779 304.16C11.3459 304.16 8.39388 305.492 8.39388 307.796C8.39388 310.064 11.3459 311.396 16.2779 311.396C21.1739 311.396 24.1619 310.064 24.1619 307.796C24.1619 305.492 21.1739 304.16 16.2779 304.16ZM55.5871 281.264H58.5751V299.696H55.5871V281.264ZM57.7471 289.22H63.3991V291.668H57.7471V289.22ZM34.8151 295.376H37.3351C44.0311 295.376 47.8111 295.196 52.1671 294.296L52.4911 296.744C48.0271 297.644 44.1751 297.86 37.3351 297.86H34.8151V295.376ZM34.8151 283.424H49.1431V285.872H37.7671V296.78H34.8151V283.424ZM38.1271 301.424H58.5751V313.376H38.1271V301.424ZM55.6591 303.836H41.0431V310.928H55.6591V303.836ZM99.4958 281.264H102.52V298.112H99.4958V281.264ZM81.2798 299.696H102.52V307.544H84.3038V312.44H81.3878V305.312H99.5318V302.072H81.2798V299.696ZM81.3878 311.072H103.708V313.448H81.3878V311.072ZM77.2478 283.46H94.7078V285.836H77.2478V283.46ZM76.6718 297.032L76.3478 294.548C82.1438 294.548 89.9198 294.404 96.2558 293.612L96.4358 295.808C89.9558 296.78 82.3958 296.996 76.6718 297.032ZM80.4518 284.54H83.3318V295.628H80.4518V284.54ZM88.5878 284.54H91.5038V295.628H88.5878V284.54ZM130.957 281.228H133.945V313.844H130.957V281.228ZM133.225 294.188H139.273V296.708H133.225V294.188ZM110.221 303.512H112.813C118.933 303.512 123.181 303.296 128.113 302.36L128.437 304.844C123.361 305.744 119.041 305.996 112.813 305.996H110.221V303.512ZM110.149 284.288H124.873V295.952H113.173V304.52H110.221V293.504H121.921V286.736H110.149V284.288ZM155.542 293.576H161.662V296.06H155.542V293.576ZM143.23 303.548H145.318C150.322 303.548 153.31 303.44 156.91 302.72L157.198 305.168C153.49 305.888 150.394 305.996 145.318 305.996H143.23V303.548ZM143.23 285.188H155.29V287.6H146.074V304.376H143.23V285.188ZM145.21 293.972H153.814V296.348H145.21V293.972ZM166.774 281.264H169.654V313.808H166.774V281.264ZM160.222 282.02H163.066V312.152H160.222V282.02ZM188.191 283.496H190.783V285.98C190.783 293.072 184.195 298.58 177.679 300.056L176.347 297.572C182.071 296.492 188.191 291.524 188.191 285.98V283.496ZM188.731 283.496H191.323V285.98C191.323 291.56 197.479 296.492 203.167 297.572L201.835 300.056C195.355 298.58 188.731 293.108 188.731 285.98V283.496ZM175.159 306.968H204.643V309.416H175.159V306.968ZM230.273 281.228H233.297V313.808H230.273V281.228ZM232.469 294.44H238.481V296.924H232.469V294.44ZM221.957 284.756H224.873C224.873 294.008 220.625 302.36 210.113 307.652L208.457 305.348C217.457 300.776 221.957 293.828 221.957 285.224V284.756ZM209.969 284.756H223.505V287.204H209.969V284.756ZM272.993 281.3H275.981V305.708H272.993V281.3ZM275.045 291.956H280.805V294.476H275.045V291.956ZM250.817 285.224H270.041V287.636H250.817V285.224ZM260.429 289.436C265.037 289.436 268.205 291.848 268.205 295.52C268.205 299.156 265.037 301.568 260.429 301.568C255.785 301.568 252.617 299.156 252.617 295.52C252.617 291.848 255.785 289.436 260.429 289.436ZM260.429 291.776C257.477 291.776 255.461 293.252 255.461 295.52C255.461 297.752 257.477 299.228 260.429 299.228C263.345 299.228 265.361 297.752 265.361 295.52C265.361 293.252 263.345 291.776 260.429 291.776ZM258.917 281.264H261.905V286.484H258.917V281.264ZM255.713 310.64H277.457V313.088H255.713V310.64ZM255.713 303.764H258.701V311.684H255.713V303.764ZM293.178 298.436H322.662V300.884H293.178V298.436ZM306.642 299.66H309.63V307.148H306.642V299.66ZM296.922 310.64H319.386V313.088H296.922V310.64ZM296.922 304.268H299.874V311.576H296.922V304.268ZM297.102 282.272H300.054V286.412H315.786V282.272H318.774V295.304H297.102V282.272ZM300.054 288.752V292.892H315.786V288.752H300.054ZM357.931 281.3H360.919V305.708H357.931V281.3ZM359.983 291.956H365.743V294.476H359.983V291.956ZM335.755 285.224H354.979V287.636H335.755V285.224ZM345.367 289.436C349.975 289.436 353.143 291.848 353.143 295.52C353.143 299.156 349.975 301.568 345.367 301.568C340.723 301.568 337.555 299.156 337.555 295.52C337.555 291.848 340.723 289.436 345.367 289.436ZM345.367 291.776C342.415 291.776 340.399 293.252 340.399 295.52C340.399 297.752 342.415 299.228 345.367 299.228C348.283 299.228 350.299 297.752 350.299 295.52C350.299 293.252 348.283 291.776 345.367 291.776ZM343.855 281.264H346.843V286.484H343.855V281.264ZM340.651 310.64H362.395V313.088H340.651V310.64ZM340.651 303.764H343.639V311.684H340.651V303.764ZM378.116 298.436H407.6V300.884H378.116V298.436ZM391.58 299.66H394.568V307.148H391.58V299.66ZM381.86 310.64H404.324V313.088H381.86V310.64ZM381.86 304.268H384.812V311.576H381.86V304.268ZM382.04 282.272H384.992V286.412H400.724V282.272H403.712V295.304H382.04V282.272ZM384.992 288.752V292.892H400.724V288.752H384.992ZM433.868 294.116H440.024V296.564H433.868V294.116ZM427.244 289.58H429.548V291.272C429.548 297.752 426.848 304.304 422.096 307.148L420.332 304.88C424.724 302.324 427.244 296.6 427.244 291.272V289.58ZM427.784 289.58H430.088V291.272C430.088 296.456 432.68 301.82 437.072 304.196L435.38 306.428C430.592 303.764 427.784 297.608 427.784 291.272V289.58ZM421.232 287.24H436.1V289.724H421.232V287.24ZM427.244 282.416H430.124V289.148H427.244V282.416ZM445.352 281.264H448.232V313.808H445.352V281.264ZM438.836 282.02H441.644V312.152H438.836V282.02ZM466.338 290.3H473.574V292.712H466.338V290.3ZM466.086 298.472H473.502V300.884H466.086V298.472ZM478.506 281.264H481.386V313.808H478.506V281.264ZM471.99 282.092H474.798V312.152H471.99V282.092ZM464.718 285.368H467.598C467.598 293.9 464.178 301.568 455.43 306.788L453.702 304.664C461.298 300.056 464.718 293.576 464.718 285.908V285.368ZM455.142 285.368H465.906V287.816H455.142V285.368ZM495.135 284.576H497.583V287.204C497.583 293.144 493.911 298.22 488.475 300.236L486.927 297.86C491.787 296.132 495.135 291.812 495.135 287.204V284.576ZM495.711 284.576H498.123V287.204C498.123 291.38 501.291 295.448 506.007 297.104L504.495 299.48C499.203 297.536 495.711 292.64 495.711 287.204V284.576ZM504.243 289.724H511.479V292.208H504.243V289.724ZM487.863 283.496H505.251V285.908H487.863V283.496ZM491.895 302.504H513.603V313.808H510.615V304.952H491.895V302.504ZM510.615 281.264H513.603V300.74H510.615V281.264ZM534.66 283.316C541.428 283.316 546.468 286.916 546.468 292.316C546.468 297.752 541.428 301.316 534.66 301.316C527.892 301.316 522.816 297.752 522.816 292.316C522.816 286.916 527.892 283.316 534.66 283.316ZM534.66 285.764C529.512 285.764 525.696 288.392 525.696 292.316C525.696 296.204 529.512 298.868 534.66 298.868C539.808 298.868 543.624 296.204 543.624 292.316C543.624 288.392 539.808 285.764 534.66 285.764ZM519.972 307.004H549.456V309.524H519.972V307.004ZM553.089 307.328H582.573V309.812H553.089V307.328ZM566.265 300.344H569.253V308.372H566.265V300.344ZM556.653 283.676H578.937V293.54H559.713V300.056H556.761V291.128H575.985V286.088H556.653V283.676ZM556.761 298.796H579.693V301.244H556.761V298.796ZM597.286 283.784H611.686V286.232H597.286V283.784ZM602.182 291.056H605.134V299.192H602.182V291.056ZM610.498 283.784H613.45V285.512C613.45 287.636 613.45 290.876 612.586 295.16L609.67 294.836C610.498 290.552 610.498 287.6 610.498 285.512V283.784ZM617.878 281.264H620.866V305.78H617.878V281.264ZM619.498 291.848H625.51V294.332H619.498V291.848ZM600.31 310.64H621.91V313.088H600.31V310.64ZM600.31 303.512H603.262V311.396H600.31V303.512ZM595.63 300.596L595.306 298.148C601.102 298.148 609.094 298.004 615.682 297.104L615.898 299.264C609.13 300.452 601.354 300.596 595.63 300.596ZM652.363 281.228H655.351V313.844H652.363V281.228ZM630.547 303.512H633.247C638.683 303.512 643.543 303.296 649.303 302.36L649.627 304.808C643.723 305.78 638.827 305.996 633.247 305.996H630.547V303.512ZM630.475 284.288H645.523V295.916H633.535V304.448H630.547V293.468H642.499V286.736H630.475V284.288ZM661.72 286.808H677.848V289.256H661.72V286.808ZM669.784 291.416C673.852 291.416 676.804 294.476 676.804 298.868C676.804 303.224 673.852 306.284 669.784 306.284C665.752 306.284 662.8 303.224 662.8 298.868C662.8 294.476 665.752 291.416 669.784 291.416ZM669.784 293.972C667.3 293.972 665.5 295.988 665.5 298.868C665.5 301.748 667.3 303.764 669.784 303.764C672.304 303.764 674.14 301.748 674.14 298.868C674.14 295.988 672.304 293.972 669.784 293.972ZM686.452 281.264H689.332V313.808H686.452V281.264ZM681.268 294.944H687.424V297.428H681.268V294.944ZM679.504 281.984H682.312V312.224H679.504V281.984ZM668.344 282.2H671.296V288.32H668.344V282.2ZM698.617 296.852H720.973V299.3H698.617V296.852ZM694.909 306.932H724.393V309.416H694.909V306.932ZM698.617 284.252H720.649V286.736H701.605V297.932H698.617V284.252ZM751.679 281.264H754.703V299.156H751.679V281.264ZM729.683 296.024H732.311C738.215 296.024 742.571 295.844 747.791 294.98L748.115 297.464C742.751 298.292 738.359 298.472 732.311 298.472H729.683V296.024ZM729.611 282.848H744.371V291.668H732.599V297.644H729.683V289.328H741.455V285.26H729.611V282.848ZM733.643 300.776H736.595V304.592H751.751V300.776H754.703V313.376H733.643V300.776ZM736.595 306.968V310.928H751.751V306.968H736.595ZM784.796 281.264H787.784V313.808H784.796V281.264ZM763.196 284.432H766.148V304.592H763.196V284.432ZM763.196 302.828H765.86C770.792 302.828 775.94 302.468 781.448 301.316L781.808 303.872C776.156 305.024 771.008 305.42 765.86 305.42H763.196V302.828ZM816.257 281.228H819.281V313.844H816.257V281.228ZM818.561 294.08H824.609V296.6H818.561V294.08ZM795.629 303.224H798.185C804.197 303.224 808.409 303.008 813.269 302.108L813.593 304.628C808.589 305.564 804.305 305.744 798.185 305.744H795.629V303.224ZM795.629 284.396H810.749V286.844H798.581V304.34H795.629V284.396Z" fill="white"/>
</svg>
