<svg width="1189" height="70" viewBox="0 0 1189 70" fill="none" xmlns="http://www.w3.org/2000/svg">
<circle cx="214" cy="4" r="4" fill="#FFEA2C"/>
<circle cx="254" cy="4" r="4" fill="#FFEA2C"/>
<circle cx="650" cy="4" r="4" fill="#FFEA2C"/>
<circle cx="690" cy="4" r="4" fill="#FFEA2C"/>
<path d="M24.8558 28.9091V58H21.3331V32.6023H21.1626L14.0604 37.3182V33.7386L21.3331 28.9091H24.8558ZM33.8109 30.24H63.1709V32.96H33.8109V30.24ZM32.2109 54.16H64.9709V56.92H32.2109V54.16ZM46.8909 48.44H50.1709V55.24H46.8909V48.44ZM48.4909 35.4C55.8109 35.4 60.3309 37.92 60.3309 42.28C60.3309 46.64 55.8109 49.16 48.4909 49.16C41.2109 49.16 36.6909 46.64 36.6909 42.28C36.6909 37.92 41.2109 35.4 48.4909 35.4ZM48.4909 38C43.2509 38 40.0109 39.6 40.0109 42.28C40.0109 44.96 43.2509 46.52 48.4909 46.52C53.7709 46.52 56.9709 44.96 56.9709 42.28C56.9709 39.6 53.7709 38 48.4909 38ZM46.8909 25.56H50.1709V31.92H46.8909V25.56ZM88.2878 34H96.3278V36.76H88.2878V34ZM95.4078 24.96H98.7278V46.12H95.4078V24.96ZM75.2878 47.88H98.7278V60.64H75.2878V47.88ZM95.4878 50.52H78.5278V57.96H95.4878V50.52ZM78.2078 28.4H80.9278V31.32C80.9278 37.92 76.8478 43.56 70.8078 45.8L69.0878 43.16C74.4878 41.24 78.2078 36.44 78.2078 31.32V28.4ZM78.8478 28.4H81.5278V31.28C81.5278 35.96 85.0478 40.48 90.2878 42.32L88.6078 44.96C82.7278 42.84 78.8478 37.36 78.8478 31.28V28.4ZM70.1278 27.28H89.4478V29.96H70.1278V27.28ZM105.765 46.36H138.565V49.08H105.765V46.36ZM120.405 47.64H123.685V61.12H120.405V47.64ZM109.885 26.4H113.205V31.36H131.085V26.4H134.365V42.04H109.885V26.4ZM113.205 34.04V39.36H131.085V34.04H113.205ZM169.082 24.92H172.362V61.16H169.082V24.92ZM161.562 38.56H169.562V41.32H161.562V38.56ZM144.242 49.72H147.002C153.802 49.72 158.082 49.6 163.162 48.64L163.482 51.36C158.282 52.28 153.882 52.48 147.002 52.48H144.242V49.72ZM144.242 28.24H160.962V31H147.522V50.68H144.242V28.24ZM146.682 38.4H159.402V41.08H146.682V38.4ZM200.84 22.24H206.024V25.072C206.024 33.424 202.088 41.152 193.544 43.936L190.328 38.896C197.672 36.496 200.84 30.64 200.84 25.072V22.24ZM202.184 22.24H207.32V25.072C207.32 30.256 210.344 35.728 217.352 38.08L214.232 43.072C205.976 40.336 202.184 32.944 202.184 25.072V22.24ZM214.76 28.432H223.208V33.616H214.76V28.432ZM192.056 20.272H215.96V25.312H192.056V20.272ZM197.48 46.288H227.768V62.272H221.384V51.376H197.48V46.288ZM221.384 17.824H227.768V44.272H221.384V17.824ZM244.709 24.832H249.749V29.824C249.749 39.856 245.525 50.08 237.365 53.92L233.765 48.88C241.109 45.424 244.709 37.12 244.709 29.824V24.832ZM246.053 24.832H251.093V29.824C251.093 36.544 254.549 44.416 261.845 47.776L258.341 52.816C250.181 49.024 246.053 39.28 246.053 29.824V24.832ZM235.493 22.096H259.877V27.328H235.493V22.096ZM263.141 17.824H269.573V62.272H263.141V17.824ZM268.133 34.768H276.005V40.048H268.133V34.768ZM309.409 17.872H315.841V49.792H309.409V17.872ZM286.225 56.416H316.945V61.504H286.225V56.416ZM286.225 46.576H292.609V58.48H286.225V46.576ZM291.649 20.656C298.465 20.656 303.697 25.36 303.697 31.936C303.697 38.464 298.465 43.216 291.649 43.216C284.833 43.216 279.553 38.464 279.553 31.936C279.553 25.36 284.833 20.656 291.649 20.656ZM291.649 26.176C288.337 26.176 285.793 28.288 285.793 31.936C285.793 35.536 288.337 37.648 291.649 37.648C294.913 37.648 297.457 35.536 297.457 31.936C297.457 28.288 294.913 26.176 291.649 26.176ZM367.055 17.824H373.151V62.272H367.055V17.824ZM361.727 34.768H369.071V39.904H361.727V34.768ZM357.311 18.496H363.311V60.256H357.311V18.496ZM336.191 22.384H353.759V51.184H336.191V22.384ZM347.807 27.376H342.143V46.192H347.807V27.376ZM388.988 22.768H394.22V25.552C394.22 34.048 390.236 41.68 381.644 44.512L378.476 39.472C385.868 37.024 388.988 31.216 388.988 25.552V22.768ZM390.284 22.768H395.468V25.552C395.468 30.736 398.444 35.824 405.596 37.984L402.572 42.976C394.124 40.432 390.284 33.472 390.284 25.552V22.768ZM380.156 20.8H404.156V25.888H380.156V20.8ZM407.708 17.824H414.092V44.176H407.708V17.824ZM412.316 28.048H419.996V33.28H412.316V28.048ZM399.596 44.992C408.812 44.992 414.62 48.208 414.62 53.632C414.62 59.056 408.812 62.272 399.596 62.272C390.332 62.272 384.524 59.056 384.524 53.632C384.524 48.208 390.332 44.992 399.596 44.992ZM399.596 49.984C393.932 49.984 390.86 51.136 390.86 53.632C390.86 56.128 393.932 57.376 399.596 57.376C405.26 57.376 408.284 56.128 408.284 53.632C408.284 51.136 405.26 49.984 399.596 49.984ZM439.656 25.56C447.616 25.56 452.376 27.8 452.376 31.84C452.376 35.88 447.616 38.12 439.656 38.12C431.656 38.12 426.936 35.88 426.936 31.84C426.936 27.8 431.656 25.56 439.656 25.56ZM439.656 28.08C433.736 28.08 430.336 29.44 430.336 31.84C430.336 34.24 433.736 35.6 439.656 35.6C445.536 35.6 448.936 34.24 448.936 31.84C448.936 29.44 445.536 28.08 439.656 28.08ZM423.296 40.52H455.976V43.2H423.296V40.52ZM427.256 46.28H451.816V54.44H430.616V58.84H427.336V52.04H448.536V48.84H427.256V46.28ZM427.336 58.12H452.896V60.72H427.336V58.12ZM497.663 25H501.023V51.4H497.663V25ZM477.783 57.6H502.103V60.32H477.783V57.6ZM477.783 48.68H481.063V58.52H477.783V48.68ZM481.623 27.48C487.023 27.48 491.023 31.16 491.023 36.4C491.023 41.6 487.023 45.32 481.623 45.32C476.223 45.32 472.183 41.6 472.183 36.4C472.183 31.16 476.223 27.48 481.623 27.48ZM481.623 30.36C478.103 30.36 475.423 32.84 475.423 36.4C475.423 39.92 478.103 42.4 481.623 42.4C485.143 42.4 487.823 39.92 487.823 36.4C487.823 32.84 485.143 30.36 481.623 30.36ZM522.78 26.24H525.7V28.24C525.7 35.16 518.66 40.12 511.14 41.4L509.82 38.72C516.42 37.72 522.78 33.4 522.78 28.24V26.24ZM523.38 26.24H526.26V28.24C526.26 33.28 532.7 37.72 539.22 38.72L537.9 41.4C530.46 40.12 523.38 35.08 523.38 28.24V26.24ZM522.78 47.36H526.06V61.12H522.78V47.36ZM508.18 45.32H540.86V48.08H508.18V45.32ZM569.457 24.96H572.777V61.12H569.457V24.96ZM571.977 39.8H578.697V42.6H571.977V39.8ZM544.777 30.72H566.097V33.44H544.777V30.72ZM555.577 36.44C560.697 36.44 564.377 39.88 564.377 44.76C564.377 49.64 560.697 53.08 555.577 53.08C550.497 53.08 546.777 49.64 546.777 44.76C546.777 39.88 550.497 36.44 555.577 36.44ZM555.577 39.2C552.297 39.2 549.937 41.48 549.937 44.76C549.937 48 552.297 50.32 555.577 50.32C558.857 50.32 561.217 48 561.217 44.76C561.217 41.48 558.857 39.2 555.577 39.2ZM553.857 25.4H557.177V31.96H553.857V25.4ZM598.053 33H608.973V35.76H598.053V33ZM598.053 44.44H608.973V47.2H598.053V44.44ZM591.413 27.72C596.653 27.72 600.413 32.64 600.413 40.32C600.413 48.04 596.653 52.96 591.413 52.96C586.133 52.96 582.413 48.04 582.413 40.32C582.413 32.64 586.133 27.72 591.413 27.72ZM591.413 30.72C587.933 30.72 585.533 34.48 585.533 40.32C585.533 46.2 587.933 50.04 591.413 50.04C594.893 50.04 597.293 46.2 597.293 40.32C597.293 34.48 594.893 30.72 591.413 30.72ZM608.253 24.92H611.533V61.16H608.253V24.92ZM631.66 21.184H667.852V25.984H631.66V21.184ZM649.852 27.184C659.356 27.184 664.732 29.44 664.732 33.76C664.732 38.128 659.356 40.384 649.852 40.384C640.348 40.384 634.972 38.128 634.972 33.76C634.972 29.44 640.348 27.184 649.852 27.184ZM649.852 31.552C644.092 31.552 641.5 32.224 641.5 33.76C641.5 35.296 644.092 35.968 649.852 35.968C655.612 35.968 658.204 35.296 658.204 33.76C658.204 32.224 655.612 31.552 649.852 31.552ZM646.636 17.44H653.02V24.352H646.636V17.44ZM629.74 42.256H669.916V47.2H629.74V42.256ZM634.156 49.888H664.972V62.272H658.588V54.688H634.156V49.888ZM683.881 24.832H688.921V29.824C688.921 39.856 684.697 50.08 676.537 53.92L672.937 48.88C680.281 45.424 683.881 37.12 683.881 29.824V24.832ZM685.225 24.832H690.265V29.824C690.265 36.544 693.721 44.416 701.017 47.776L697.513 52.816C689.353 49.024 685.225 39.28 685.225 29.824V24.832ZM674.665 22.096H699.049V27.328H674.665V22.096ZM702.313 17.824H708.745V62.272H702.313V17.824ZM707.305 34.768H715.177V40.048H707.305V34.768ZM718.101 52.192H758.325V57.376H718.101V52.192ZM734.949 43.792H741.333V54.304H734.949V43.792ZM722.613 20.704H753.813V35.488H729.045V42.976H722.709V30.496H747.477V25.744H722.613V20.704ZM722.709 40.432H754.821V45.568H722.709V40.432ZM797.923 29.296H808.291V34.432H797.923V29.296ZM804.931 17.872H811.315V50.272H804.931V17.872ZM781.987 56.416H812.323V61.504H781.987V56.416ZM781.987 47.536H788.371V59.44H781.987V47.536ZM784.387 23.68H789.571V26.464C789.571 34.816 785.635 42.544 777.091 45.376L773.875 40.288C781.219 37.888 784.387 32.08 784.387 26.464V23.68ZM785.731 23.68H790.867V26.464C790.867 31.648 793.891 37.168 800.899 39.52L797.779 44.512C789.523 41.776 785.731 34.384 785.731 26.464V23.68ZM775.603 20.848H799.507V25.888H775.603V20.848ZM847.168 17.824H853.552V52.576H847.168V17.824ZM851.296 32.368H859.12V37.552H851.296V32.368ZM823.888 56.416H855.04V61.504H823.888V56.416ZM823.888 50.32H830.32V57.904H823.888V50.32ZM828.352 39.184H834.736V45.664H828.352V39.184ZM818.464 48.256L817.744 43.36C825.472 43.36 836.176 43.216 845.2 41.872L845.68 46.24C836.464 47.968 826.048 48.16 818.464 48.256ZM818.896 21.376H844.096V25.984H818.896V21.376ZM831.52 27.136C838.048 27.136 842.32 29.728 842.32 34.048C842.32 38.272 838.048 40.912 831.52 40.912C824.992 40.912 820.672 38.272 820.672 34.048C820.672 29.728 824.992 27.136 831.52 27.136ZM831.52 31.408C828.496 31.408 826.72 32.272 826.72 34.048C826.72 35.728 828.496 36.592 831.52 36.592C834.496 36.592 836.272 35.728 836.272 34.048C836.272 32.272 834.496 31.408 831.52 31.408ZM828.352 17.632H834.736V23.344H828.352V17.632ZM887.228 24.84H890.548V44.8H887.228V24.84ZM889.148 33.52H895.908V36.32H889.148V33.52ZM867.588 46.64H890.548V54.72H870.948V59.12H867.668V52.32H887.308V49.16H867.588V46.64ZM867.668 58.16H891.868V60.72H867.668V58.16ZM862.588 28.2H883.948V30.8H862.588V28.2ZM873.268 32.4C878.468 32.4 881.908 34.68 881.908 38.36C881.908 42 878.468 44.24 873.268 44.24C867.988 44.24 864.588 42 864.588 38.36C864.588 34.68 867.988 32.4 873.268 32.4ZM873.268 34.84C869.908 34.84 867.748 36.2 867.748 38.36C867.748 40.48 869.908 41.84 873.268 41.84C876.588 41.84 878.748 40.48 878.748 38.36C878.748 36.2 876.588 34.84 873.268 34.84ZM871.588 24.56H874.908V30H871.588V24.56ZM925.155 26.24H928.075V28.24C928.075 35.16 921.035 40.12 913.515 41.4L912.195 38.72C918.795 37.72 925.155 33.4 925.155 28.24V26.24ZM925.755 26.24H928.635V28.24C928.635 33.28 935.075 37.72 941.595 38.72L940.275 41.4C932.835 40.12 925.755 35.08 925.755 28.24V26.24ZM925.155 47.36H928.435V61.12H925.155V47.36ZM910.555 45.32H943.235V48.08H910.555V45.32ZM967.602 47.2H970.162V49.16C970.162 53.88 967.202 58.64 962.002 60.64L960.322 58.16C964.882 56.52 967.602 52.64 967.602 49.16V47.2ZM968.322 47.2H970.802V49.16C970.802 52.8 972.962 56.68 977.282 58.44L975.882 60.96C970.682 58.92 968.322 53.96 968.322 49.16V47.2ZM980.962 47.2H983.442V49.16C983.442 53.4 981.042 58.76 975.882 60.96L974.482 58.44C978.762 56.48 980.962 52.28 980.962 49.16V47.2ZM981.642 47.2H984.202V49.16C984.202 52.88 986.882 56.6 991.482 58.16L989.802 60.64C984.522 58.72 981.642 54.16 981.642 49.16V47.2ZM984.882 25H988.242V45.64H984.882V25ZM968.842 27.08C974.322 27.08 978.242 30.52 978.242 35.52C978.242 40.52 974.322 43.92 968.842 43.92C963.362 43.92 959.402 40.52 959.402 35.52C959.402 30.52 963.362 27.08 968.842 27.08ZM968.842 29.84C965.242 29.84 962.642 32.16 962.642 35.52C962.642 38.88 965.242 41.16 968.842 41.16C972.442 41.16 975.042 38.88 975.042 35.52C975.042 32.16 972.442 29.84 968.842 29.84ZM1004.6 47H1007.2V49.08C1007.2 53.88 1004.24 58.68 999.038 60.68L997.358 58.2C1001.92 56.52 1004.6 52.6 1004.6 49.08V47ZM1005.36 47H1007.84V49.08C1007.84 52.76 1009.96 56.72 1014.32 58.48L1012.92 61C1007.68 58.96 1005.36 53.92 1005.36 49.08V47ZM1018 47H1020.44V49.08C1020.44 53.36 1018.08 58.8 1012.92 61L1011.48 58.48C1015.8 56.48 1018 52.24 1018 49.08V47ZM1018.64 47H1021.24V49.08C1021.24 52.88 1023.88 56.64 1028.52 58.2L1026.8 60.68C1021.56 58.76 1018.64 54.12 1018.64 49.08V47ZM1013.16 34H1022.72V36.76H1013.16V34ZM1005.24 27C1010.56 27 1014.52 30.48 1014.52 35.48C1014.52 40.44 1010.56 43.92 1005.24 43.92C999.918 43.92 995.998 40.44 995.998 35.48C995.998 30.48 999.918 27 1005.24 27ZM1005.24 29.76C1001.72 29.76 999.158 32.16 999.158 35.48C999.158 38.8 1001.72 41.16 1005.24 41.16C1008.72 41.16 1011.32 38.8 1011.32 35.48C1011.32 32.16 1008.72 29.76 1005.24 29.76ZM1021.8 24.96H1025.12V45.56H1021.8V24.96ZM1034.24 43.36H1036.96C1043.64 43.36 1047.88 43.12 1052.8 42.16L1053.12 44.88C1048.08 45.84 1043.76 46.08 1036.96 46.08H1034.24V43.36ZM1034.24 27.92H1050.8V30.64H1037.52V44.2H1034.24V27.92ZM1058.6 24.96H1061.92V51.36H1058.6V24.96ZM1048.48 34.96H1059.36V37.64H1048.48V34.96ZM1038.8 57.84H1062.88V60.56H1038.8V57.84ZM1038.8 49.4H1042.12V59.4H1038.8V49.4ZM1106.48 24.92H1109.8V61.16H1106.48V24.92ZM1090.72 27.72C1096.08 27.72 1099.92 32.64 1099.92 40.32C1099.92 48.04 1096.08 52.96 1090.72 52.96C1085.4 52.96 1081.56 48.04 1081.56 40.32C1081.56 32.64 1085.4 27.72 1090.72 27.72ZM1090.72 30.72C1087.2 30.72 1084.72 34.48 1084.72 40.32C1084.72 46.2 1087.2 50.04 1090.72 50.04C1094.28 50.04 1096.72 46.2 1096.72 40.32C1096.72 34.48 1094.28 30.72 1090.72 30.72ZM1125.4 47.32H1128.8V61.12H1125.4V47.32ZM1137.84 47.32H1141.24V61.12H1137.84V47.32ZM1117 45.52H1149.8V48.28H1117V45.52ZM1133.32 26.4C1140.88 26.4 1145.96 29.44 1145.96 34.28C1145.96 39.08 1140.88 42.16 1133.32 42.16C1125.8 42.16 1120.68 39.08 1120.68 34.28C1120.68 29.44 1125.8 26.4 1133.32 26.4ZM1133.32 29.08C1127.8 29.08 1124.04 31.12 1124.04 34.28C1124.04 37.44 1127.8 39.48 1133.32 39.48C1138.84 39.48 1142.56 37.44 1142.56 34.28C1142.56 31.12 1138.84 29.08 1133.32 29.08ZM1158.24 35.8H1182.8V38.52H1158.24V35.8ZM1153.8 43.36H1186.6V46.08H1153.8V43.36ZM1158.24 26.28H1161.52V37.16H1158.24V26.28ZM1158 57.52H1183V60.24H1158V57.52ZM1158 49.68H1161.28V58.24H1158V49.68Z" fill="white"/>
</svg>
